<?xml version="1.0" encoding="utf-8"?>
<svg viewBox="0 0 500 500" xmlns="http://www.w3.org/2000/svg">
  <defs>
    <clipPath id="clip0">
      <rect x="2704" y="816" width="1173" height="1042"/>
    </clipPath>
    <radialGradient cx="1.62098e+06" cy="1.43949e+06" r="2.16788e+06" gradientUnits="userSpaceOnUse" spreadMethod="pad" id="fill1" gradientTransform="matrix(0.000360892 0 0 0.000360892 2705 817)">
      <stop offset="0" stop-color="#FFFFFF"/>
      <stop offset="0.43" stop-color="#FFFFFF"/>
      <stop offset="1" stop-color="#F2F2F2"/>
    </radialGradient>
    <clipPath id="clip2">
      <rect x="2705" y="816" width="1169" height="1040"/>
    </clipPath>
    <clipPath id="clip3">
      <rect x="2705" y="816" width="1169" height="1040"/>
    </clipPath>
    <clipPath id="clip4">
      <rect x="2705" y="816" width="1169" height="1040"/>
    </clipPath>
    <clipPath id="clip5">
      <rect x="2705" y="816" width="1169" height="1040"/>
    </clipPath>
    <clipPath id="clip6">
      <rect x="2705" y="816" width="1169" height="1040"/>
    </clipPath>
    <clipPath id="clip7">
      <rect x="2705" y="816" width="1169" height="1040"/>
    </clipPath>
    <clipPath id="clip8">
      <rect x="2705" y="816" width="1169" height="1040"/>
    </clipPath>
    <clipPath id="clip9">
      <rect x="2705" y="816" width="1169" height="1040"/>
    </clipPath>
    <clipPath id="clip10">
      <rect x="2705" y="816" width="1169" height="1040"/>
    </clipPath>
    <clipPath id="clip11">
      <rect x="2705" y="816" width="1169" height="1040"/>
    </clipPath>
    <clipPath id="clip12">
      <rect x="2705" y="816" width="1169" height="1040"/>
    </clipPath>
    <clipPath id="clip13">
      <rect x="2705" y="816" width="1169" height="1040"/>
    </clipPath>
    <clipPath id="clip14">
      <rect x="2705" y="816" width="1169" height="1040"/>
    </clipPath>
    <clipPath id="clip15">
      <rect x="2705" y="816" width="1169" height="1040"/>
    </clipPath>
    <clipPath id="clip16">
      <rect x="2705" y="816" width="1169" height="1040"/>
    </clipPath>
    <clipPath id="clip17">
      <rect x="2705" y="816" width="1169" height="1040"/>
    </clipPath>
    <clipPath id="clip19">
      <rect x="2705" y="816" width="1169" height="1040"/>
    </clipPath>
    <clipPath id="clip20">
      <rect x="2705" y="816" width="1169" height="1040"/>
    </clipPath>
    <clipPath id="clip21">
      <rect x="2705" y="816" width="1169" height="1040"/>
    </clipPath>
    <clipPath id="clip22">
      <rect x="2705" y="816" width="1169" height="1040"/>
    </clipPath>
    <clipPath id="clip23">
      <rect x="2705" y="816" width="1169" height="1040"/>
    </clipPath>
    <clipPath id="clip24">
      <rect x="2705" y="816" width="1169" height="1040"/>
    </clipPath>
    <clipPath id="clip25">
      <rect x="2705" y="816" width="1169" height="1040"/>
    </clipPath>
    <clipPath id="clip26">
      <rect x="2705" y="816" width="1169" height="1040"/>
    </clipPath>
    <clipPath id="clip27">
      <rect x="2705" y="816" width="1169" height="1040"/>
    </clipPath>
    <clipPath id="clip28">
      <rect x="2705" y="816" width="1169" height="1040"/>
    </clipPath>
    <clipPath id="clip29">
      <rect x="2705" y="816" width="1169" height="1040"/>
    </clipPath>
    <clipPath id="clip30">
      <rect x="2705" y="816" width="1169" height="1040"/>
    </clipPath>
    <clipPath id="clip31">
      <rect x="2705" y="816" width="1169" height="1040"/>
    </clipPath>
    <clipPath id="clip32">
      <rect x="2705" y="816" width="1169" height="1040"/>
    </clipPath>
    <clipPath id="clip33">
      <rect x="2705" y="816" width="1169" height="1040"/>
    </clipPath>
    <clipPath id="clip34">
      <rect x="2705" y="816" width="1169" height="1040"/>
    </clipPath>
    <clipPath id="clip35">
      <rect x="2705" y="816" width="1169" height="1040"/>
    </clipPath>
    <clipPath id="clip36">
      <rect x="2705" y="816" width="1169" height="1040"/>
    </clipPath>
    <clipPath id="clip37">
      <rect x="2705" y="816" width="1169" height="1040"/>
    </clipPath>
    <clipPath id="clip38">
      <rect x="2705" y="816" width="1169" height="1040"/>
    </clipPath>
  </defs>
  <g clip-path="url(#clip0)" transform="matrix(1, 0, 0, 1, -3093.509597, -1176.680145)">
    <rect x="2705" y="817" width="1170" height="1039" fill="url(#fill1)"/>
    <g clip-path="url(#clip2)">
      <path d="M2939.5 1724.5 3803.5 1724.5M2939.5 1643.55 3803.5 1643.55M2939.5 1562.55 3803.5 1562.55M2939.5 1481.55 3803.5 1481.55M2939.5 1400.55 3803.5 1400.55M2939.5 1319.54 3803.5 1319.54M2939.5 1157.54 3803.5 1157.54M2939.5 1075.54 3803.5 1075.54M2939.5 994.5 3803.5 994.5" stroke="#D9D9D9" stroke-width="3.4375" stroke-linejoin="round" stroke-miterlimit="10" fill="none"/>
    </g>
    <g clip-path="url(#clip3)">
      <path d="M2939.5 994.5 2939.5 1724.5M3080.6 994.5 3080.6 1724.5M3221.61 994.5 3221.61 1724.5M3363.61 994.5 3363.61 1724.5M3504.62 994.5 3504.62 1724.5M3646.62 994.5 3646.62 1724.5M3787.5 994.5 3787.5 1724.5" stroke="#D9D9D9" stroke-width="3.4375" stroke-linejoin="round" stroke-miterlimit="10" fill="none"/>
    </g>
    <g clip-path="url(#clip4)">
      <path d="M2939.5 1238.5 3803.5 1238.5" stroke="#000000" stroke-width="11.4583" stroke-linejoin="round" stroke-miterlimit="10" fill="none" fill-rule="evenodd"/>
    </g>
    <g clip-path="url(#clip5)">
      <path d="M3577.31 1154.88C3577.31 1159.85 3573.28 1163.88 3568.31 1163.88 3563.34 1163.88 3559.31 1159.85 3559.31 1154.88 3559.31 1149.91 3563.34 1145.88 3568.31 1145.88 3573.28 1145.88 3577.31 1149.91 3577.31 1154.88Z" fill="#BFBFBF"/>
      <path d="M3592.31 1154.88C3592.31 1159.85 3588.28 1163.88 3583.31 1163.88 3578.34 1163.88 3574.31 1159.85 3574.31 1154.88 3574.31 1149.91 3578.34 1145.88 3583.31 1145.88 3588.28 1145.88 3592.31 1149.91 3592.31 1154.88Z" fill="#BFBFBF"/>
      <path d="M3624.31 1341.88C3624.31 1346.85 3620.28 1350.88 3615.31 1350.88 3610.34 1350.88 3606.31 1346.85 3606.31 1341.88 3606.31 1336.91 3610.34 1332.88 3615.31 1332.88 3620.28 1332.88 3624.31 1336.91 3624.31 1341.88Z" fill="#BFBFBF"/>
      <path d="M3639.31 1377.88C3639.31 1382.85 3635.28 1386.88 3630.31 1386.88 3625.34 1386.88 3621.31 1382.85 3621.31 1377.88 3621.31 1372.91 3625.34 1368.88 3630.31 1368.88 3635.28 1368.88 3639.31 1372.91 3639.31 1377.88Z" fill="#BFBFBF"/>
      <path d="M3655.31 1553.88C3655.31 1558.85 3651.28 1562.88 3646.31 1562.88 3641.34 1562.88 3637.31 1558.85 3637.31 1553.88 3637.31 1548.91 3641.34 1544.88 3646.31 1544.88 3651.28 1544.88 3655.31 1548.91 3655.31 1553.88Z" fill="#BFBFBF"/>
    </g>
    <g clip-path="url(#clip6)">
      <path d="M3530.31 1111.88C3530.31 1116.85 3526.28 1120.88 3521.31 1120.88 3516.34 1120.88 3512.31 1116.85 3512.31 1111.88 3512.31 1106.91 3516.34 1102.88 3521.31 1102.88 3526.28 1102.88 3530.31 1106.91 3530.31 1111.88Z" fill="#1F4E79"/>
      <path d="M3608.31 1361.88C3608.31 1366.85 3604.28 1370.88 3599.31 1370.88 3594.34 1370.88 3590.31 1366.85 3590.31 1361.88 3590.31 1356.91 3594.34 1352.88 3599.31 1352.88 3604.28 1352.88 3608.31 1356.91 3608.31 1361.88Z" fill="#1F4E79"/>
      <path d="M3765.31 1422.88C3765.31 1427.85 3761.28 1431.88 3756.31 1431.88 3751.34 1431.88 3747.31 1427.85 3747.31 1422.88 3747.31 1417.91 3751.34 1413.88 3756.31 1413.88 3761.28 1413.88 3765.31 1417.91 3765.31 1422.88Z" fill="#1F4E79"/>
      <path d="M3781.31 1623.88C3781.31 1628.85 3777.28 1632.88 3772.31 1632.88 3767.34 1632.88 3763.31 1628.85 3763.31 1623.88 3763.31 1618.91 3767.34 1614.88 3772.31 1614.88 3777.28 1614.88 3781.31 1618.91 3781.31 1623.88Z" fill="#1F4E79"/>
      <path d="M3797.31 1547.88C3797.31 1552.85 3793.28 1556.88 3788.31 1556.88 3783.34 1556.88 3779.31 1552.85 3779.31 1547.88 3779.31 1542.91 3783.34 1538.88 3788.31 1538.88 3793.28 1538.88 3797.31 1542.91 3797.31 1547.88Z" fill="#1F4E79"/>
    </g>
    <g clip-path="url(#clip7)">
      <path d="M3545.31 1033.88C3545.31 1038.85 3541.28 1042.88 3536.31 1042.88 3531.34 1042.88 3527.31 1038.85 3527.31 1033.88 3527.31 1028.91 3531.34 1024.88 3536.31 1024.88 3541.28 1024.88 3545.31 1028.91 3545.31 1033.88Z" fill="#C00000"/>
      <path d="M3561.31 1030.88C3561.31 1035.85 3557.28 1039.88 3552.31 1039.88 3547.34 1039.88 3543.31 1035.85 3543.31 1030.88 3543.31 1025.91 3547.34 1021.88 3552.31 1021.88 3557.28 1021.88 3561.31 1025.91 3561.31 1030.88Z" fill="#C00000"/>
      <path d="M3749.31 1389.88C3749.31 1394.85 3745.28 1398.88 3740.31 1398.88 3735.34 1398.88 3731.31 1394.85 3731.31 1389.88 3731.31 1384.91 3735.34 1380.88 3740.31 1380.88 3745.28 1380.88 3749.31 1384.91 3749.31 1389.88Z" fill="#C00000"/>
    </g>
    <g clip-path="url(#clip8)">
      <text fill="#7F7F7F" font-family="Calibri,Calibri_MSFontService,sans-serif" font-weight="400" font-size="55" transform="matrix(1 0 0 1 2843.5 1740)" style="white-space: pre;">-6</text>
    </g>
    <g clip-path="url(#clip9)">
      <text fill="#7F7F7F" font-family="Calibri,Calibri_MSFontService,sans-serif" font-weight="400" font-size="55" transform="matrix(1 0 0 1 2843.5 1659)" style="white-space: pre;">-5</text>
    </g>
    <g clip-path="url(#clip10)">
      <text fill="#7F7F7F" font-family="Calibri,Calibri_MSFontService,sans-serif" font-weight="400" font-size="55" transform="matrix(1 0 0 1 2843.5 1578)" style="white-space: pre;">-4</text>
    </g>
    <g clip-path="url(#clip11)">
      <text fill="#7F7F7F" font-family="Calibri,Calibri_MSFontService,sans-serif" font-weight="400" font-size="55" transform="matrix(1 0 0 1 2843.5 1497)" style="white-space: pre;">-3</text>
    </g>
    <g clip-path="url(#clip12)">
      <text fill="#7F7F7F" font-family="Calibri,Calibri_MSFontService,sans-serif" font-weight="400" font-size="55" transform="matrix(1 0 0 1 2843.5 1416)" style="white-space: pre;">-2</text>
    </g>
    <g clip-path="url(#clip13)">
      <text fill="#7F7F7F" font-family="Calibri,Calibri_MSFontService,sans-serif" font-weight="400" font-size="55" transform="matrix(1 0 0 1 2843.5 1335)" style="white-space: pre;">-1</text>
    </g>
    <g clip-path="url(#clip14)">
      <text fill="#7F7F7F" font-family="Calibri,Calibri_MSFontService,sans-serif" font-weight="400" font-size="55" transform="matrix(1 0 0 1 2860.34 1254)" style="white-space: pre;">0</text>
    </g>
    <g clip-path="url(#clip15)">
      <text fill="#7F7F7F" font-family="Calibri,Calibri_MSFontService,sans-serif" font-weight="400" font-size="55" transform="matrix(1 0 0 1 2860.34 1172)" style="white-space: pre;">1</text>
    </g>
    <g clip-path="url(#clip16)">
      <text fill="#7F7F7F" font-family="Calibri,Calibri_MSFontService,sans-serif" font-weight="400" font-size="55" transform="matrix(1 0 0 1 2860.34 1091)" style="white-space: pre;">2</text>
    </g>
    <g clip-path="url(#clip17)">
      <text fill="#7F7F7F" font-family="Calibri,Calibri_MSFontService,sans-serif" font-weight="400" font-size="55" transform="matrix(1 0 0 1 2860.34 1010)" style="white-space: pre;">3</text>
    </g>
    <g clip-path="url(#clip19)" transform="matrix(1, 0, 0, 1, -72.69696, -6.785049)">
      <text transform="matrix(1 0 0 1 3070.18 1303)" style="white-space: pre;" font-weight="400" font-size="41" font-family="Calibri,Calibri_MSFontService,sans-serif" fill="#7F7F7F">9</text>
    </g>
    <g clip-path="url(#clip20)" transform="matrix(1, 0, 0, 1, -72.69696, -6.785049)">
      <text transform="matrix(1 0 0 1 3201.12 1303)" style="white-space: pre;" font-weight="400" font-size="41" font-family="Calibri,Calibri_MSFontService,sans-serif" fill="#7F7F7F">18</text>
    </g>
    <g clip-path="url(#clip21)" transform="matrix(1, 0, 0, 1, -72.69696, -6.785049)">
      <text transform="matrix(1 0 0 1 3342.51 1303)" style="white-space: pre;" font-weight="400" font-size="41" font-family="Calibri,Calibri_MSFontService,sans-serif" fill="#7F7F7F">27</text>
    </g>
    <g clip-path="url(#clip22)" transform="matrix(1, 0, 0, 1, -72.69696, -6.785049)">
      <text transform="matrix(1 0 0 1 3483.9 1303)" style="white-space: pre;" font-weight="400" font-size="41" font-family="Calibri,Calibri_MSFontService,sans-serif" fill="#7F7F7F">36</text>
    </g>
    <g clip-path="url(#clip23)" transform="matrix(1, 0, 0, 1, -72.69696, -6.785049)">
      <text transform="matrix(1 0 0 1 3625.29 1303)" style="white-space: pre;" font-weight="400" font-size="41" font-family="Calibri,Calibri_MSFontService,sans-serif" fill="#7F7F7F">45</text>
    </g>
    <g clip-path="url(#clip24)" transform="matrix(1, 0, 0, 1, -72.69696, -6.785049)">
      <text transform="matrix(1 0 0 1 3766.68 1303)" style="white-space: pre;" font-weight="400" font-size="41" font-family="Calibri,Calibri_MSFontService,sans-serif" fill="#7F7F7F">54</text>
    </g>
    <g clip-path="url(#clip25)">
      <text fill="#7F7F7F" font-family="Calibri,Calibri_MSFontService,sans-serif" font-weight="700" font-size="55" transform="matrix(6.12323e-17 -1 1 6.12323e-17 2814.6 1562)" style="white-space: pre;">Laufzeitverhältnis</text>
    </g>
    <g clip-path="url(#clip26)">
      <text fill="#7F7F7F" font-family="Calibri,Calibri_MSFontService,sans-serif" font-weight="700" font-size="55" transform="matrix(1 0 0 1 2955.41 1784)" style="white-space: pre;">Anzahl Argumente der Testinstanzen</text>
    </g>
    <g clip-path="url(#clip27)">
      <path d="M2835 891C2835 895.971 2830.97 900 2826 900 2821.03 900 2817 895.971 2817 891 2817 886.029 2821.03 882 2826 882 2830.97 882 2835 886.029 2835 891Z" fill="#BFBFBF"/>
    </g>
    <g clip-path="url(#clip28)">
      <text fill="#7F7F7F" font-family="Calibri,Calibri_MSFontService,sans-serif" font-weight="400" font-size="55" transform="matrix(1 0 0 1 2855.14 907)" style="white-space: pre;">0.1s &lt; </text>
    </g>
    <g clip-path="url(#clip29)">
      <text fill="#7F7F7F" font-family="Calibri,Calibri_MSFontService,sans-serif" font-weight="400" font-size="55" transform="matrix(1 0 0 1 2998.55 907)" style="white-space: pre;">Δ</text>
    </g>
    <g clip-path="url(#clip30)">
      <text fill="#7F7F7F" font-family="Calibri,Calibri_MSFontService,sans-serif" font-weight="400" font-size="55" transform="matrix(1 0 0 1 3029.61 907)" style="white-space: pre;">t ≤ 1s</text>
    </g>
    <g clip-path="url(#clip31)">
      <path d="M3219 891C3219 895.971 3214.97 900 3210 900 3205.03 900 3201 895.971 3201 891 3201 886.029 3205.03 882 3210 882 3214.97 882 3219 886.029 3219 891Z" fill="#1F4E79"/>
    </g>
    <g clip-path="url(#clip32)">
      <text fill="#7F7F7F" font-family="Calibri,Calibri_MSFontService,sans-serif" font-weight="400" font-size="55" transform="matrix(1 0 0 1 3239.33 907)" style="white-space: pre;">1s &lt; </text>
    </g>
    <g clip-path="url(#clip33)">
      <text fill="#7F7F7F" font-family="Calibri,Calibri_MSFontService,sans-serif" font-weight="400" font-size="55" transform="matrix(1 0 0 1 3340.99 907)" style="white-space: pre;">Δ</text>
    </g>
    <g clip-path="url(#clip34)">
      <text fill="#7F7F7F" font-family="Calibri,Calibri_MSFontService,sans-serif" font-weight="400" font-size="55" transform="matrix(1 0 0 1 3372.05 907)" style="white-space: pre;">t ≤ 60s</text>
    </g>
    <g clip-path="url(#clip35)">
      <path d="M3590 891C3590 895.971 3585.97 900 3581 900 3576.03 900 3572 895.971 3572 891 3572 886.029 3576.03 882 3581 882 3585.97 882 3590 886.029 3590 891Z" fill="#C00000"/>
    </g>
    <g clip-path="url(#clip36)">
      <text fill="#7F7F7F" font-family="Calibri,Calibri_MSFontService,sans-serif" font-weight="400" font-size="55" transform="matrix(1 0 0 1 3609.64 907)" style="white-space: pre;">60s &lt; </text>
    </g>
    <g clip-path="url(#clip37)">
      <text fill="#7F7F7F" font-family="Calibri,Calibri_MSFontService,sans-serif" font-weight="400" font-size="55" transform="matrix(1 0 0 1 3739.17 907)" style="white-space: pre;">Δ</text>
    </g>
    <g clip-path="url(#clip38)">
      <text fill="#7F7F7F" font-family="Calibri,Calibri_MSFontService,sans-serif" font-weight="400" font-size="55" transform="matrix(1 0 0 1 3770.22 907)" style="white-space: pre;">t</text>
    </g>
    <rect x="2705.5" y="817.5" width="1170" height="1039" stroke="#D9D9D9" stroke-width="3.4375" stroke-linejoin="round" stroke-miterlimit="10" fill="none"/>
  </g>
</svg>