<svg width="2341" height="1302" xmlns="http://www.w3.org/2000/svg" xmlns:xlink="http://www.w3.org/1999/xlink" overflow="hidden"><defs><clipPath id="clip0"><rect x="5568" y="353" width="2341" height="1302"/></clipPath><radialGradient cx="3.23919e+06" cy="1.79971e+06" r="3.70558e+06" gradientUnits="userSpaceOnUse" spreadMethod="pad" id="fill1" gradientTransform="matrix(0.000360892 0 0 0.000360892 5569 354)"><stop offset="0" stop-color="#FFFFFF"/><stop offset="0.43" stop-color="#FFFFFF"/><stop offset="1" stop-color="#F2F2F2"/></radialGradient><clipPath id="clip2"><rect x="5568" y="354" width="2339" height="1299"/></clipPath><clipPath id="clip3"><rect x="5568" y="354" width="2339" height="1299"/></clipPath><clipPath id="clip4"><rect x="5568" y="354" width="2339" height="1299"/></clipPath><clipPath id="clip5"><rect x="5568" y="354" width="2339" height="1299"/></clipPath><clipPath id="clip6"><rect x="5568" y="354" width="2339" height="1299"/></clipPath><clipPath id="clip7"><rect x="5568" y="354" width="2339" height="1299"/></clipPath><clipPath id="clip8"><rect x="5568" y="354" width="2339" height="1299"/></clipPath><clipPath id="clip9"><rect x="5568" y="354" width="2339" height="1299"/></clipPath><clipPath id="clip10"><rect x="5568" y="354" width="2339" height="1299"/></clipPath><clipPath id="clip11"><rect x="5568" y="354" width="2339" height="1299"/></clipPath><clipPath id="clip12"><rect x="5568" y="354" width="2339" height="1299"/></clipPath><clipPath id="clip13"><rect x="5568" y="354" width="2339" height="1299"/></clipPath><clipPath id="clip14"><rect x="5568" y="354" width="2339" height="1299"/></clipPath><clipPath id="clip15"><rect x="5568" y="354" width="2339" height="1299"/></clipPath><clipPath id="clip16"><rect x="5568" y="354" width="2339" height="1299"/></clipPath><clipPath id="clip17"><rect x="5568" y="354" width="2339" height="1299"/></clipPath><clipPath id="clip18"><rect x="5568" y="354" width="2339" height="1299"/></clipPath><clipPath id="clip19"><rect x="5568" y="354" width="2339" height="1299"/></clipPath><clipPath id="clip20"><rect x="5568" y="354" width="2339" height="1299"/></clipPath><clipPath id="clip21"><rect x="5568" y="354" width="2339" height="1299"/></clipPath></defs><g clip-path="url(#clip0)" transform="translate(-5568 -353)"><rect x="5569" y="354" width="2338" height="1299" fill="url(#fill1)"/><g clip-path="url(#clip2)"><path d="M5722.5 1596.5 7856.5 1596.5M5722.5 1512.55 7856.5 1512.55M5722.5 1427.55 7856.5 1427.55M5722.5 1342.54 7856.5 1342.54M5722.5 1257.54 7856.5 1257.54M5722.5 1173.54 7856.5 1173.54M5722.5 1088.54 7856.5 1088.54M5722.5 1003.53 7856.5 1003.53M5722.5 918.53 7856.5 918.53M5722.5 834.528 7856.5 834.528M5722.5 749.525 7856.5 749.525M5722.5 579.519 7856.5 579.519M5722.5 495.516 7856.5 495.516M5722.5 410.5 7856.5 410.5" stroke="#D9D9D9" stroke-width="3.4375" stroke-linejoin="round" stroke-miterlimit="10" fill="none"/></g><g clip-path="url(#clip3)"><path d="M5722.5 664.5 7856.5 664.5" stroke="#000000" stroke-width="11.4583" stroke-linejoin="round" stroke-miterlimit="10" fill="none" fill-rule="evenodd"/></g><g clip-path="url(#clip4)"><path d="M5803.75 866.062C5803.75 871.033 5799.72 875.062 5794.75 875.062 5789.78 875.062 5785.75 871.033 5785.75 866.062 5785.75 861.092 5789.78 857.062 5794.75 857.062 5799.72 857.062 5803.75 861.092 5803.75 866.062Z" fill="#BFBFBF"/><path d="M5834.75 902.062C5834.75 907.033 5830.72 911.062 5825.75 911.062 5820.78 911.062 5816.75 907.033 5816.75 902.062 5816.75 897.092 5820.78 893.062 5825.75 893.062 5830.72 893.062 5834.75 897.092 5834.75 902.062Z" fill="#BFBFBF"/><path d="M5889.75 543.062C5889.75 548.033 5885.72 552.062 5880.75 552.062 5875.78 552.062 5871.75 548.033 5871.75 543.062 5871.75 538.092 5875.78 534.062 5880.75 534.062 5885.72 534.062 5889.75 538.092 5889.75 543.062Z" fill="#BFBFBF"/><path d="M5950.75 787.062C5950.75 792.033 5946.72 796.062 5941.75 796.062 5936.78 796.062 5932.75 792.033 5932.75 787.062 5932.75 782.092 5936.78 778.062 5941.75 778.062 5946.72 778.062 5950.75 782.092 5950.75 787.062Z" fill="#BFBFBF"/><path d="M5956.75 824.062C5956.75 829.033 5952.72 833.062 5947.75 833.062 5942.78 833.062 5938.75 829.033 5938.75 824.062 5938.75 819.092 5942.78 815.062 5947.75 815.062 5952.72 815.062 5956.75 819.092 5956.75 824.062Z" fill="#BFBFBF"/><path d="M5980.75 556.062C5980.75 561.033 5976.72 565.062 5971.75 565.062 5966.78 565.062 5962.75 561.033 5962.75 556.062 5962.75 551.092 5966.78 547.062 5971.75 547.062 5976.72 547.062 5980.75 551.092 5980.75 556.062Z" fill="#BFBFBF"/><path d="M5986.75 550.062C5986.75 555.033 5982.72 559.062 5977.75 559.062 5972.78 559.062 5968.75 555.033 5968.75 550.062 5968.75 545.092 5972.78 541.062 5977.75 541.062 5982.72 541.062 5986.75 545.092 5986.75 550.062Z" fill="#BFBFBF"/><path d="M5992.75 547.062C5992.75 552.033 5988.72 556.062 5983.75 556.062 5978.78 556.062 5974.75 552.033 5974.75 547.062 5974.75 542.092 5978.78 538.062 5983.75 538.062 5988.72 538.062 5992.75 542.092 5992.75 547.062Z" fill="#BFBFBF"/><path d="M6023.75 568.062C6023.75 573.033 6019.72 577.062 6014.75 577.062 6009.78 577.062 6005.75 573.033 6005.75 568.062 6005.75 563.092 6009.78 559.062 6014.75 559.062 6019.72 559.062 6023.75 563.092 6023.75 568.062Z" fill="#BFBFBF"/><path d="M6102.75 901.062C6102.75 906.033 6098.72 910.062 6093.75 910.062 6088.78 910.062 6084.75 906.033 6084.75 901.062 6084.75 896.092 6088.78 892.062 6093.75 892.062 6098.72 892.062 6102.75 896.092 6102.75 901.062Z" fill="#BFBFBF"/><path d="M6108.75 535.062C6108.75 540.033 6104.72 544.062 6099.75 544.062 6094.78 544.062 6090.75 540.033 6090.75 535.062 6090.75 530.092 6094.78 526.062 6099.75 526.062 6104.72 526.062 6108.75 530.092 6108.75 535.062Z" fill="#BFBFBF"/><path d="M6133.75 575.062C6133.75 580.033 6129.72 584.062 6124.75 584.062 6119.78 584.062 6115.75 580.033 6115.75 575.062 6115.75 570.092 6119.78 566.062 6124.75 566.062 6129.72 566.062 6133.75 570.092 6133.75 575.062Z" fill="#BFBFBF"/><path d="M6310.75 537.062C6310.75 542.033 6306.72 546.062 6301.75 546.062 6296.78 546.062 6292.75 542.033 6292.75 537.062 6292.75 532.092 6296.78 528.062 6301.75 528.062 6306.72 528.062 6310.75 532.092 6310.75 537.062Z" fill="#BFBFBF"/><path d="M6316.75 546.062C6316.75 551.033 6312.72 555.062 6307.75 555.062 6302.78 555.062 6298.75 551.033 6298.75 546.062 6298.75 541.092 6302.78 537.062 6307.75 537.062 6312.72 537.062 6316.75 541.092 6316.75 546.062Z" fill="#BFBFBF"/><path d="M6322.75 550.062C6322.75 555.033 6318.72 559.062 6313.75 559.062 6308.78 559.062 6304.75 555.033 6304.75 550.062 6304.75 545.092 6308.78 541.062 6313.75 541.062 6318.72 541.062 6322.75 545.092 6322.75 550.062Z" fill="#BFBFBF"/><path d="M6334.75 521.062C6334.75 526.033 6330.72 530.062 6325.75 530.062 6320.78 530.062 6316.75 526.033 6316.75 521.062 6316.75 516.092 6320.78 512.062 6325.75 512.062 6330.72 512.062 6334.75 516.092 6334.75 521.062Z" fill="#BFBFBF"/><path d="M6364.75 564.062C6364.75 569.033 6360.72 573.062 6355.75 573.062 6350.78 573.062 6346.75 569.033 6346.75 564.062 6346.75 559.092 6350.78 555.062 6355.75 555.062 6360.72 555.062 6364.75 559.092 6364.75 564.062Z" fill="#BFBFBF"/><path d="M6389.75 561.062C6389.75 566.033 6385.72 570.062 6380.75 570.062 6375.78 570.062 6371.75 566.033 6371.75 561.062 6371.75 556.092 6375.78 552.062 6380.75 552.062 6385.72 552.062 6389.75 556.092 6389.75 561.062Z" fill="#BFBFBF"/><path d="M6395.75 779.062C6395.75 784.033 6391.72 788.062 6386.75 788.062 6381.78 788.062 6377.75 784.033 6377.75 779.062 6377.75 774.092 6381.78 770.062 6386.75 770.062 6391.72 770.062 6395.75 774.092 6395.75 779.062Z" fill="#BFBFBF"/><path d="M6401.75 766.062C6401.75 771.033 6397.72 775.062 6392.75 775.062 6387.78 775.062 6383.75 771.033 6383.75 766.062 6383.75 761.092 6387.78 757.062 6392.75 757.062 6397.72 757.062 6401.75 761.092 6401.75 766.062Z" fill="#BFBFBF"/><path d="M6407.75 575.062C6407.75 580.033 6403.72 584.062 6398.75 584.062 6393.78 584.062 6389.75 580.033 6389.75 575.062 6389.75 570.092 6393.78 566.062 6398.75 566.062 6403.72 566.062 6407.75 570.092 6407.75 575.062Z" fill="#BFBFBF"/><path d="M6413.75 781.062C6413.75 786.033 6409.72 790.062 6404.75 790.062 6399.78 790.062 6395.75 786.033 6395.75 781.062 6395.75 776.092 6399.78 772.062 6404.75 772.062 6409.72 772.062 6413.75 776.092 6413.75 781.062Z" fill="#BFBFBF"/><path d="M6419.75 562.062C6419.75 567.033 6415.72 571.062 6410.75 571.062 6405.78 571.062 6401.75 567.033 6401.75 562.062 6401.75 557.092 6405.78 553.062 6410.75 553.062 6415.72 553.062 6419.75 557.092 6419.75 562.062Z" fill="#BFBFBF"/><path d="M6432.75 568.062C6432.75 573.033 6428.72 577.062 6423.75 577.062 6418.78 577.062 6414.75 573.033 6414.75 568.062 6414.75 563.092 6418.78 559.062 6423.75 559.062 6428.72 559.062 6432.75 563.092 6432.75 568.062Z" fill="#BFBFBF"/><path d="M6486.75 830.062C6486.75 835.033 6482.72 839.062 6477.75 839.062 6472.78 839.062 6468.75 835.033 6468.75 830.062 6468.75 825.092 6472.78 821.062 6477.75 821.062 6482.72 821.062 6486.75 825.092 6486.75 830.062Z" fill="#BFBFBF"/><path d="M6493.75 822.062C6493.75 827.033 6489.72 831.062 6484.75 831.062 6479.78 831.062 6475.75 827.033 6475.75 822.062 6475.75 817.092 6479.78 813.062 6484.75 813.062 6489.72 813.062 6493.75 817.092 6493.75 822.062Z" fill="#BFBFBF"/><path d="M6529.75 556.062C6529.75 561.033 6525.72 565.062 6520.75 565.062 6515.78 565.062 6511.75 561.033 6511.75 556.062 6511.75 551.092 6515.78 547.062 6520.75 547.062 6525.72 547.062 6529.75 551.092 6529.75 556.062Z" fill="#BFBFBF"/><path d="M6541.75 542.062C6541.75 547.033 6537.72 551.062 6532.75 551.062 6527.78 551.062 6523.75 547.033 6523.75 542.062 6523.75 537.092 6527.78 533.062 6532.75 533.062 6537.72 533.062 6541.75 537.092 6541.75 542.062Z" fill="#BFBFBF"/><path d="M6547.75 536.062C6547.75 541.033 6543.72 545.062 6538.75 545.062 6533.78 545.062 6529.75 541.033 6529.75 536.062 6529.75 531.092 6533.78 527.062 6538.75 527.062 6543.72 527.062 6547.75 531.092 6547.75 536.062Z" fill="#BFBFBF"/><path d="M6566.75 954.062C6566.75 959.033 6562.72 963.062 6557.75 963.062 6552.78 963.062 6548.75 959.033 6548.75 954.062 6548.75 949.092 6552.78 945.062 6557.75 945.062 6562.72 945.062 6566.75 949.092 6566.75 954.062Z" fill="#BFBFBF"/><path d="M6572.75 560.062C6572.75 565.033 6568.72 569.062 6563.75 569.062 6558.78 569.062 6554.75 565.033 6554.75 560.062 6554.75 555.092 6558.78 551.062 6563.75 551.062 6568.72 551.062 6572.75 555.092 6572.75 560.062Z" fill="#BFBFBF"/><path d="M6627.75 900.062C6627.75 905.033 6623.72 909.062 6618.75 909.062 6613.78 909.062 6609.75 905.033 6609.75 900.062 6609.75 895.092 6613.78 891.062 6618.75 891.062 6623.72 891.062 6627.75 895.092 6627.75 900.062Z" fill="#BFBFBF"/><path d="M6651.75 928.062C6651.75 933.033 6647.72 937.062 6642.75 937.062 6637.78 937.062 6633.75 933.033 6633.75 928.062 6633.75 923.092 6637.78 919.062 6642.75 919.062 6647.72 919.062 6651.75 923.092 6651.75 928.062Z" fill="#BFBFBF"/><path d="M6694.75 563.062C6694.75 568.033 6690.72 572.062 6685.75 572.062 6680.78 572.062 6676.75 568.033 6676.75 563.062 6676.75 558.092 6680.78 554.062 6685.75 554.062 6690.72 554.062 6694.75 558.092 6694.75 563.062Z" fill="#BFBFBF"/><path d="M7566.75 884.062C7566.75 889.033 7562.72 893.062 7557.75 893.062 7552.78 893.062 7548.75 889.033 7548.75 884.062 7548.75 879.092 7552.78 875.062 7557.75 875.062 7562.72 875.062 7566.75 879.092 7566.75 884.062Z" fill="#BFBFBF"/><path d="M7584.75 552.062C7584.75 557.033 7580.72 561.062 7575.75 561.062 7570.78 561.062 7566.75 557.033 7566.75 552.062 7566.75 547.092 7570.78 543.062 7575.75 543.062 7580.72 543.062 7584.75 547.092 7584.75 552.062Z" fill="#BFBFBF"/><path d="M7590.75 545.062C7590.75 550.033 7586.72 554.062 7581.75 554.062 7576.78 554.062 7572.75 550.033 7572.75 545.062 7572.75 540.092 7576.78 536.062 7581.75 536.062 7586.72 536.062 7590.75 540.092 7590.75 545.062Z" fill="#BFBFBF"/><path d="M7597.75 545.062C7597.75 550.033 7593.72 554.062 7588.75 554.062 7583.78 554.062 7579.75 550.033 7579.75 545.062 7579.75 540.092 7583.78 536.062 7588.75 536.062 7593.72 536.062 7597.75 540.092 7597.75 545.062Z" fill="#BFBFBF"/><path d="M7688.75 541.062C7688.75 546.033 7684.72 550.062 7679.75 550.062 7674.78 550.062 7670.75 546.033 7670.75 541.062 7670.75 536.092 7674.78 532.062 7679.75 532.062 7684.72 532.062 7688.75 536.092 7688.75 541.062Z" fill="#BFBFBF"/><path d="M7719.75 576.062C7719.75 581.033 7715.72 585.062 7710.75 585.062 7705.78 585.062 7701.75 581.033 7701.75 576.062 7701.75 571.092 7705.78 567.062 7710.75 567.062 7715.72 567.062 7719.75 571.092 7719.75 576.062Z" fill="#BFBFBF"/></g><g clip-path="url(#clip5)"><path d="M5785.75 807.062C5785.75 812.033 5781.72 816.062 5776.75 816.062 5771.78 816.062 5767.75 812.033 5767.75 807.062 5767.75 802.092 5771.78 798.062 5776.75 798.062 5781.72 798.062 5785.75 802.092 5785.75 807.062Z" fill="#1F4E79"/><path d="M5809.75 926.062C5809.75 931.033 5805.72 935.062 5800.75 935.062 5795.78 935.062 5791.75 931.033 5791.75 926.062 5791.75 921.092 5795.78 917.062 5800.75 917.062 5805.72 917.062 5809.75 921.092 5809.75 926.062Z" fill="#1F4E79"/><path d="M5846.75 803.062C5846.75 808.033 5842.72 812.062 5837.75 812.062 5832.78 812.062 5828.75 808.033 5828.75 803.062 5828.75 798.092 5832.78 794.062 5837.75 794.062 5842.72 794.062 5846.75 798.092 5846.75 803.062Z" fill="#1F4E79"/><path d="M5919.75 1139.06C5919.75 1144.03 5915.72 1148.06 5910.75 1148.06 5905.78 1148.06 5901.75 1144.03 5901.75 1139.06 5901.75 1134.09 5905.78 1130.06 5910.75 1130.06 5915.72 1130.06 5919.75 1134.09 5919.75 1139.06Z" fill="#1F4E79"/><path d="M5925.75 1072.06C5925.75 1077.03 5921.72 1081.06 5916.75 1081.06 5911.78 1081.06 5907.75 1077.03 5907.75 1072.06 5907.75 1067.09 5911.78 1063.06 5916.75 1063.06 5921.72 1063.06 5925.75 1067.09 5925.75 1072.06Z" fill="#1F4E79"/><path d="M5931.75 1082.06C5931.75 1087.03 5927.72 1091.06 5922.75 1091.06 5917.78 1091.06 5913.75 1087.03 5913.75 1082.06 5913.75 1077.09 5917.78 1073.06 5922.75 1073.06 5927.72 1073.06 5931.75 1077.09 5931.75 1082.06Z" fill="#1F4E79"/><path d="M5938.75 1072.06C5938.75 1077.03 5934.72 1081.06 5929.75 1081.06 5924.78 1081.06 5920.75 1077.03 5920.75 1072.06 5920.75 1067.09 5924.78 1063.06 5929.75 1063.06 5934.72 1063.06 5938.75 1067.09 5938.75 1072.06Z" fill="#1F4E79"/><path d="M5944.75 1086.06C5944.75 1091.03 5940.72 1095.06 5935.75 1095.06 5930.78 1095.06 5926.75 1091.03 5926.75 1086.06 5926.75 1081.09 5930.78 1077.06 5935.75 1077.06 5940.72 1077.06 5944.75 1081.09 5944.75 1086.06Z" fill="#1F4E79"/><path d="M5962.75 899.062C5962.75 904.033 5958.72 908.062 5953.75 908.062 5948.78 908.062 5944.75 904.033 5944.75 899.062 5944.75 894.092 5948.78 890.062 5953.75 890.062 5958.72 890.062 5962.75 894.092 5962.75 899.062Z" fill="#1F4E79"/><path d="M5999.75 548.062C5999.75 553.033 5995.72 557.062 5990.75 557.062 5985.78 557.062 5981.75 553.033 5981.75 548.062 5981.75 543.092 5985.78 539.062 5990.75 539.062 5995.72 539.062 5999.75 543.092 5999.75 548.062Z" fill="#1F4E79"/><path d="M6005.75 545.062C6005.75 550.033 6001.72 554.062 5996.75 554.062 5991.78 554.062 5987.75 550.033 5987.75 545.062 5987.75 540.092 5991.78 536.062 5996.75 536.062 6001.72 536.062 6005.75 540.092 6005.75 545.062Z" fill="#1F4E79"/><path d="M6011.75 554.062C6011.75 559.033 6007.72 563.062 6002.75 563.062 5997.78 563.062 5993.75 559.033 5993.75 554.062 5993.75 549.092 5997.78 545.062 6002.75 545.062 6007.72 545.062 6011.75 549.092 6011.75 554.062Z" fill="#1F4E79"/><path d="M6017.75 556.062C6017.75 561.033 6013.72 565.062 6008.75 565.062 6003.78 565.062 5999.75 561.033 5999.75 556.062 5999.75 551.092 6003.78 547.062 6008.75 547.062 6013.72 547.062 6017.75 551.092 6017.75 556.062Z" fill="#1F4E79"/><path d="M6029.75 1134.06C6029.75 1139.03 6025.72 1143.06 6020.75 1143.06 6015.78 1143.06 6011.75 1139.03 6011.75 1134.06 6011.75 1129.09 6015.78 1125.06 6020.75 1125.06 6025.72 1125.06 6029.75 1129.09 6029.75 1134.06Z" fill="#1F4E79"/><path d="M6035.75 1140.06C6035.75 1145.03 6031.72 1149.06 6026.75 1149.06 6021.78 1149.06 6017.75 1145.03 6017.75 1140.06 6017.75 1135.09 6021.78 1131.06 6026.75 1131.06 6031.72 1131.06 6035.75 1135.09 6035.75 1140.06Z" fill="#1F4E79"/><path d="M6041.75 1333.06C6041.75 1338.03 6037.72 1342.06 6032.75 1342.06 6027.78 1342.06 6023.75 1338.03 6023.75 1333.06 6023.75 1328.09 6027.78 1324.06 6032.75 1324.06 6037.72 1324.06 6041.75 1328.09 6041.75 1333.06Z" fill="#1F4E79"/><path d="M6047.75 1185.06C6047.75 1190.03 6043.72 1194.06 6038.75 1194.06 6033.78 1194.06 6029.75 1190.03 6029.75 1185.06 6029.75 1180.09 6033.78 1176.06 6038.75 1176.06 6043.72 1176.06 6047.75 1180.09 6047.75 1185.06Z" fill="#1F4E79"/><path d="M6053.75 1171.06C6053.75 1176.03 6049.72 1180.06 6044.75 1180.06 6039.78 1180.06 6035.75 1176.03 6035.75 1171.06 6035.75 1166.09 6039.78 1162.06 6044.75 1162.06 6049.72 1162.06 6053.75 1166.09 6053.75 1171.06Z" fill="#1F4E79"/><path d="M6060.75 1088.06C6060.75 1093.03 6056.72 1097.06 6051.75 1097.06 6046.78 1097.06 6042.75 1093.03 6042.75 1088.06 6042.75 1083.09 6046.78 1079.06 6051.75 1079.06 6056.72 1079.06 6060.75 1083.09 6060.75 1088.06Z" fill="#1F4E79"/><path d="M6066.75 1179.06C6066.75 1184.03 6062.72 1188.06 6057.75 1188.06 6052.78 1188.06 6048.75 1184.03 6048.75 1179.06 6048.75 1174.09 6052.78 1170.06 6057.75 1170.06 6062.72 1170.06 6066.75 1174.09 6066.75 1179.06Z" fill="#1F4E79"/><path d="M6072.75 1161.06C6072.75 1166.03 6068.72 1170.06 6063.75 1170.06 6058.78 1170.06 6054.75 1166.03 6054.75 1161.06 6054.75 1156.09 6058.78 1152.06 6063.75 1152.06 6068.72 1152.06 6072.75 1156.09 6072.75 1161.06Z" fill="#1F4E79"/><path d="M6078.75 1157.06C6078.75 1162.03 6074.72 1166.06 6069.75 1166.06 6064.78 1166.06 6060.75 1162.03 6060.75 1157.06 6060.75 1152.09 6064.78 1148.06 6069.75 1148.06 6074.72 1148.06 6078.75 1152.09 6078.75 1157.06Z" fill="#1F4E79"/><path d="M6084.75 1178.06C6084.75 1183.03 6080.72 1187.06 6075.75 1187.06 6070.78 1187.06 6066.75 1183.03 6066.75 1178.06 6066.75 1173.09 6070.78 1169.06 6075.75 1169.06 6080.72 1169.06 6084.75 1173.09 6084.75 1178.06Z" fill="#1F4E79"/><path d="M6090.75 1194.06C6090.75 1199.03 6086.72 1203.06 6081.75 1203.06 6076.78 1203.06 6072.75 1199.03 6072.75 1194.06 6072.75 1189.09 6076.78 1185.06 6081.75 1185.06 6086.72 1185.06 6090.75 1189.09 6090.75 1194.06Z" fill="#1F4E79"/><path d="M6096.75 1197.06C6096.75 1202.03 6092.72 1206.06 6087.75 1206.06 6082.78 1206.06 6078.75 1202.03 6078.75 1197.06 6078.75 1192.09 6082.78 1188.06 6087.75 1188.06 6092.72 1188.06 6096.75 1192.09 6096.75 1197.06Z" fill="#1F4E79"/><path d="M6114.75 1333.06C6114.75 1338.03 6110.72 1342.06 6105.75 1342.06 6100.78 1342.06 6096.75 1338.03 6096.75 1333.06 6096.75 1328.09 6100.78 1324.06 6105.75 1324.06 6110.72 1324.06 6114.75 1328.09 6114.75 1333.06Z" fill="#1F4E79"/><path d="M6121.75 1324.06C6121.75 1329.03 6117.72 1333.06 6112.75 1333.06 6107.78 1333.06 6103.75 1329.03 6103.75 1324.06 6103.75 1319.09 6107.78 1315.06 6112.75 1315.06 6117.72 1315.06 6121.75 1319.09 6121.75 1324.06Z" fill="#1F4E79"/><path d="M6127.75 1366.06C6127.75 1371.03 6123.72 1375.06 6118.75 1375.06 6113.78 1375.06 6109.75 1371.03 6109.75 1366.06 6109.75 1361.09 6113.78 1357.06 6118.75 1357.06 6123.72 1357.06 6127.75 1361.09 6127.75 1366.06Z" fill="#1F4E79"/><path d="M6151.75 1040.06C6151.75 1045.03 6147.72 1049.06 6142.75 1049.06 6137.78 1049.06 6133.75 1045.03 6133.75 1040.06 6133.75 1035.09 6137.78 1031.06 6142.75 1031.06 6147.72 1031.06 6151.75 1035.09 6151.75 1040.06Z" fill="#1F4E79"/><path d="M6200.75 898.062C6200.75 903.033 6196.72 907.062 6191.75 907.062 6186.78 907.062 6182.75 903.033 6182.75 898.062 6182.75 893.092 6186.78 889.062 6191.75 889.062 6196.72 889.062 6200.75 893.092 6200.75 898.062Z" fill="#1F4E79"/><path d="M6236.75 838.062C6236.75 843.033 6232.72 847.062 6227.75 847.062 6222.78 847.062 6218.75 843.033 6218.75 838.062 6218.75 833.092 6222.78 829.062 6227.75 829.062 6232.72 829.062 6236.75 833.092 6236.75 838.062Z" fill="#1F4E79"/><path d="M6267.75 1323.06C6267.75 1328.03 6263.72 1332.06 6258.75 1332.06 6253.78 1332.06 6249.75 1328.03 6249.75 1323.06 6249.75 1318.09 6253.78 1314.06 6258.75 1314.06 6263.72 1314.06 6267.75 1318.09 6267.75 1323.06Z" fill="#1F4E79"/><path d="M6273.75 1320.06C6273.75 1325.03 6269.72 1329.06 6264.75 1329.06 6259.78 1329.06 6255.75 1325.03 6255.75 1320.06 6255.75 1315.09 6259.78 1311.06 6264.75 1311.06 6269.72 1311.06 6273.75 1315.09 6273.75 1320.06Z" fill="#1F4E79"/><path d="M6279.75 1311.06C6279.75 1316.03 6275.72 1320.06 6270.75 1320.06 6265.78 1320.06 6261.75 1316.03 6261.75 1311.06 6261.75 1306.09 6265.78 1302.06 6270.75 1302.06 6275.72 1302.06 6279.75 1306.09 6279.75 1311.06Z" fill="#1F4E79"/><path d="M6285.75 1197.06C6285.75 1202.03 6281.72 1206.06 6276.75 1206.06 6271.78 1206.06 6267.75 1202.03 6267.75 1197.06 6267.75 1192.09 6271.78 1188.06 6276.75 1188.06 6281.72 1188.06 6285.75 1192.09 6285.75 1197.06Z" fill="#1F4E79"/><path d="M6291.75 866.062C6291.75 871.033 6287.72 875.062 6282.75 875.062 6277.78 875.062 6273.75 871.033 6273.75 866.062 6273.75 861.092 6277.78 857.062 6282.75 857.062 6287.72 857.062 6291.75 861.092 6291.75 866.062Z" fill="#1F4E79"/><path d="M6303.75 501.062C6303.75 506.033 6299.72 510.062 6294.75 510.062 6289.78 510.062 6285.75 506.033 6285.75 501.062 6285.75 496.092 6289.78 492.062 6294.75 492.062 6299.72 492.062 6303.75 496.092 6303.75 501.062Z" fill="#1F4E79"/><path d="M6340.75 1316.06C6340.75 1321.03 6336.72 1325.06 6331.75 1325.06 6326.78 1325.06 6322.75 1321.03 6322.75 1316.06 6322.75 1311.09 6326.78 1307.06 6331.75 1307.06 6336.72 1307.06 6340.75 1311.09 6340.75 1316.06Z" fill="#1F4E79"/><path d="M6346.75 511.062C6346.75 516.033 6342.72 520.062 6337.75 520.062 6332.78 520.062 6328.75 516.033 6328.75 511.062 6328.75 506.092 6332.78 502.062 6337.75 502.062 6342.72 502.062 6346.75 506.092 6346.75 511.062Z" fill="#1F4E79"/><path d="M6352.75 543.062C6352.75 548.033 6348.72 552.062 6343.75 552.062 6338.78 552.062 6334.75 548.033 6334.75 543.062 6334.75 538.092 6338.78 534.062 6343.75 534.062 6348.72 534.062 6352.75 538.092 6352.75 543.062Z" fill="#1F4E79"/><path d="M6358.75 514.062C6358.75 519.033 6354.72 523.062 6349.75 523.062 6344.78 523.062 6340.75 519.033 6340.75 514.062 6340.75 509.092 6344.78 505.062 6349.75 505.062 6354.72 505.062 6358.75 509.092 6358.75 514.062Z" fill="#1F4E79"/><path d="M6371.75 541.062C6371.75 546.033 6367.72 550.062 6362.75 550.062 6357.78 550.062 6353.75 546.033 6353.75 541.062 6353.75 536.092 6357.78 532.062 6362.75 532.062 6367.72 532.062 6371.75 536.092 6371.75 541.062Z" fill="#1F4E79"/><path d="M6377.75 564.062C6377.75 569.033 6373.72 573.062 6368.75 573.062 6363.78 573.062 6359.75 569.033 6359.75 564.062 6359.75 559.092 6363.78 555.062 6368.75 555.062 6373.72 555.062 6377.75 559.092 6377.75 564.062Z" fill="#1F4E79"/><path d="M6383.75 525.062C6383.75 530.033 6379.72 534.062 6374.75 534.062 6369.78 534.062 6365.75 530.033 6365.75 525.062 6365.75 520.092 6369.78 516.062 6374.75 516.062 6379.72 516.062 6383.75 520.092 6383.75 525.062Z" fill="#1F4E79"/><path d="M6425.75 553.062C6425.75 558.033 6421.72 562.062 6416.75 562.062 6411.78 562.062 6407.75 558.033 6407.75 553.062 6407.75 548.092 6411.78 544.062 6416.75 544.062 6421.72 544.062 6425.75 548.092 6425.75 553.062Z" fill="#1F4E79"/><path d="M6438.75 555.062C6438.75 560.033 6434.72 564.062 6429.75 564.062 6424.78 564.062 6420.75 560.033 6420.75 555.062 6420.75 550.092 6424.78 546.062 6429.75 546.062 6434.72 546.062 6438.75 550.092 6438.75 555.062Z" fill="#1F4E79"/><path d="M6511.75 911.062C6511.75 916.033 6507.72 920.062 6502.75 920.062 6497.78 920.062 6493.75 916.033 6493.75 911.062 6493.75 906.092 6497.78 902.062 6502.75 902.062 6507.72 902.062 6511.75 906.092 6511.75 911.062Z" fill="#1F4E79"/><path d="M6578.75 1141.06C6578.75 1146.03 6574.72 1150.06 6569.75 1150.06 6564.78 1150.06 6560.75 1146.03 6560.75 1141.06 6560.75 1136.09 6564.78 1132.06 6569.75 1132.06 6574.72 1132.06 6578.75 1136.09 6578.75 1141.06Z" fill="#1F4E79"/><path d="M6584.75 1359.06C6584.75 1364.03 6580.72 1368.06 6575.75 1368.06 6570.78 1368.06 6566.75 1364.03 6566.75 1359.06 6566.75 1354.09 6570.78 1350.06 6575.75 1350.06 6580.72 1350.06 6584.75 1354.09 6584.75 1359.06Z" fill="#1F4E79"/><path d="M6590.75 1151.06C6590.75 1156.03 6586.72 1160.06 6581.75 1160.06 6576.78 1160.06 6572.75 1156.03 6572.75 1151.06 6572.75 1146.09 6576.78 1142.06 6581.75 1142.06 6586.72 1142.06 6590.75 1146.09 6590.75 1151.06Z" fill="#1F4E79"/><path d="M6596.75 1186.06C6596.75 1191.03 6592.72 1195.06 6587.75 1195.06 6582.78 1195.06 6578.75 1191.03 6578.75 1186.06 6578.75 1181.09 6582.78 1177.06 6587.75 1177.06 6592.72 1177.06 6596.75 1181.09 6596.75 1186.06Z" fill="#1F4E79"/><path d="M6602.75 1291.06C6602.75 1296.03 6598.72 1300.06 6593.75 1300.06 6588.78 1300.06 6584.75 1296.03 6584.75 1291.06 6584.75 1286.09 6588.78 1282.06 6593.75 1282.06 6598.72 1282.06 6602.75 1286.09 6602.75 1291.06Z" fill="#1F4E79"/><path d="M6608.75 534.062C6608.75 539.033 6604.72 543.062 6599.75 543.062 6594.78 543.062 6590.75 539.033 6590.75 534.062 6590.75 529.092 6594.78 525.062 6599.75 525.062 6604.72 525.062 6608.75 529.092 6608.75 534.062Z" fill="#1F4E79"/><path d="M6615.75 1322.06C6615.75 1327.03 6611.72 1331.06 6606.75 1331.06 6601.78 1331.06 6597.75 1327.03 6597.75 1322.06 6597.75 1317.09 6601.78 1313.06 6606.75 1313.06 6611.72 1313.06 6615.75 1317.09 6615.75 1322.06Z" fill="#1F4E79"/><path d="M6621.75 1021.06C6621.75 1026.03 6617.72 1030.06 6612.75 1030.06 6607.78 1030.06 6603.75 1026.03 6603.75 1021.06 6603.75 1016.09 6607.78 1012.06 6612.75 1012.06 6617.72 1012.06 6621.75 1016.09 6621.75 1021.06Z" fill="#1F4E79"/><path d="M6633.75 1022.06C6633.75 1027.03 6629.72 1031.06 6624.75 1031.06 6619.78 1031.06 6615.75 1027.03 6615.75 1022.06 6615.75 1017.09 6619.78 1013.06 6624.75 1013.06 6629.72 1013.06 6633.75 1017.09 6633.75 1022.06Z" fill="#1F4E79"/><path d="M6639.75 1007.06C6639.75 1012.03 6635.72 1016.06 6630.75 1016.06 6625.78 1016.06 6621.75 1012.03 6621.75 1007.06 6621.75 1002.09 6625.78 998.062 6630.75 998.062 6635.72 998.062 6639.75 1002.09 6639.75 1007.06Z" fill="#1F4E79"/><path d="M6645.75 977.062C6645.75 982.033 6641.72 986.062 6636.75 986.062 6631.78 986.062 6627.75 982.033 6627.75 977.062 6627.75 972.092 6631.78 968.062 6636.75 968.062 6641.72 968.062 6645.75 972.092 6645.75 977.062Z" fill="#1F4E79"/><path d="M6657.75 927.062C6657.75 932.033 6653.72 936.062 6648.75 936.062 6643.78 936.062 6639.75 932.033 6639.75 927.062 6639.75 922.092 6643.78 918.062 6648.75 918.062 6653.72 918.062 6657.75 922.092 6657.75 927.062Z" fill="#1F4E79"/><path d="M6682.75 548.062C6682.75 553.033 6678.72 557.062 6673.75 557.062 6668.78 557.062 6664.75 553.033 6664.75 548.062 6664.75 543.092 6668.78 539.062 6673.75 539.062 6678.72 539.062 6682.75 543.092 6682.75 548.062Z" fill="#1F4E79"/><path d="M6700.75 558.062C6700.75 563.033 6696.72 567.062 6691.75 567.062 6686.78 567.062 6682.75 563.033 6682.75 558.062 6682.75 553.092 6686.78 549.062 6691.75 549.062 6696.72 549.062 6700.75 553.092 6700.75 558.062Z" fill="#1F4E79"/><path d="M6718.75 564.062C6718.75 569.033 6714.72 573.062 6709.75 573.062 6704.78 573.062 6700.75 569.033 6700.75 564.062 6700.75 559.092 6704.78 555.062 6709.75 555.062 6714.72 555.062 6718.75 559.092 6718.75 564.062Z" fill="#1F4E79"/><path d="M7432.75 822.062C7432.75 827.033 7428.72 831.062 7423.75 831.062 7418.78 831.062 7414.75 827.033 7414.75 822.062 7414.75 817.092 7418.78 813.062 7423.75 813.062 7428.72 813.062 7432.75 817.092 7432.75 822.062Z" fill="#1F4E79"/><path d="M7456.75 827.062C7456.75 832.033 7452.72 836.062 7447.75 836.062 7442.78 836.062 7438.75 832.033 7438.75 827.062 7438.75 822.092 7442.78 818.062 7447.75 818.062 7452.72 818.062 7456.75 822.092 7456.75 827.062Z" fill="#1F4E79"/><path d="M7462.75 827.062C7462.75 832.033 7458.72 836.062 7453.75 836.062 7448.78 836.062 7444.75 832.033 7444.75 827.062 7444.75 822.092 7448.78 818.062 7453.75 818.062 7458.72 818.062 7462.75 822.092 7462.75 827.062Z" fill="#1F4E79"/><path d="M7468.75 808.062C7468.75 813.033 7464.72 817.062 7459.75 817.062 7454.78 817.062 7450.75 813.033 7450.75 808.062 7450.75 803.092 7454.78 799.062 7459.75 799.062 7464.72 799.062 7468.75 803.092 7468.75 808.062Z" fill="#1F4E79"/><path d="M7536.75 1038.06C7536.75 1043.03 7532.72 1047.06 7527.75 1047.06 7522.78 1047.06 7518.75 1043.03 7518.75 1038.06 7518.75 1033.09 7522.78 1029.06 7527.75 1029.06 7532.72 1029.06 7536.75 1033.09 7536.75 1038.06Z" fill="#1F4E79"/><path d="M7542.75 1120.06C7542.75 1125.03 7538.72 1129.06 7533.75 1129.06 7528.78 1129.06 7524.75 1125.03 7524.75 1120.06 7524.75 1115.09 7528.78 1111.06 7533.75 1111.06 7538.72 1111.06 7542.75 1115.09 7542.75 1120.06Z" fill="#1F4E79"/><path d="M7548.75 1082.06C7548.75 1087.03 7544.72 1091.06 7539.75 1091.06 7534.78 1091.06 7530.75 1087.03 7530.75 1082.06 7530.75 1077.09 7534.78 1073.06 7539.75 1073.06 7544.72 1073.06 7548.75 1077.09 7548.75 1082.06Z" fill="#1F4E79"/><path d="M7554.75 1040.06C7554.75 1045.03 7550.72 1049.06 7545.75 1049.06 7540.78 1049.06 7536.75 1045.03 7536.75 1040.06 7536.75 1035.09 7540.78 1031.06 7545.75 1031.06 7550.72 1031.06 7554.75 1035.09 7554.75 1040.06Z" fill="#1F4E79"/><path d="M7560.75 1089.06C7560.75 1094.03 7556.72 1098.06 7551.75 1098.06 7546.78 1098.06 7542.75 1094.03 7542.75 1089.06 7542.75 1084.09 7546.78 1080.06 7551.75 1080.06 7556.72 1080.06 7560.75 1084.09 7560.75 1089.06Z" fill="#1F4E79"/><path d="M7603.75 535.062C7603.75 540.033 7599.72 544.062 7594.75 544.062 7589.78 544.062 7585.75 540.033 7585.75 535.062 7585.75 530.092 7589.78 526.062 7594.75 526.062 7599.72 526.062 7603.75 530.092 7603.75 535.062Z" fill="#1F4E79"/><path d="M7609.75 515.062C7609.75 520.033 7605.72 524.062 7600.75 524.062 7595.78 524.062 7591.75 520.033 7591.75 515.062 7591.75 510.092 7595.78 506.062 7600.75 506.062 7605.72 506.062 7609.75 510.092 7609.75 515.062Z" fill="#1F4E79"/><path d="M7615.75 1161.06C7615.75 1166.03 7611.72 1170.06 7606.75 1170.06 7601.78 1170.06 7597.75 1166.03 7597.75 1161.06 7597.75 1156.09 7601.78 1152.06 7606.75 1152.06 7611.72 1152.06 7615.75 1156.09 7615.75 1161.06Z" fill="#1F4E79"/><path d="M7621.75 1299.06C7621.75 1304.03 7617.72 1308.06 7612.75 1308.06 7607.78 1308.06 7603.75 1304.03 7603.75 1299.06 7603.75 1294.09 7607.78 1290.06 7612.75 1290.06 7617.72 1290.06 7621.75 1294.09 7621.75 1299.06Z" fill="#1F4E79"/><path d="M7627.75 1170.06C7627.75 1175.03 7623.72 1179.06 7618.75 1179.06 7613.78 1179.06 7609.75 1175.03 7609.75 1170.06 7609.75 1165.09 7613.78 1161.06 7618.75 1161.06 7623.72 1161.06 7627.75 1165.09 7627.75 1170.06Z" fill="#1F4E79"/><path d="M7633.75 1182.06C7633.75 1187.03 7629.72 1191.06 7624.75 1191.06 7619.78 1191.06 7615.75 1187.03 7615.75 1182.06 7615.75 1177.09 7619.78 1173.06 7624.75 1173.06 7629.72 1173.06 7633.75 1177.09 7633.75 1182.06Z" fill="#1F4E79"/><path d="M7639.75 1200.06C7639.75 1205.03 7635.72 1209.06 7630.75 1209.06 7625.78 1209.06 7621.75 1205.03 7621.75 1200.06 7621.75 1195.09 7625.78 1191.06 7630.75 1191.06 7635.72 1191.06 7639.75 1195.09 7639.75 1200.06Z" fill="#1F4E79"/><path d="M7645.75 1172.06C7645.75 1177.03 7641.72 1181.06 7636.75 1181.06 7631.78 1181.06 7627.75 1177.03 7627.75 1172.06 7627.75 1167.09 7631.78 1163.06 7636.75 1163.06 7641.72 1163.06 7645.75 1167.09 7645.75 1172.06Z" fill="#1F4E79"/><path d="M7651.75 1103.06C7651.75 1108.03 7647.72 1112.06 7642.75 1112.06 7637.78 1112.06 7633.75 1108.03 7633.75 1103.06 7633.75 1098.09 7637.78 1094.06 7642.75 1094.06 7647.72 1094.06 7651.75 1098.09 7651.75 1103.06Z" fill="#1F4E79"/><path d="M7658.75 1172.06C7658.75 1177.03 7654.72 1181.06 7649.75 1181.06 7644.78 1181.06 7640.75 1177.03 7640.75 1172.06 7640.75 1167.09 7644.78 1163.06 7649.75 1163.06 7654.72 1163.06 7658.75 1167.09 7658.75 1172.06Z" fill="#1F4E79"/><path d="M7664.75 1221.06C7664.75 1226.03 7660.72 1230.06 7655.75 1230.06 7650.78 1230.06 7646.75 1226.03 7646.75 1221.06 7646.75 1216.09 7650.78 1212.06 7655.75 1212.06 7660.72 1212.06 7664.75 1216.09 7664.75 1221.06Z" fill="#1F4E79"/><path d="M7670.75 1180.06C7670.75 1185.03 7666.72 1189.06 7661.75 1189.06 7656.78 1189.06 7652.75 1185.03 7652.75 1180.06 7652.75 1175.09 7656.78 1171.06 7661.75 1171.06 7666.72 1171.06 7670.75 1175.09 7670.75 1180.06Z" fill="#1F4E79"/><path d="M7676.75 1203.06C7676.75 1208.03 7672.72 1212.06 7667.75 1212.06 7662.78 1212.06 7658.75 1208.03 7658.75 1203.06 7658.75 1198.09 7662.78 1194.06 7667.75 1194.06 7672.72 1194.06 7676.75 1198.09 7676.75 1203.06Z" fill="#1F4E79"/><path d="M7682.75 1204.06C7682.75 1209.03 7678.72 1213.06 7673.75 1213.06 7668.78 1213.06 7664.75 1209.03 7664.75 1204.06 7664.75 1199.09 7668.78 1195.06 7673.75 1195.06 7678.72 1195.06 7682.75 1199.09 7682.75 1204.06Z" fill="#1F4E79"/><path d="M7694.75 1339.06C7694.75 1344.03 7690.72 1348.06 7685.75 1348.06 7680.78 1348.06 7676.75 1344.03 7676.75 1339.06 7676.75 1334.09 7680.78 1330.06 7685.75 1330.06 7690.72 1330.06 7694.75 1334.09 7694.75 1339.06Z" fill="#1F4E79"/><path d="M7700.75 1325.06C7700.75 1330.03 7696.72 1334.06 7691.75 1334.06 7686.78 1334.06 7682.75 1330.03 7682.75 1325.06 7682.75 1320.09 7686.78 1316.06 7691.75 1316.06 7696.72 1316.06 7700.75 1320.09 7700.75 1325.06Z" fill="#1F4E79"/><path d="M7706.75 1367.06C7706.75 1372.03 7702.72 1376.06 7697.75 1376.06 7692.78 1376.06 7688.75 1372.03 7688.75 1367.06 7688.75 1362.09 7692.78 1358.06 7697.75 1358.06 7702.72 1358.06 7706.75 1362.09 7706.75 1367.06Z" fill="#1F4E79"/></g><g clip-path="url(#clip6)"><path d="M6297.75 1476.06C6297.75 1481.03 6293.72 1485.06 6288.75 1485.06 6283.78 1485.06 6279.75 1481.03 6279.75 1476.06 6279.75 1471.09 6283.78 1467.06 6288.75 1467.06 6293.72 1467.06 6297.75 1471.09 6297.75 1476.06Z" fill="#C00000"/><path d="M6706.75 477.062C6706.75 482.033 6702.72 486.062 6697.75 486.062 6692.78 486.062 6688.75 482.033 6688.75 477.062 6688.75 472.092 6692.78 468.062 6697.75 468.062 6702.72 468.062 6706.75 472.092 6706.75 477.062Z" fill="#C00000"/></g><g clip-path="url(#clip7)"><text fill="#7F7F7F" font-family="Calibri,Calibri_MSFontService,sans-serif" font-weight="400" font-size="55" transform="matrix(1 0 0 1 5598.54 1612)">-11</text></g><g clip-path="url(#clip8)"><text fill="#7F7F7F" font-family="Calibri,Calibri_MSFontService,sans-serif" font-weight="400" font-size="55" transform="matrix(1 0 0 1 5598.54 1527)">-10</text></g><g clip-path="url(#clip9)"><text fill="#7F7F7F" font-family="Calibri,Calibri_MSFontService,sans-serif" font-weight="400" font-size="55" transform="matrix(1 0 0 1 5626.41 1443)">-9</text></g><g clip-path="url(#clip10)"><text fill="#7F7F7F" font-family="Calibri,Calibri_MSFontService,sans-serif" font-weight="400" font-size="55" transform="matrix(1 0 0 1 5626.41 1358)">-8</text></g><g clip-path="url(#clip11)"><text fill="#7F7F7F" font-family="Calibri,Calibri_MSFontService,sans-serif" font-weight="400" font-size="55" transform="matrix(1 0 0 1 5626.41 1273)">-7</text></g><g clip-path="url(#clip12)"><text fill="#7F7F7F" font-family="Calibri,Calibri_MSFontService,sans-serif" font-weight="400" font-size="55" transform="matrix(1 0 0 1 5626.41 1189)">-6</text></g><g clip-path="url(#clip13)"><text fill="#7F7F7F" font-family="Calibri,Calibri_MSFontService,sans-serif" font-weight="400" font-size="55" transform="matrix(1 0 0 1 5626.41 1104)">-5</text></g><g clip-path="url(#clip14)"><text fill="#7F7F7F" font-family="Calibri,Calibri_MSFontService,sans-serif" font-weight="400" font-size="55" transform="matrix(1 0 0 1 5626.41 1019)">-4</text></g><g clip-path="url(#clip15)"><text fill="#7F7F7F" font-family="Calibri,Calibri_MSFontService,sans-serif" font-weight="400" font-size="55" transform="matrix(1 0 0 1 5626.41 934)">-3</text></g><g clip-path="url(#clip16)"><text fill="#7F7F7F" font-family="Calibri,Calibri_MSFontService,sans-serif" font-weight="400" font-size="55" transform="matrix(1 0 0 1 5626.41 850)">-2</text></g><g clip-path="url(#clip17)"><text fill="#7F7F7F" font-family="Calibri,Calibri_MSFontService,sans-serif" font-weight="400" font-size="55" transform="matrix(1 0 0 1 5626.41 765)">-1</text></g><g clip-path="url(#clip18)"><text fill="#7F7F7F" font-family="Calibri,Calibri_MSFontService,sans-serif" font-weight="400" font-size="55" transform="matrix(1 0 0 1 5643.25 680)">0</text></g><g clip-path="url(#clip19)"><text fill="#7F7F7F" font-family="Calibri,Calibri_MSFontService,sans-serif" font-weight="400" font-size="55" transform="matrix(1 0 0 1 5643.25 595)">1</text></g><g clip-path="url(#clip20)"><text fill="#7F7F7F" font-family="Calibri,Calibri_MSFontService,sans-serif" font-weight="400" font-size="55" transform="matrix(1 0 0 1 5643.25 511)">2</text></g><g clip-path="url(#clip21)"><text fill="#7F7F7F" font-family="Calibri,Calibri_MSFontService,sans-serif" font-weight="400" font-size="55" transform="matrix(1 0 0 1 5643.25 426)">3</text></g><rect x="5569.5" y="354.5" width="2338" height="1299" stroke="#D9D9D9" stroke-width="3.4375" stroke-linejoin="round" stroke-miterlimit="10" fill="none"/></g></svg>