<svg width="2339" height="1302" xmlns="http://www.w3.org/2000/svg" xmlns:xlink="http://www.w3.org/1999/xlink" overflow="hidden"><defs><clipPath id="clip0"><rect x="2935" y="314" width="2339" height="1302"/></clipPath><radialGradient cx="3.23642e+06" cy="1.79971e+06" r="3.70316e+06" fy="1.79971e+06" gradientUnits="userSpaceOnUse" spreadMethod="pad" id="fill1" gradientTransform="matrix(0.000360892 0 0 0.000360892 2936 315)"><stop offset="0" stop-color="#FFFFFF"/><stop offset="0.43" stop-color="#FFFFFF"/><stop offset="1" stop-color="#F2F2F2"/></radialGradient><clipPath id="clip2"><rect x="2935" y="315" width="2336" height="1299"/></clipPath><clipPath id="clip3"><rect x="2935" y="315" width="2336" height="1299"/></clipPath><clipPath id="clip4"><rect x="2935" y="315" width="2336" height="1299"/></clipPath><clipPath id="clip5"><rect x="2935" y="315" width="2336" height="1299"/></clipPath><clipPath id="clip6"><rect x="2935" y="315" width="2336" height="1299"/></clipPath><clipPath id="clip7"><rect x="2935" y="315" width="2336" height="1299"/></clipPath><clipPath id="clip8"><rect x="2935" y="315" width="2336" height="1299"/></clipPath><clipPath id="clip9"><rect x="2935" y="315" width="2336" height="1299"/></clipPath><clipPath id="clip10"><rect x="2935" y="315" width="2336" height="1299"/></clipPath><clipPath id="clip11"><rect x="2935" y="315" width="2336" height="1299"/></clipPath><clipPath id="clip12"><rect x="2935" y="315" width="2336" height="1299"/></clipPath><clipPath id="clip13"><rect x="2935" y="315" width="2336" height="1299"/></clipPath><clipPath id="clip14"><rect x="2935" y="315" width="2336" height="1299"/></clipPath><clipPath id="clip15"><rect x="2935" y="315" width="2336" height="1299"/></clipPath><clipPath id="clip16"><rect x="2935" y="315" width="2336" height="1299"/></clipPath><clipPath id="clip17"><rect x="2935" y="315" width="2336" height="1299"/></clipPath><clipPath id="clip18"><rect x="2935" y="315" width="2336" height="1299"/></clipPath><clipPath id="clip19"><rect x="2935" y="315" width="2336" height="1299"/></clipPath><clipPath id="clip20"><rect x="2935" y="315" width="2336" height="1299"/></clipPath><clipPath id="clip21"><rect x="2935" y="315" width="2336" height="1299"/></clipPath><clipPath id="clip22"><rect x="2935" y="315" width="2336" height="1299"/></clipPath><clipPath id="clip23"><rect x="2935" y="315" width="2336" height="1299"/></clipPath><clipPath id="clip24"><rect x="2935" y="315" width="2336" height="1299"/></clipPath><clipPath id="clip25"><rect x="2935" y="315" width="2336" height="1299"/></clipPath><clipPath id="clip26"><rect x="2935" y="315" width="2336" height="1299"/></clipPath><clipPath id="clip27"><rect x="2935" y="315" width="2336" height="1299"/></clipPath><clipPath id="clip28"><rect x="2935" y="315" width="2336" height="1299"/></clipPath><clipPath id="clip29"><rect x="2935" y="315" width="2336" height="1299"/></clipPath><clipPath id="clip30"><rect x="2935" y="315" width="2336" height="1299"/></clipPath><clipPath id="clip31"><rect x="2935" y="315" width="2336" height="1299"/></clipPath><clipPath id="clip32"><rect x="2935" y="315" width="2336" height="1299"/></clipPath><clipPath id="clip33"><rect x="2935" y="315" width="2336" height="1299"/></clipPath><clipPath id="clip34"><rect x="2935" y="315" width="2336" height="1299"/></clipPath><clipPath id="clip35"><rect x="2935" y="315" width="2336" height="1299"/></clipPath></defs><g clip-path="url(#clip0)" transform="translate(-2935 -314)"><rect x="2936" y="315" width="2336" height="1299" fill="url(#fill1)"/><g clip-path="url(#clip2)"><path d="M3197.5 1483.5 5221.5 1483.5M3197.5 1412.55 5221.5 1412.55M3197.5 1341.54 5221.5 1341.54M3197.5 1270.54 5221.5 1270.54M3197.5 1200.54 5221.5 1200.54M3197.5 1129.54 5221.5 1129.54M3197.5 1058.53 5221.5 1058.53M3197.5 988.533 5221.5 988.533M3197.5 917.53 5221.5 917.53M3197.5 846.528 5221.5 846.528M3197.5 775.526 5221.5 775.526M3197.5 634.521 5221.5 634.521M3197.5 563.519 5221.5 563.519M3197.5 493.5 5221.5 493.5" stroke="#D9D9D9" stroke-width="3.4375" stroke-linejoin="round" stroke-miterlimit="10" fill="none"/></g><g clip-path="url(#clip3)"><path d="M3197.5 705.5 5221.5 705.5" stroke="#000000" stroke-width="11.4583" stroke-linejoin="round" stroke-miterlimit="10" fill="none" fill-rule="evenodd"/></g><g clip-path="url(#clip4)"><path d="M3275.62 873.104C3275.62 878.075 3271.6 882.104 3266.62 882.104 3261.65 882.104 3257.62 878.075 3257.62 873.104 3257.62 868.134 3261.65 864.104 3266.62 864.104 3271.6 864.104 3275.62 868.134 3275.62 873.104Z" fill="#BFBFBF"/><path d="M3304.62 903.104C3304.62 908.075 3300.6 912.104 3295.62 912.104 3290.65 912.104 3286.62 908.075 3286.62 903.104 3286.62 898.133 3290.65 894.104 3295.62 894.104 3300.6 894.104 3304.62 898.133 3304.62 903.104Z" fill="#BFBFBF"/><path d="M3356.62 603.104C3356.62 608.075 3352.6 612.104 3347.62 612.104 3342.65 612.104 3338.62 608.075 3338.62 603.104 3338.62 598.134 3342.65 594.104 3347.62 594.104 3352.6 594.104 3356.62 598.134 3356.62 603.104Z" fill="#BFBFBF"/><path d="M3414.62 808.104C3414.62 813.075 3410.6 817.104 3405.62 817.104 3400.65 817.104 3396.62 813.075 3396.62 808.104 3396.62 803.134 3400.65 799.104 3405.62 799.104 3410.6 799.104 3414.62 803.134 3414.62 808.104Z" fill="#BFBFBF"/><path d="M3419.62 838.104C3419.62 843.075 3415.6 847.104 3410.62 847.104 3405.65 847.104 3401.62 843.075 3401.62 838.104 3401.62 833.133 3405.65 829.104 3410.62 829.104 3415.6 829.104 3419.62 833.133 3419.62 838.104Z" fill="#BFBFBF"/><path d="M3443.62 615.104C3443.62 620.075 3439.6 624.104 3434.62 624.104 3429.65 624.104 3425.62 620.075 3425.62 615.104 3425.62 610.134 3429.65 606.104 3434.62 606.104 3439.6 606.104 3443.62 610.134 3443.62 615.104Z" fill="#BFBFBF"/><path d="M3448.62 610.104C3448.62 615.075 3444.6 619.104 3439.62 619.104 3434.65 619.104 3430.62 615.075 3430.62 610.104 3430.62 605.134 3434.65 601.104 3439.62 601.104 3444.6 601.104 3448.62 605.134 3448.62 610.104Z" fill="#BFBFBF"/><path d="M3454.62 607.104C3454.62 612.075 3450.6 616.104 3445.62 616.104 3440.65 616.104 3436.62 612.075 3436.62 607.104 3436.62 602.133 3440.65 598.104 3445.62 598.104 3450.6 598.104 3454.62 602.133 3454.62 607.104Z" fill="#BFBFBF"/><path d="M3483.62 624.104C3483.62 629.075 3479.6 633.104 3474.62 633.104 3469.65 633.104 3465.62 629.075 3465.62 624.104 3465.62 619.134 3469.65 615.104 3474.62 615.104 3479.6 615.104 3483.62 619.134 3483.62 624.104Z" fill="#BFBFBF"/><path d="M3558.62 902.104C3558.62 907.075 3554.6 911.104 3549.62 911.104 3544.65 911.104 3540.62 907.075 3540.62 902.104 3540.62 897.134 3544.65 893.104 3549.62 893.104 3554.6 893.104 3558.62 897.134 3558.62 902.104Z" fill="#BFBFBF"/><path d="M3564.62 597.104C3564.62 602.075 3560.6 606.104 3555.62 606.104 3550.65 606.104 3546.62 602.075 3546.62 597.104 3546.62 592.134 3550.65 588.104 3555.62 588.104 3560.6 588.104 3564.62 592.134 3564.62 597.104Z" fill="#BFBFBF"/><path d="M3587.62 630.104C3587.62 635.075 3583.6 639.104 3578.62 639.104 3573.65 639.104 3569.62 635.075 3569.62 630.104 3569.62 625.134 3573.65 621.104 3578.62 621.104 3583.6 621.104 3587.62 625.134 3587.62 630.104Z" fill="#BFBFBF"/><path d="M3755.62 599.104C3755.62 604.075 3751.6 608.104 3746.62 608.104 3741.65 608.104 3737.62 604.075 3737.62 599.104 3737.62 594.134 3741.65 590.104 3746.62 590.104 3751.6 590.104 3755.62 594.134 3755.62 599.104Z" fill="#BFBFBF"/><path d="M3761.62 606.104C3761.62 611.075 3757.6 615.104 3752.62 615.104 3747.65 615.104 3743.62 611.075 3743.62 606.104 3743.62 601.133 3747.65 597.104 3752.62 597.104 3757.6 597.104 3761.62 601.133 3761.62 606.104Z" fill="#BFBFBF"/><path d="M3766.62 610.104C3766.62 615.075 3762.6 619.104 3757.62 619.104 3752.65 619.104 3748.62 615.075 3748.62 610.104 3748.62 605.134 3752.65 601.104 3757.62 601.104 3762.6 601.104 3766.62 605.134 3766.62 610.104Z" fill="#BFBFBF"/><path d="M3778.62 585.104C3778.62 590.075 3774.6 594.104 3769.62 594.104 3764.65 594.104 3760.62 590.075 3760.62 585.104 3760.62 580.133 3764.65 576.104 3769.62 576.104 3774.6 576.104 3778.62 580.133 3778.62 585.104Z" fill="#BFBFBF"/><path d="M3807.62 621.104C3807.62 626.075 3803.6 630.104 3798.62 630.104 3793.65 630.104 3789.62 626.075 3789.62 621.104 3789.62 616.134 3793.65 612.104 3798.62 612.104 3803.6 612.104 3807.62 616.134 3807.62 621.104Z" fill="#BFBFBF"/><path d="M3830.62 619.104C3830.62 624.075 3826.6 628.104 3821.62 628.104 3816.65 628.104 3812.62 624.075 3812.62 619.104 3812.62 614.134 3816.65 610.104 3821.62 610.104 3826.6 610.104 3830.62 614.134 3830.62 619.104Z" fill="#BFBFBF"/><path d="M3836.62 801.104C3836.62 806.075 3832.6 810.104 3827.62 810.104 3822.65 810.104 3818.62 806.075 3818.62 801.104 3818.62 796.134 3822.65 792.104 3827.62 792.104 3832.6 792.104 3836.62 796.134 3836.62 801.104Z" fill="#BFBFBF"/><path d="M3842.62 789.104C3842.62 794.075 3838.6 798.104 3833.62 798.104 3828.65 798.104 3824.62 794.075 3824.62 789.104 3824.62 784.134 3828.65 780.104 3833.62 780.104 3838.6 780.104 3842.62 784.134 3842.62 789.104Z" fill="#BFBFBF"/><path d="M3847.62 630.104C3847.62 635.075 3843.6 639.104 3838.62 639.104 3833.65 639.104 3829.62 635.075 3829.62 630.104 3829.62 625.134 3833.65 621.104 3838.62 621.104 3843.6 621.104 3847.62 625.134 3847.62 630.104Z" fill="#BFBFBF"/><path d="M3853.62 802.104C3853.62 807.075 3849.6 811.104 3844.62 811.104 3839.65 811.104 3835.62 807.075 3835.62 802.104 3835.62 797.134 3839.65 793.104 3844.62 793.104 3849.6 793.104 3853.62 797.134 3853.62 802.104Z" fill="#BFBFBF"/><path d="M3859.62 619.104C3859.62 624.075 3855.6 628.104 3850.62 628.104 3845.65 628.104 3841.62 624.075 3841.62 619.104 3841.62 614.134 3845.65 610.104 3850.62 610.104 3855.6 610.104 3859.62 614.134 3859.62 619.104Z" fill="#BFBFBF"/><path d="M3870.62 624.104C3870.62 629.075 3866.6 633.104 3861.62 633.104 3856.65 633.104 3852.62 629.075 3852.62 624.104 3852.62 619.134 3856.65 615.104 3861.62 615.104 3866.6 615.104 3870.62 619.134 3870.62 624.104Z" fill="#BFBFBF"/><path d="M3923.62 843.104C3923.62 848.075 3919.6 852.104 3914.62 852.104 3909.65 852.104 3905.62 848.075 3905.62 843.104 3905.62 838.134 3909.65 834.104 3914.62 834.104 3919.6 834.104 3923.62 838.134 3923.62 843.104Z" fill="#BFBFBF"/><path d="M3928.62 836.104C3928.62 841.075 3924.6 845.104 3919.62 845.104 3914.65 845.104 3910.62 841.075 3910.62 836.104 3910.62 831.134 3914.65 827.104 3919.62 827.104 3924.6 827.104 3928.62 831.134 3928.62 836.104Z" fill="#BFBFBF"/><path d="M3963.62 614.104C3963.62 619.075 3959.6 623.104 3954.62 623.104 3949.65 623.104 3945.62 619.075 3945.62 614.104 3945.62 609.134 3949.65 605.104 3954.62 605.104 3959.6 605.104 3963.62 609.134 3963.62 614.104Z" fill="#BFBFBF"/><path d="M3975.62 603.104C3975.62 608.075 3971.6 612.104 3966.62 612.104 3961.65 612.104 3957.62 608.075 3957.62 603.104 3957.62 598.134 3961.65 594.104 3966.62 594.104 3971.6 594.104 3975.62 598.134 3975.62 603.104Z" fill="#BFBFBF"/><path d="M3980.62 597.104C3980.62 602.075 3976.6 606.104 3971.62 606.104 3966.65 606.104 3962.62 602.075 3962.62 597.104 3962.62 592.134 3966.65 588.104 3971.62 588.104 3976.6 588.104 3980.62 592.134 3980.62 597.104Z" fill="#BFBFBF"/><path d="M3998.62 947.104C3998.62 952.075 3994.6 956.104 3989.62 956.104 3984.65 956.104 3980.62 952.075 3980.62 947.104 3980.62 942.133 3984.65 938.104 3989.62 938.104 3994.6 938.104 3998.62 942.133 3998.62 947.104Z" fill="#BFBFBF"/><path d="M4003.62 618.104C4003.62 623.075 3999.6 627.104 3994.62 627.104 3989.65 627.104 3985.62 623.075 3985.62 618.104 3985.62 613.133 3989.65 609.104 3994.62 609.104 3999.6 609.104 4003.62 613.133 4003.62 618.104Z" fill="#BFBFBF"/><path d="M4056.62 901.104C4056.62 906.075 4052.6 910.104 4047.62 910.104 4042.65 910.104 4038.62 906.075 4038.62 901.104 4038.62 896.134 4042.65 892.104 4047.62 892.104 4052.6 892.104 4056.62 896.134 4056.62 901.104Z" fill="#BFBFBF"/><path d="M4079.62 925.104C4079.62 930.075 4075.6 934.104 4070.62 934.104 4065.65 934.104 4061.62 930.075 4061.62 925.104 4061.62 920.133 4065.65 916.104 4070.62 916.104 4075.6 916.104 4079.62 920.133 4079.62 925.104Z" fill="#BFBFBF"/><path d="M4119.62 620.104C4119.62 625.075 4115.6 629.104 4110.62 629.104 4105.65 629.104 4101.62 625.075 4101.62 620.104 4101.62 615.134 4105.65 611.104 4110.62 611.104 4115.6 611.104 4119.62 615.134 4119.62 620.104Z" fill="#BFBFBF"/><path d="M4946.62 888.104C4946.62 893.075 4942.6 897.104 4937.62 897.104 4932.65 897.104 4928.62 893.075 4928.62 888.104 4928.62 883.134 4932.65 879.104 4937.62 879.104 4942.6 879.104 4946.62 883.134 4946.62 888.104Z" fill="#BFBFBF"/><path d="M4963.62 611.104C4963.62 616.075 4959.6 620.104 4954.62 620.104 4949.65 620.104 4945.62 616.075 4945.62 611.104 4945.62 606.134 4949.65 602.104 4954.62 602.104 4959.6 602.104 4963.62 606.134 4963.62 611.104Z" fill="#BFBFBF"/><path d="M4969.62 605.104C4969.62 610.075 4965.6 614.104 4960.62 614.104 4955.65 614.104 4951.62 610.075 4951.62 605.104 4951.62 600.134 4955.65 596.104 4960.62 596.104 4965.6 596.104 4969.62 600.134 4969.62 605.104Z" fill="#BFBFBF"/><path d="M4975.62 605.104C4975.62 610.075 4971.6 614.104 4966.62 614.104 4961.65 614.104 4957.62 610.075 4957.62 605.104 4957.62 600.134 4961.65 596.104 4966.62 596.104 4971.6 596.104 4975.62 600.134 4975.62 605.104Z" fill="#BFBFBF"/><path d="M5062.62 602.104C5062.62 607.075 5058.6 611.104 5053.62 611.104 5048.65 611.104 5044.62 607.075 5044.62 602.104 5044.62 597.134 5048.65 593.104 5053.62 593.104 5058.6 593.104 5062.62 597.134 5062.62 602.104Z" fill="#BFBFBF"/><path d="M5091.62 631.104C5091.62 636.075 5087.6 640.104 5082.62 640.104 5077.65 640.104 5073.62 636.075 5073.62 631.104 5073.62 626.134 5077.65 622.104 5082.62 622.104 5087.6 622.104 5091.62 626.134 5091.62 631.104Z" fill="#BFBFBF"/></g><g clip-path="url(#clip5)"><path d="M3257.62 824.104C3257.62 829.075 3253.6 833.104 3248.62 833.104 3243.65 833.104 3239.62 829.075 3239.62 824.104 3239.62 819.134 3243.65 815.104 3248.62 815.104 3253.6 815.104 3257.62 819.134 3257.62 824.104Z" fill="#1F4E79"/><path d="M3281.62 924.104C3281.62 929.075 3277.6 933.104 3272.62 933.104 3267.65 933.104 3263.62 929.075 3263.62 924.104 3263.62 919.134 3267.65 915.104 3272.62 915.104 3277.6 915.104 3281.62 919.134 3281.62 924.104Z" fill="#1F4E79"/><path d="M3315.62 821.104C3315.62 826.075 3311.6 830.104 3306.62 830.104 3301.65 830.104 3297.62 826.075 3297.62 821.104 3297.62 816.134 3301.65 812.104 3306.62 812.104 3311.6 812.104 3315.62 816.134 3315.62 821.104Z" fill="#1F4E79"/><path d="M3385.62 1101.1C3385.62 1106.07 3381.6 1110.1 3376.62 1110.1 3371.65 1110.1 3367.62 1106.07 3367.62 1101.1 3367.62 1096.13 3371.65 1092.1 3376.62 1092.1 3381.6 1092.1 3385.62 1096.13 3385.62 1101.1Z" fill="#1F4E79"/><path d="M3390.62 1045.1C3390.62 1050.07 3386.6 1054.1 3381.62 1054.1 3376.65 1054.1 3372.62 1050.07 3372.62 1045.1 3372.62 1040.13 3376.65 1036.1 3381.62 1036.1 3386.6 1036.1 3390.62 1040.13 3390.62 1045.1Z" fill="#1F4E79"/><path d="M3396.62 1053.1C3396.62 1058.07 3392.6 1062.1 3387.62 1062.1 3382.65 1062.1 3378.62 1058.07 3378.62 1053.1 3378.62 1048.13 3382.65 1044.1 3387.62 1044.1 3392.6 1044.1 3396.62 1048.13 3396.62 1053.1Z" fill="#1F4E79"/><path d="M3402.62 1045.1C3402.62 1050.07 3398.6 1054.1 3393.62 1054.1 3388.65 1054.1 3384.62 1050.07 3384.62 1045.1 3384.62 1040.13 3388.65 1036.1 3393.62 1036.1 3398.6 1036.1 3402.62 1040.13 3402.62 1045.1Z" fill="#1F4E79"/><path d="M3408.62 1057.1C3408.62 1062.07 3404.6 1066.1 3399.62 1066.1 3394.65 1066.1 3390.62 1062.07 3390.62 1057.1 3390.62 1052.13 3394.65 1048.1 3399.62 1048.1 3404.6 1048.1 3408.62 1052.13 3408.62 1057.1Z" fill="#1F4E79"/><path d="M3425.62 901.104C3425.62 906.075 3421.6 910.104 3416.62 910.104 3411.65 910.104 3407.62 906.075 3407.62 901.104 3407.62 896.134 3411.65 892.104 3416.62 892.104 3421.6 892.104 3425.62 896.134 3425.62 901.104Z" fill="#1F4E79"/><path d="M3460.62 608.104C3460.62 613.075 3456.6 617.104 3451.62 617.104 3446.65 617.104 3442.62 613.075 3442.62 608.104 3442.62 603.134 3446.65 599.104 3451.62 599.104 3456.6 599.104 3460.62 603.134 3460.62 608.104Z" fill="#1F4E79"/><path d="M3466.62 605.104C3466.62 610.075 3462.6 614.104 3457.62 614.104 3452.65 614.104 3448.62 610.075 3448.62 605.104 3448.62 600.134 3452.65 596.104 3457.62 596.104 3462.6 596.104 3466.62 600.134 3466.62 605.104Z" fill="#1F4E79"/><path d="M3471.62 612.104C3471.62 617.075 3467.6 621.104 3462.62 621.104 3457.65 621.104 3453.62 617.075 3453.62 612.104 3453.62 607.134 3457.65 603.104 3462.62 603.104 3467.6 603.104 3471.62 607.134 3471.62 612.104Z" fill="#1F4E79"/><path d="M3477.62 614.104C3477.62 619.075 3473.6 623.104 3468.62 623.104 3463.65 623.104 3459.62 619.075 3459.62 614.104 3459.62 609.134 3463.65 605.104 3468.62 605.104 3473.6 605.104 3477.62 609.134 3477.62 614.104Z" fill="#1F4E79"/><path d="M3489.62 1096.1C3489.62 1101.07 3485.6 1105.1 3480.62 1105.1 3475.65 1105.1 3471.62 1101.07 3471.62 1096.1 3471.62 1091.13 3475.65 1087.1 3480.62 1087.1 3485.6 1087.1 3489.62 1091.13 3489.62 1096.1Z" fill="#1F4E79"/><path d="M3495.62 1101.1C3495.62 1106.07 3491.6 1110.1 3486.62 1110.1 3481.65 1110.1 3477.62 1106.07 3477.62 1101.1 3477.62 1096.13 3481.65 1092.1 3486.62 1092.1 3491.6 1092.1 3495.62 1096.13 3495.62 1101.1Z" fill="#1F4E79"/><path d="M3500.62 1263.1C3500.62 1268.07 3496.6 1272.1 3491.62 1272.1 3486.65 1272.1 3482.62 1268.07 3482.62 1263.1 3482.62 1258.13 3486.65 1254.1 3491.62 1254.1 3496.6 1254.1 3500.62 1258.13 3500.62 1263.1Z" fill="#1F4E79"/><path d="M3506.62 1140.1C3506.62 1145.07 3502.6 1149.1 3497.62 1149.1 3492.65 1149.1 3488.62 1145.07 3488.62 1140.1 3488.62 1135.13 3492.65 1131.1 3497.62 1131.1 3502.6 1131.1 3506.62 1135.13 3506.62 1140.1Z" fill="#1F4E79"/><path d="M3512.62 1128.1C3512.62 1133.07 3508.6 1137.1 3503.62 1137.1 3498.65 1137.1 3494.62 1133.07 3494.62 1128.1 3494.62 1123.13 3498.65 1119.1 3503.62 1119.1 3508.6 1119.1 3512.62 1123.13 3512.62 1128.1Z" fill="#1F4E79"/><path d="M3518.62 1059.1C3518.62 1064.07 3514.6 1068.1 3509.62 1068.1 3504.65 1068.1 3500.62 1064.07 3500.62 1059.1 3500.62 1054.13 3504.65 1050.1 3509.62 1050.1 3514.6 1050.1 3518.62 1054.13 3518.62 1059.1Z" fill="#1F4E79"/><path d="M3523.62 1134.1C3523.62 1139.07 3519.6 1143.1 3514.62 1143.1 3509.65 1143.1 3505.62 1139.07 3505.62 1134.1 3505.62 1129.13 3509.65 1125.1 3514.62 1125.1 3519.6 1125.1 3523.62 1129.13 3523.62 1134.1Z" fill="#1F4E79"/><path d="M3529.62 1119.1C3529.62 1124.07 3525.6 1128.1 3520.62 1128.1 3515.65 1128.1 3511.62 1124.07 3511.62 1119.1 3511.62 1114.13 3515.65 1110.1 3520.62 1110.1 3525.6 1110.1 3529.62 1114.13 3529.62 1119.1Z" fill="#1F4E79"/><path d="M3535.62 1116.1C3535.62 1121.07 3531.6 1125.1 3526.62 1125.1 3521.65 1125.1 3517.62 1121.07 3517.62 1116.1 3517.62 1111.13 3521.65 1107.1 3526.62 1107.1 3531.6 1107.1 3535.62 1111.13 3535.62 1116.1Z" fill="#1F4E79"/><path d="M3541.62 1133.1C3541.62 1138.07 3537.6 1142.1 3532.62 1142.1 3527.65 1142.1 3523.62 1138.07 3523.62 1133.1 3523.62 1128.13 3527.65 1124.1 3532.62 1124.1 3537.6 1124.1 3541.62 1128.13 3541.62 1133.1Z" fill="#1F4E79"/><path d="M3547.62 1147.1C3547.62 1152.07 3543.6 1156.1 3538.62 1156.1 3533.65 1156.1 3529.62 1152.07 3529.62 1147.1 3529.62 1142.13 3533.65 1138.1 3538.62 1138.1 3543.6 1138.1 3547.62 1142.13 3547.62 1147.1Z" fill="#1F4E79"/><path d="M3552.62 1149.1C3552.62 1154.07 3548.6 1158.1 3543.62 1158.1 3538.65 1158.1 3534.62 1154.07 3534.62 1149.1 3534.62 1144.13 3538.65 1140.1 3543.62 1140.1 3548.6 1140.1 3552.62 1144.13 3552.62 1149.1Z" fill="#1F4E79"/><path d="M3570.62 1263.1C3570.62 1268.07 3566.6 1272.1 3561.62 1272.1 3556.65 1272.1 3552.62 1268.07 3552.62 1263.1 3552.62 1258.13 3556.65 1254.1 3561.62 1254.1 3566.6 1254.1 3570.62 1258.13 3570.62 1263.1Z" fill="#1F4E79"/><path d="M3576.62 1255.1C3576.62 1260.07 3572.6 1264.1 3567.62 1264.1 3562.65 1264.1 3558.62 1260.07 3558.62 1255.1 3558.62 1250.13 3562.65 1246.1 3567.62 1246.1 3572.6 1246.1 3576.62 1250.13 3576.62 1255.1Z" fill="#1F4E79"/><path d="M3581.62 1290.1C3581.62 1295.07 3577.6 1299.1 3572.62 1299.1 3567.65 1299.1 3563.62 1295.07 3563.62 1290.1 3563.62 1285.13 3567.65 1281.1 3572.62 1281.1 3577.6 1281.1 3581.62 1285.13 3581.62 1290.1Z" fill="#1F4E79"/><path d="M3604.62 1018.1C3604.62 1023.07 3600.6 1027.1 3595.62 1027.1 3590.65 1027.1 3586.62 1023.07 3586.62 1018.1 3586.62 1013.13 3590.65 1009.1 3595.62 1009.1 3600.6 1009.1 3604.62 1013.13 3604.62 1018.1Z" fill="#1F4E79"/><path d="M3651.62 900.104C3651.62 905.075 3647.6 909.104 3642.62 909.104 3637.65 909.104 3633.62 905.075 3633.62 900.104 3633.62 895.134 3637.65 891.104 3642.62 891.104 3647.6 891.104 3651.62 895.134 3651.62 900.104Z" fill="#1F4E79"/><path d="M3685.62 850.104C3685.62 855.075 3681.6 859.104 3676.62 859.104 3671.65 859.104 3667.62 855.075 3667.62 850.104 3667.62 845.134 3671.65 841.104 3676.62 841.104 3681.6 841.104 3685.62 845.134 3685.62 850.104Z" fill="#1F4E79"/><path d="M3714.62 1254.1C3714.62 1259.07 3710.6 1263.1 3705.62 1263.1 3700.65 1263.1 3696.62 1259.07 3696.62 1254.1 3696.62 1249.13 3700.65 1245.1 3705.62 1245.1 3710.6 1245.1 3714.62 1249.13 3714.62 1254.1Z" fill="#1F4E79"/><path d="M3720.62 1252.1C3720.62 1257.07 3716.6 1261.1 3711.62 1261.1 3706.65 1261.1 3702.62 1257.07 3702.62 1252.1 3702.62 1247.13 3706.65 1243.1 3711.62 1243.1 3716.6 1243.1 3720.62 1247.13 3720.62 1252.1Z" fill="#1F4E79"/><path d="M3726.62 1244.1C3726.62 1249.07 3722.6 1253.1 3717.62 1253.1 3712.65 1253.1 3708.62 1249.07 3708.62 1244.1 3708.62 1239.13 3712.65 1235.1 3717.62 1235.1 3722.6 1235.1 3726.62 1239.13 3726.62 1244.1Z" fill="#1F4E79"/><path d="M3732.62 1149.1C3732.62 1154.07 3728.6 1158.1 3723.62 1158.1 3718.65 1158.1 3714.62 1154.07 3714.62 1149.1 3714.62 1144.13 3718.65 1140.1 3723.62 1140.1 3728.6 1140.1 3732.62 1144.13 3732.62 1149.1Z" fill="#1F4E79"/><path d="M3737.62 873.104C3737.62 878.075 3733.6 882.104 3728.62 882.104 3723.65 882.104 3719.62 878.075 3719.62 873.104 3719.62 868.134 3723.65 864.104 3728.62 864.104 3733.6 864.104 3737.62 868.134 3737.62 873.104Z" fill="#1F4E79"/><path d="M3749.62 569.104C3749.62 574.075 3745.6 578.104 3740.62 578.104 3735.65 578.104 3731.62 574.075 3731.62 569.104 3731.62 564.134 3735.65 560.104 3740.62 560.104 3745.6 560.104 3749.62 564.134 3749.62 569.104Z" fill="#1F4E79"/><path d="M3784.62 1249.1C3784.62 1254.07 3780.6 1258.1 3775.62 1258.1 3770.65 1258.1 3766.62 1254.07 3766.62 1249.1 3766.62 1244.13 3770.65 1240.1 3775.62 1240.1 3780.6 1240.1 3784.62 1244.13 3784.62 1249.1Z" fill="#1F4E79"/><path d="M3790.62 577.104C3790.62 582.075 3786.6 586.104 3781.62 586.104 3776.65 586.104 3772.62 582.075 3772.62 577.104 3772.62 572.134 3776.65 568.104 3781.62 568.104 3786.6 568.104 3790.62 572.134 3790.62 577.104Z" fill="#1F4E79"/><path d="M3795.62 604.104C3795.62 609.075 3791.6 613.104 3786.62 613.104 3781.65 613.104 3777.62 609.075 3777.62 604.104 3777.62 599.134 3781.65 595.104 3786.62 595.104 3791.6 595.104 3795.62 599.134 3795.62 604.104Z" fill="#1F4E79"/><path d="M3801.62 579.104C3801.62 584.075 3797.6 588.104 3792.62 588.104 3787.65 588.104 3783.62 584.075 3783.62 579.104 3783.62 574.134 3787.65 570.104 3792.62 570.104 3797.6 570.104 3801.62 574.134 3801.62 579.104Z" fill="#1F4E79"/><path d="M3813.62 602.104C3813.62 607.075 3809.6 611.104 3804.62 611.104 3799.65 611.104 3795.62 607.075 3795.62 602.104 3795.62 597.134 3799.65 593.104 3804.62 593.104 3809.6 593.104 3813.62 597.134 3813.62 602.104Z" fill="#1F4E79"/><path d="M3818.62 621.104C3818.62 626.075 3814.6 630.104 3809.62 630.104 3804.65 630.104 3800.62 626.075 3800.62 621.104 3800.62 616.134 3804.65 612.104 3809.62 612.104 3814.6 612.104 3818.62 616.134 3818.62 621.104Z" fill="#1F4E79"/><path d="M3824.62 589.104C3824.62 594.075 3820.6 598.104 3815.62 598.104 3810.65 598.104 3806.62 594.075 3806.62 589.104 3806.62 584.134 3810.65 580.104 3815.62 580.104 3820.6 580.104 3824.62 584.134 3824.62 589.104Z" fill="#1F4E79"/><path d="M3865.62 612.104C3865.62 617.075 3861.6 621.104 3856.62 621.104 3851.65 621.104 3847.62 617.075 3847.62 612.104 3847.62 607.134 3851.65 603.104 3856.62 603.104 3861.6 603.104 3865.62 607.134 3865.62 612.104Z" fill="#1F4E79"/><path d="M3876.62 614.104C3876.62 619.075 3872.6 623.104 3867.62 623.104 3862.65 623.104 3858.62 619.075 3858.62 614.104 3858.62 609.134 3862.65 605.104 3867.62 605.104 3872.6 605.104 3876.62 609.134 3876.62 614.104Z" fill="#1F4E79"/><path d="M3946.62 911.104C3946.62 916.075 3942.6 920.104 3937.62 920.104 3932.65 920.104 3928.62 916.075 3928.62 911.104 3928.62 906.134 3932.65 902.104 3937.62 902.104 3942.6 902.104 3946.62 906.134 3946.62 911.104Z" fill="#1F4E79"/><path d="M4009.62 1102.1C4009.62 1107.07 4005.6 1111.1 4000.62 1111.1 3995.65 1111.1 3991.62 1107.07 3991.62 1102.1 3991.62 1097.13 3995.65 1093.1 4000.62 1093.1 4005.6 1093.1 4009.62 1097.13 4009.62 1102.1Z" fill="#1F4E79"/><path d="M4015.62 1285.1C4015.62 1290.07 4011.6 1294.1 4006.62 1294.1 4001.65 1294.1 3997.62 1290.07 3997.62 1285.1 3997.62 1280.13 4001.65 1276.1 4006.62 1276.1 4011.6 1276.1 4015.62 1280.13 4015.62 1285.1Z" fill="#1F4E79"/><path d="M4021.62 1111.1C4021.62 1116.07 4017.6 1120.1 4012.62 1120.1 4007.65 1120.1 4003.62 1116.07 4003.62 1111.1 4003.62 1106.13 4007.65 1102.1 4012.62 1102.1 4017.6 1102.1 4021.62 1106.13 4021.62 1111.1Z" fill="#1F4E79"/><path d="M4027.62 1140.1C4027.62 1145.07 4023.6 1149.1 4018.62 1149.1 4013.65 1149.1 4009.62 1145.07 4009.62 1140.1 4009.62 1135.13 4013.65 1131.1 4018.62 1131.1 4023.6 1131.1 4027.62 1135.13 4027.62 1140.1Z" fill="#1F4E79"/><path d="M4032.62 1228.1C4032.62 1233.07 4028.6 1237.1 4023.62 1237.1 4018.65 1237.1 4014.62 1233.07 4014.62 1228.1 4014.62 1223.13 4018.65 1219.1 4023.62 1219.1 4028.6 1219.1 4032.62 1223.13 4032.62 1228.1Z" fill="#1F4E79"/><path d="M4038.62 596.104C4038.62 601.075 4034.6 605.104 4029.62 605.104 4024.65 605.104 4020.62 601.075 4020.62 596.104 4020.62 591.133 4024.65 587.104 4029.62 587.104 4034.6 587.104 4038.62 591.133 4038.62 596.104Z" fill="#1F4E79"/><path d="M4044.62 1254.1C4044.62 1259.07 4040.6 1263.1 4035.62 1263.1 4030.65 1263.1 4026.62 1259.07 4026.62 1254.1 4026.62 1249.13 4030.65 1245.1 4035.62 1245.1 4040.6 1245.1 4044.62 1249.13 4044.62 1254.1Z" fill="#1F4E79"/><path d="M4050.62 1003.1C4050.62 1008.07 4046.6 1012.1 4041.62 1012.1 4036.65 1012.1 4032.62 1008.07 4032.62 1003.1 4032.62 998.133 4036.65 994.104 4041.62 994.104 4046.6 994.104 4050.62 998.133 4050.62 1003.1Z" fill="#1F4E79"/><path d="M4061.62 1003.1C4061.62 1008.07 4057.6 1012.1 4052.62 1012.1 4047.65 1012.1 4043.62 1008.07 4043.62 1003.1 4043.62 998.133 4047.65 994.104 4052.62 994.104 4057.6 994.104 4061.62 998.133 4061.62 1003.1Z" fill="#1F4E79"/><path d="M4067.62 991.104C4067.62 996.075 4063.6 1000.1 4058.62 1000.1 4053.65 1000.1 4049.62 996.075 4049.62 991.104 4049.62 986.133 4053.65 982.104 4058.62 982.104 4063.6 982.104 4067.62 986.133 4067.62 991.104Z" fill="#1F4E79"/><path d="M4073.62 966.104C4073.62 971.075 4069.6 975.104 4064.62 975.104 4059.65 975.104 4055.62 971.075 4055.62 966.104 4055.62 961.134 4059.65 957.104 4064.62 957.104 4069.6 957.104 4073.62 961.134 4073.62 966.104Z" fill="#1F4E79"/><path d="M4084.62 924.104C4084.62 929.075 4080.6 933.104 4075.62 933.104 4070.65 933.104 4066.62 929.075 4066.62 924.104 4066.62 919.134 4070.65 915.104 4075.62 915.104 4080.6 915.104 4084.62 919.134 4084.62 924.104Z" fill="#1F4E79"/><path d="M4108.62 607.104C4108.62 612.075 4104.6 616.104 4099.62 616.104 4094.65 616.104 4090.62 612.075 4090.62 607.104 4090.62 602.133 4094.65 598.104 4099.62 598.104 4104.6 598.104 4108.62 602.133 4108.62 607.104Z" fill="#1F4E79"/><path d="M4125.62 617.104C4125.62 622.075 4121.6 626.104 4116.62 626.104 4111.65 626.104 4107.62 622.075 4107.62 617.104 4107.62 612.133 4111.65 608.104 4116.62 608.104 4121.6 608.104 4125.62 612.133 4125.62 617.104Z" fill="#1F4E79"/><path d="M4142.62 621.104C4142.62 626.075 4138.6 630.104 4133.62 630.104 4128.65 630.104 4124.62 626.075 4124.62 621.104 4124.62 616.134 4128.65 612.104 4133.62 612.104 4138.6 612.104 4142.62 616.134 4142.62 621.104Z" fill="#1F4E79"/><path d="M4819.62 836.104C4819.62 841.075 4815.6 845.104 4810.62 845.104 4805.65 845.104 4801.62 841.075 4801.62 836.104 4801.62 831.134 4805.65 827.104 4810.62 827.104 4815.6 827.104 4819.62 831.134 4819.62 836.104Z" fill="#1F4E79"/><path d="M4842.62 841.104C4842.62 846.075 4838.6 850.104 4833.62 850.104 4828.65 850.104 4824.62 846.075 4824.62 841.104 4824.62 836.134 4828.65 832.104 4833.62 832.104 4838.6 832.104 4842.62 836.134 4842.62 841.104Z" fill="#1F4E79"/><path d="M4848.62 841.104C4848.62 846.075 4844.6 850.104 4839.62 850.104 4834.65 850.104 4830.62 846.075 4830.62 841.104 4830.62 836.134 4834.65 832.104 4839.62 832.104 4844.6 832.104 4848.62 836.134 4848.62 841.104Z" fill="#1F4E79"/><path d="M4854.62 825.104C4854.62 830.075 4850.6 834.104 4845.62 834.104 4840.65 834.104 4836.62 830.075 4836.62 825.104 4836.62 820.134 4840.65 816.104 4845.62 816.104 4850.6 816.104 4854.62 820.134 4854.62 825.104Z" fill="#1F4E79"/><path d="M4917.62 1017.1C4917.62 1022.07 4913.6 1026.1 4908.62 1026.1 4903.65 1026.1 4899.62 1022.07 4899.62 1017.1 4899.62 1012.13 4903.65 1008.1 4908.62 1008.1 4913.6 1008.1 4917.62 1012.13 4917.62 1017.1Z" fill="#1F4E79"/><path d="M4923.62 1085.1C4923.62 1090.07 4919.6 1094.1 4914.62 1094.1 4909.65 1094.1 4905.62 1090.07 4905.62 1085.1 4905.62 1080.13 4909.65 1076.1 4914.62 1076.1 4919.6 1076.1 4923.62 1080.13 4923.62 1085.1Z" fill="#1F4E79"/><path d="M4929.62 1054.1C4929.62 1059.07 4925.6 1063.1 4920.62 1063.1 4915.65 1063.1 4911.62 1059.07 4911.62 1054.1 4911.62 1049.13 4915.65 1045.1 4920.62 1045.1 4925.6 1045.1 4929.62 1049.13 4929.62 1054.1Z" fill="#1F4E79"/><path d="M4935.62 1018.1C4935.62 1023.07 4931.6 1027.1 4926.62 1027.1 4921.65 1027.1 4917.62 1023.07 4917.62 1018.1 4917.62 1013.13 4921.65 1009.1 4926.62 1009.1 4931.6 1009.1 4935.62 1013.13 4935.62 1018.1Z" fill="#1F4E79"/><path d="M4940.62 1059.1C4940.62 1064.07 4936.6 1068.1 4931.62 1068.1 4926.65 1068.1 4922.62 1064.07 4922.62 1059.1 4922.62 1054.13 4926.65 1050.1 4931.62 1050.1 4936.6 1050.1 4940.62 1054.13 4940.62 1059.1Z" fill="#1F4E79"/><path d="M4981.62 597.104C4981.62 602.075 4977.6 606.104 4972.62 606.104 4967.65 606.104 4963.62 602.075 4963.62 597.104 4963.62 592.134 4967.65 588.104 4972.62 588.104 4977.6 588.104 4981.62 592.134 4981.62 597.104Z" fill="#1F4E79"/><path d="M4987.62 581.104C4987.62 586.075 4983.6 590.104 4978.62 590.104 4973.65 590.104 4969.62 586.075 4969.62 581.104 4969.62 576.134 4973.65 572.104 4978.62 572.104 4983.6 572.104 4987.62 576.134 4987.62 581.104Z" fill="#1F4E79"/><path d="M4992.62 1119.1C4992.62 1124.07 4988.6 1128.1 4983.62 1128.1 4978.65 1128.1 4974.62 1124.07 4974.62 1119.1 4974.62 1114.13 4978.65 1110.1 4983.62 1110.1 4988.6 1110.1 4992.62 1114.13 4992.62 1119.1Z" fill="#1F4E79"/><path d="M4998.62 1235.1C4998.62 1240.07 4994.6 1244.1 4989.62 1244.1 4984.65 1244.1 4980.62 1240.07 4980.62 1235.1 4980.62 1230.13 4984.65 1226.1 4989.62 1226.1 4994.6 1226.1 4998.62 1230.13 4998.62 1235.1Z" fill="#1F4E79"/><path d="M5004.62 1127.1C5004.62 1132.07 5000.6 1136.1 4995.62 1136.1 4990.65 1136.1 4986.62 1132.07 4986.62 1127.1 4986.62 1122.13 4990.65 1118.1 4995.62 1118.1 5000.6 1118.1 5004.62 1122.13 5004.62 1127.1Z" fill="#1F4E79"/><path d="M5010.62 1137.1C5010.62 1142.07 5006.6 1146.1 5001.62 1146.1 4996.65 1146.1 4992.62 1142.07 4992.62 1137.1 4992.62 1132.13 4996.65 1128.1 5001.62 1128.1 5006.6 1128.1 5010.62 1132.13 5010.62 1137.1Z" fill="#1F4E79"/><path d="M5016.62 1152.1C5016.62 1157.07 5012.6 1161.1 5007.62 1161.1 5002.65 1161.1 4998.62 1157.07 4998.62 1152.1 4998.62 1147.13 5002.65 1143.1 5007.62 1143.1 5012.6 1143.1 5016.62 1147.13 5016.62 1152.1Z" fill="#1F4E79"/><path d="M5021.62 1128.1C5021.62 1133.07 5017.6 1137.1 5012.62 1137.1 5007.65 1137.1 5003.62 1133.07 5003.62 1128.1 5003.62 1123.13 5007.65 1119.1 5012.62 1119.1 5017.6 1119.1 5021.62 1123.13 5021.62 1128.1Z" fill="#1F4E79"/><path d="M5027.62 1071.1C5027.62 1076.07 5023.6 1080.1 5018.62 1080.1 5013.65 1080.1 5009.62 1076.07 5009.62 1071.1 5009.62 1066.13 5013.65 1062.1 5018.62 1062.1 5023.6 1062.1 5027.62 1066.13 5027.62 1071.1Z" fill="#1F4E79"/><path d="M5033.62 1129.1C5033.62 1134.07 5029.6 1138.1 5024.62 1138.1 5019.65 1138.1 5015.62 1134.07 5015.62 1129.1 5015.62 1124.13 5019.65 1120.1 5024.62 1120.1 5029.6 1120.1 5033.62 1124.13 5033.62 1129.1Z" fill="#1F4E79"/><path d="M5039.62 1170.1C5039.62 1175.07 5035.6 1179.1 5030.62 1179.1 5025.65 1179.1 5021.62 1175.07 5021.62 1170.1 5021.62 1165.13 5025.65 1161.1 5030.62 1161.1 5035.6 1161.1 5039.62 1165.13 5039.62 1170.1Z" fill="#1F4E79"/><path d="M5044.62 1136.1C5044.62 1141.07 5040.6 1145.1 5035.62 1145.1 5030.65 1145.1 5026.62 1141.07 5026.62 1136.1 5026.62 1131.13 5030.65 1127.1 5035.62 1127.1 5040.6 1127.1 5044.62 1131.13 5044.62 1136.1Z" fill="#1F4E79"/><path d="M5050.62 1154.1C5050.62 1159.07 5046.6 1163.1 5041.62 1163.1 5036.65 1163.1 5032.62 1159.07 5032.62 1154.1 5032.62 1149.13 5036.65 1145.1 5041.62 1145.1 5046.6 1145.1 5050.62 1149.13 5050.62 1154.1Z" fill="#1F4E79"/><path d="M5056.62 1155.1C5056.62 1160.07 5052.6 1164.1 5047.62 1164.1 5042.65 1164.1 5038.62 1160.07 5038.62 1155.1 5038.62 1150.13 5042.65 1146.1 5047.62 1146.1 5052.6 1146.1 5056.62 1150.13 5056.62 1155.1Z" fill="#1F4E79"/><path d="M5068.62 1268.1C5068.62 1273.07 5064.6 1277.1 5059.62 1277.1 5054.65 1277.1 5050.62 1273.07 5050.62 1268.1 5050.62 1263.13 5054.65 1259.1 5059.62 1259.1 5064.6 1259.1 5068.62 1263.13 5068.62 1268.1Z" fill="#1F4E79"/><path d="M5073.62 1256.1C5073.62 1261.07 5069.6 1265.1 5064.62 1265.1 5059.65 1265.1 5055.62 1261.07 5055.62 1256.1 5055.62 1251.13 5059.65 1247.1 5064.62 1247.1 5069.6 1247.1 5073.62 1251.13 5073.62 1256.1Z" fill="#1F4E79"/><path d="M5079.62 1291.1C5079.62 1296.07 5075.6 1300.1 5070.62 1300.1 5065.65 1300.1 5061.62 1296.07 5061.62 1291.1 5061.62 1286.13 5065.65 1282.1 5070.62 1282.1 5075.6 1282.1 5079.62 1286.13 5079.62 1291.1Z" fill="#1F4E79"/></g><g clip-path="url(#clip6)"><path d="M3743.62 1382.1C3743.62 1387.07 3739.6 1391.1 3734.62 1391.1 3729.65 1391.1 3725.62 1387.07 3725.62 1382.1 3725.62 1377.13 3729.65 1373.1 3734.62 1373.1 3739.6 1373.1 3743.62 1377.13 3743.62 1382.1Z" fill="#C00000"/><path d="M4131.62 549.104C4131.62 554.075 4127.6 558.104 4122.62 558.104 4117.65 558.104 4113.62 554.075 4113.62 549.104 4113.62 544.134 4117.65 540.104 4122.62 540.104 4127.6 540.104 4131.62 544.134 4131.62 549.104Z" fill="#C00000"/></g><g clip-path="url(#clip7)"><text fill="#7F7F7F" font-family="Calibri,Calibri_MSFontService,sans-serif" font-weight="400" font-size="55" transform="matrix(1 0 0 1 3073.81 1498)">-11</text></g><g clip-path="url(#clip8)"><text fill="#7F7F7F" font-family="Calibri,Calibri_MSFontService,sans-serif" font-weight="400" font-size="55" transform="matrix(1 0 0 1 3073.81 1428)">-10</text></g><g clip-path="url(#clip9)"><text fill="#7F7F7F" font-family="Calibri,Calibri_MSFontService,sans-serif" font-weight="400" font-size="55" transform="matrix(1 0 0 1 3101.68 1357)">-9</text></g><g clip-path="url(#clip10)"><text fill="#7F7F7F" font-family="Calibri,Calibri_MSFontService,sans-serif" font-weight="400" font-size="55" transform="matrix(1 0 0 1 3101.68 1286)">-8</text></g><g clip-path="url(#clip11)"><text fill="#7F7F7F" font-family="Calibri,Calibri_MSFontService,sans-serif" font-weight="400" font-size="55" transform="matrix(1 0 0 1 3101.68 1216)">-7</text></g><g clip-path="url(#clip12)"><text fill="#7F7F7F" font-family="Calibri,Calibri_MSFontService,sans-serif" font-weight="400" font-size="55" transform="matrix(1 0 0 1 3101.68 1145)">-6</text></g><g clip-path="url(#clip13)"><text fill="#7F7F7F" font-family="Calibri,Calibri_MSFontService,sans-serif" font-weight="400" font-size="55" transform="matrix(1 0 0 1 3101.68 1074)">-5</text></g><g clip-path="url(#clip14)"><text fill="#7F7F7F" font-family="Calibri,Calibri_MSFontService,sans-serif" font-weight="400" font-size="55" transform="matrix(1 0 0 1 3101.68 1003)">-4</text></g><g clip-path="url(#clip15)"><text fill="#7F7F7F" font-family="Calibri,Calibri_MSFontService,sans-serif" font-weight="400" font-size="55" transform="matrix(1 0 0 1 3101.68 933)">-3</text></g><g clip-path="url(#clip16)"><text fill="#7F7F7F" font-family="Calibri,Calibri_MSFontService,sans-serif" font-weight="400" font-size="55" transform="matrix(1 0 0 1 3101.68 862)">-2</text></g><g clip-path="url(#clip17)"><text fill="#7F7F7F" font-family="Calibri,Calibri_MSFontService,sans-serif" font-weight="400" font-size="55" transform="matrix(1 0 0 1 3101.68 791)">-1</text></g><g clip-path="url(#clip18)"><text fill="#7F7F7F" font-family="Calibri,Calibri_MSFontService,sans-serif" font-weight="400" font-size="55" transform="matrix(1 0 0 1 3118.52 721)">0</text></g><g clip-path="url(#clip19)"><text fill="#7F7F7F" font-family="Calibri,Calibri_MSFontService,sans-serif" font-weight="400" font-size="55" transform="matrix(1 0 0 1 3118.52 650)">1</text></g><g clip-path="url(#clip20)"><text fill="#7F7F7F" font-family="Calibri,Calibri_MSFontService,sans-serif" font-weight="400" font-size="55" transform="matrix(1 0 0 1 3118.52 579)">2</text></g><g clip-path="url(#clip21)"><text fill="#7F7F7F" font-family="Calibri,Calibri_MSFontService,sans-serif" font-weight="400" font-size="55" transform="matrix(1 0 0 1 3118.52 508)">3</text></g><g clip-path="url(#clip22)"><text fill="#7F7F7F" font-family="Calibri,Calibri_MSFontService,sans-serif" font-weight="700" font-size="55" transform="matrix(6.12323e-17 -1 1 6.12323e-17 3044.91 1190)">Laufzeitverhältnis</text></g><g clip-path="url(#clip23)"><text fill="#7F7F7F" font-family="Calibri,Calibri_MSFontService,sans-serif" font-weight="700" font-size="55" transform="matrix(1 0 0 1 4055.4 1542)">Testinstanzen</text></g><g clip-path="url(#clip24)"><path d="M3631 389C3631 393.971 3626.97 398 3622 398 3617.03 398 3613 393.971 3613 389 3613 384.029 3617.03 380 3622 380 3626.97 380 3631 384.029 3631 389Z" fill="#BFBFBF"/></g><g clip-path="url(#clip25)"><text fill="#7F7F7F" font-family="Calibri,Calibri_MSFontService,sans-serif" font-weight="400" font-size="55" transform="matrix(1 0 0 1 3651.39 405)">0.1s &lt; </text></g><g clip-path="url(#clip26)"><text fill="#7F7F7F" font-family="Calibri,Calibri_MSFontService,sans-serif" font-weight="400" font-size="55" transform="matrix(1 0 0 1 3794.81 405)">Δ</text></g><g clip-path="url(#clip27)"><text fill="#7F7F7F" font-family="Calibri,Calibri_MSFontService,sans-serif" font-weight="400" font-size="55" transform="matrix(1 0 0 1 3825.86 405)">t ≤ 1s</text></g><g clip-path="url(#clip28)"><path d="M4033 389C4033 393.971 4028.97 398 4024 398 4019.03 398 4015 393.971 4015 389 4015 384.029 4019.03 380 4024 380 4028.97 380 4033 384.029 4033 389Z" fill="#1F4E79"/></g><g clip-path="url(#clip29)"><text fill="#7F7F7F" font-family="Calibri,Calibri_MSFontService,sans-serif" font-weight="400" font-size="55" transform="matrix(1 0 0 1 4053.15 405)">1s &lt; </text></g><g clip-path="url(#clip30)"><text fill="#7F7F7F" font-family="Calibri,Calibri_MSFontService,sans-serif" font-weight="400" font-size="55" transform="matrix(1 0 0 1 4154.81 405)">Δ</text></g><g clip-path="url(#clip31)"><text fill="#7F7F7F" font-family="Calibri,Calibri_MSFontService,sans-serif" font-weight="400" font-size="55" transform="matrix(1 0 0 1 4185.86 405)">t ≤ 60s</text></g><g clip-path="url(#clip32)"><path d="M4421 389C4421 393.971 4416.97 398 4412 398 4407.03 398 4403 393.971 4403 389 4403 384.029 4407.03 380 4412 380 4416.97 380 4421 384.029 4421 389Z" fill="#C00000"/></g><g clip-path="url(#clip33)"><text fill="#7F7F7F" font-family="Calibri,Calibri_MSFontService,sans-serif" font-weight="400" font-size="55" transform="matrix(1 0 0 1 4441.01 405)">60s &lt; </text></g><g clip-path="url(#clip34)"><text fill="#7F7F7F" font-family="Calibri,Calibri_MSFontService,sans-serif" font-weight="400" font-size="55" transform="matrix(1 0 0 1 4570.54 405)">Δ</text></g><g clip-path="url(#clip35)"><text fill="#7F7F7F" font-family="Calibri,Calibri_MSFontService,sans-serif" font-weight="400" font-size="55" transform="matrix(1 0 0 1 4601.59 405)">t</text></g><rect x="2936.5" y="315.5" width="2336" height="1299" stroke="#D9D9D9" stroke-width="3.4375" stroke-linejoin="round" stroke-miterlimit="10" fill="none"/></g></svg>