<svg width="1172" height="1043" xmlns="http://www.w3.org/2000/svg" xmlns:xlink="http://www.w3.org/1999/xlink" overflow="hidden"><defs><clipPath id="clip0"><rect x="1481" y="815" width="1172" height="1043"/></clipPath><radialGradient cx="1.6196e+06" cy="1.44087e+06" r="2.16777e+06" gradientUnits="userSpaceOnUse" spreadMethod="pad" id="fill1" gradientTransform="matrix(0.000360892 0 0 0.000360892 1482 816)"><stop offset="0" stop-color="#FFFFFF"/><stop offset="0.43" stop-color="#FFFFFF"/><stop offset="1" stop-color="#F2F2F2"/></radialGradient><clipPath id="clip2"><rect x="1481" y="816" width="1169" height="1039"/></clipPath><clipPath id="clip3"><rect x="1481" y="816" width="1169" height="1039"/></clipPath><clipPath id="clip4"><rect x="1481" y="816" width="1169" height="1039"/></clipPath><clipPath id="clip5"><rect x="1481" y="816" width="1169" height="1039"/></clipPath><clipPath id="clip6"><rect x="1481" y="816" width="1169" height="1039"/></clipPath><clipPath id="clip7"><rect x="1481" y="816" width="1169" height="1039"/></clipPath><clipPath id="clip8"><rect x="1481" y="816" width="1169" height="1039"/></clipPath><clipPath id="clip9"><rect x="1481" y="816" width="1169" height="1039"/></clipPath><clipPath id="clip10"><rect x="1481" y="816" width="1169" height="1039"/></clipPath><clipPath id="clip11"><rect x="1481" y="816" width="1169" height="1039"/></clipPath><clipPath id="clip12"><rect x="1481" y="816" width="1169" height="1039"/></clipPath><clipPath id="clip13"><rect x="1481" y="816" width="1169" height="1039"/></clipPath><clipPath id="clip14"><rect x="1481" y="816" width="1169" height="1039"/></clipPath><clipPath id="clip15"><rect x="1481" y="816" width="1169" height="1039"/></clipPath><clipPath id="clip16"><rect x="1481" y="816" width="1169" height="1039"/></clipPath><clipPath id="clip17"><rect x="1481" y="816" width="1169" height="1039"/></clipPath><clipPath id="clip18"><rect x="1481" y="816" width="1169" height="1039"/></clipPath><clipPath id="clip19"><rect x="1481" y="816" width="1169" height="1039"/></clipPath><clipPath id="clip20"><rect x="1481" y="816" width="1169" height="1039"/></clipPath><clipPath id="clip21"><rect x="1481" y="816" width="1169" height="1039"/></clipPath><clipPath id="clip22"><rect x="1481" y="816" width="1169" height="1039"/></clipPath><clipPath id="clip23"><rect x="1481" y="816" width="1169" height="1039"/></clipPath><clipPath id="clip24"><rect x="1481" y="816" width="1169" height="1039"/></clipPath></defs><g clip-path="url(#clip0)" transform="translate(-1481 -815)"><rect x="1482" y="816" width="1169" height="1040" fill="url(#fill1)"/><g clip-path="url(#clip2)"><path d="M1607.5 1799.5 2579.5 1799.5M1607.5 1696.56 2579.5 1696.56M1607.5 1593.55 2579.5 1593.55M1607.5 1490.55 2579.5 1490.55M1607.5 1387.55 2579.5 1387.55M1607.5 1284.54 2579.5 1284.54M1607.5 1078.54 2579.5 1078.54M1607.5 975.532 2579.5 975.532M1607.5 872.5 2579.5 872.5" stroke="#D9D9D9" stroke-width="3.4375" stroke-linejoin="round" stroke-miterlimit="10" fill="none"/></g><g clip-path="url(#clip3)"><path d="M1607.5 872.5 1607.5 1799.5M1766.56 872.5 1766.56 1799.5M1925.56 872.5 1925.56 1799.5M2084.57 872.5 2084.57 1799.5M2243.57 872.5 2243.57 1799.5M2402.58 872.5 2402.58 1799.5M2561.5 872.5 2561.5 1799.5" stroke="#D9D9D9" stroke-width="3.4375" stroke-linejoin="round" stroke-miterlimit="10" fill="none"/></g><g clip-path="url(#clip4)"><path d="M1607.5 1181.5 2579.5 1181.5" stroke="#000000" stroke-width="11.4583" stroke-linejoin="round" stroke-miterlimit="10" fill="none" fill-rule="evenodd"/></g><g clip-path="url(#clip5)"><path d="M2322.56 1076.41C2322.56 1081.38 2318.53 1085.41 2313.56 1085.41 2308.59 1085.41 2304.56 1081.38 2304.56 1076.41 2304.56 1071.44 2308.59 1067.41 2313.56 1067.41 2318.53 1067.41 2322.56 1071.44 2322.56 1076.41Z" fill="#BFBFBF"/><path d="M2340.56 1076.41C2340.56 1081.38 2336.53 1085.41 2331.56 1085.41 2326.59 1085.41 2322.56 1081.38 2322.56 1076.41 2322.56 1071.44 2326.59 1067.41 2331.56 1067.41 2336.53 1067.41 2340.56 1071.44 2340.56 1076.41Z" fill="#BFBFBF"/><path d="M2375.56 1314.41C2375.56 1319.38 2371.53 1323.41 2366.56 1323.41 2361.59 1323.41 2357.56 1319.38 2357.56 1314.41 2357.56 1309.44 2361.59 1305.41 2366.56 1305.41 2371.53 1305.41 2375.56 1309.44 2375.56 1314.41Z" fill="#BFBFBF"/><path d="M2393.56 1359.41C2393.56 1364.38 2389.53 1368.41 2384.56 1368.41 2379.59 1368.41 2375.56 1364.38 2375.56 1359.41 2375.56 1354.44 2379.59 1350.41 2384.56 1350.41 2389.53 1350.41 2393.56 1354.44 2393.56 1359.41Z" fill="#BFBFBF"/><path d="M2411.56 1583.41C2411.56 1588.38 2407.53 1592.41 2402.56 1592.41 2397.59 1592.41 2393.56 1588.38 2393.56 1583.41 2393.56 1578.44 2397.59 1574.41 2402.56 1574.41 2407.53 1574.41 2411.56 1578.44 2411.56 1583.41Z" fill="#BFBFBF"/></g><g clip-path="url(#clip6)"><path d="M2269.56 1021.41C2269.56 1026.38 2265.53 1030.41 2260.56 1030.41 2255.59 1030.41 2251.56 1026.38 2251.56 1021.41 2251.56 1016.44 2255.59 1012.41 2260.56 1012.41 2265.53 1012.41 2269.56 1016.44 2269.56 1021.41Z" fill="#1F4E79"/><path d="M2358.56 1338.41C2358.56 1343.38 2354.53 1347.41 2349.56 1347.41 2344.59 1347.41 2340.56 1343.38 2340.56 1338.41 2340.56 1333.44 2344.59 1329.41 2349.56 1329.41 2354.53 1329.41 2358.56 1333.44 2358.56 1338.41Z" fill="#1F4E79"/><path d="M2534.56 1417.41C2534.56 1422.38 2530.53 1426.41 2525.56 1426.41 2520.59 1426.41 2516.56 1422.38 2516.56 1417.41 2516.56 1412.44 2520.59 1408.41 2525.56 1408.41 2530.53 1408.41 2534.56 1412.44 2534.56 1417.41Z" fill="#1F4E79"/><path d="M2552.56 1671.41C2552.56 1676.38 2548.53 1680.41 2543.56 1680.41 2538.59 1680.41 2534.56 1676.38 2534.56 1671.41 2534.56 1666.44 2538.59 1662.41 2543.56 1662.41 2548.53 1662.41 2552.56 1666.44 2552.56 1671.41Z" fill="#1F4E79"/><path d="M2570.56 1575.41C2570.56 1580.38 2566.53 1584.41 2561.56 1584.41 2556.59 1584.41 2552.56 1580.38 2552.56 1575.41 2552.56 1570.44 2556.59 1566.41 2561.56 1566.41 2566.53 1566.41 2570.56 1570.44 2570.56 1575.41Z" fill="#1F4E79"/></g><g clip-path="url(#clip7)"><path d="M2287.56 922.406C2287.56 927.376 2283.53 931.406 2278.56 931.406 2273.59 931.406 2269.56 927.376 2269.56 922.406 2269.56 917.435 2273.59 913.406 2278.56 913.406 2283.53 913.406 2287.56 917.435 2287.56 922.406Z" fill="#C00000"/><path d="M2305.56 918.406C2305.56 923.376 2301.53 927.406 2296.56 927.406 2291.59 927.406 2287.56 923.376 2287.56 918.406 2287.56 913.435 2291.59 909.406 2296.56 909.406 2301.53 909.406 2305.56 913.435 2305.56 918.406Z" fill="#C00000"/><path d="M2517.56 1374.41C2517.56 1379.38 2513.53 1383.41 2508.56 1383.41 2503.59 1383.41 2499.56 1379.38 2499.56 1374.41 2499.56 1369.44 2503.59 1365.41 2508.56 1365.41 2513.53 1365.41 2517.56 1369.44 2517.56 1374.41Z" fill="#C00000"/></g><g clip-path="url(#clip8)"><text fill="#7F7F7F" font-family="Calibri,Calibri_MSFontService,sans-serif" font-weight="400" font-size="55" transform="matrix(1 0 0 1 1511.35 1815)">-6</text></g><g clip-path="url(#clip9)"><text fill="#7F7F7F" font-family="Calibri,Calibri_MSFontService,sans-serif" font-weight="400" font-size="55" transform="matrix(1 0 0 1 1511.35 1712)">-5</text></g><g clip-path="url(#clip10)"><text fill="#7F7F7F" font-family="Calibri,Calibri_MSFontService,sans-serif" font-weight="400" font-size="55" transform="matrix(1 0 0 1 1511.35 1609)">-4</text></g><g clip-path="url(#clip11)"><text fill="#7F7F7F" font-family="Calibri,Calibri_MSFontService,sans-serif" font-weight="400" font-size="55" transform="matrix(1 0 0 1 1511.35 1506)">-3</text></g><g clip-path="url(#clip12)"><text fill="#7F7F7F" font-family="Calibri,Calibri_MSFontService,sans-serif" font-weight="400" font-size="55" transform="matrix(1 0 0 1 1511.35 1403)">-2</text></g><g clip-path="url(#clip13)"><text fill="#7F7F7F" font-family="Calibri,Calibri_MSFontService,sans-serif" font-weight="400" font-size="55" transform="matrix(1 0 0 1 1511.35 1300)">-1</text></g><g clip-path="url(#clip14)"><text fill="#7F7F7F" font-family="Calibri,Calibri_MSFontService,sans-serif" font-weight="400" font-size="55" transform="matrix(1 0 0 1 1528.2 1197)">0</text></g><g clip-path="url(#clip15)"><text fill="#7F7F7F" font-family="Calibri,Calibri_MSFontService,sans-serif" font-weight="400" font-size="55" transform="matrix(1 0 0 1 1528.2 1094)">1</text></g><g clip-path="url(#clip16)"><text fill="#7F7F7F" font-family="Calibri,Calibri_MSFontService,sans-serif" font-weight="400" font-size="55" transform="matrix(1 0 0 1 1528.2 991)">2</text></g><g clip-path="url(#clip17)"><text fill="#7F7F7F" font-family="Calibri,Calibri_MSFontService,sans-serif" font-weight="400" font-size="55" transform="matrix(1 0 0 1 1528.2 888)">3</text></g><g clip-path="url(#clip18)"><text fill="#7F7F7F" font-family="Calibri,Calibri_MSFontService,sans-serif" font-weight="400" font-size="41" transform="matrix(1 0 0 1 1596.64 1247)"></text></g><g clip-path="url(#clip19)"><text fill="#7F7F7F" font-family="Calibri,Calibri_MSFontService,sans-serif" font-weight="400" font-size="41" transform="matrix(1 0 0 1 1670 1247)">16</text></g><g clip-path="url(#clip20)"><text fill="#7F7F7F" font-family="Calibri,Calibri_MSFontService,sans-serif" font-weight="400" font-size="41" transform="matrix(1 0 0 1 1825 1247)">32</text></g><g clip-path="url(#clip21)"><text fill="#7F7F7F" font-family="Calibri,Calibri_MSFontService,sans-serif" font-weight="400" font-size="41" transform="matrix(1 0 0 1 1985 1247)">64</text></g><g clip-path="url(#clip22)"><text fill="#7F7F7F" font-family="Calibri,Calibri_MSFontService,sans-serif" font-weight="400" font-size="41" transform="matrix(1 0 0 1 2135 1247)">128</text></g><g clip-path="url(#clip23)"><text fill="#7F7F7F" font-family="Calibri,Calibri_MSFontService,sans-serif" font-weight="400" font-size="41" transform="matrix(1 0 0 1 2290 1247)">256</text></g><g clip-path="url(#clip24)"><text fill="#7F7F7F" font-family="Calibri,Calibri_MSFontService,sans-serif" font-weight="400" font-size="41" transform="matrix(1 0 0 1 2455 1247)">512</text></g><rect x="1482.5" y="816.5" width="1169" height="1040" stroke="#D9D9D9" stroke-width="3.4375" stroke-linejoin="round" stroke-miterlimit="10" fill="none"/></g></svg>