<svg width="1172" height="1043" xmlns="http://www.w3.org/2000/svg" xmlns:xlink="http://www.w3.org/1999/xlink" overflow="hidden"><defs><clipPath id="clip0"><rect x="1634" y="681" width="1172" height="1043"/></clipPath><radialGradient cx="1.6196e+06" cy="1.44087e+06" r="2.16777e+06" gradientUnits="userSpaceOnUse" spreadMethod="pad" id="fill1" gradientTransform="matrix(0.000360892 0 0 0.000360892 1635 682)"><stop offset="0" stop-color="#FFFFFF"/><stop offset="0.43" stop-color="#FFFFFF"/><stop offset="1" stop-color="#F2F2F2"/></radialGradient><clipPath id="clip2"><rect x="1634" y="682" width="1169" height="1039"/></clipPath><clipPath id="clip3"><rect x="1634" y="682" width="1169" height="1039"/></clipPath><clipPath id="clip4"><rect x="1634" y="682" width="1169" height="1039"/></clipPath><clipPath id="clip5"><rect x="1634" y="682" width="1169" height="1039"/></clipPath><clipPath id="clip6"><rect x="1634" y="682" width="1169" height="1039"/></clipPath><clipPath id="clip7"><rect x="1634" y="682" width="1169" height="1039"/></clipPath><clipPath id="clip8"><rect x="1634" y="682" width="1169" height="1039"/></clipPath><clipPath id="clip9"><rect x="1634" y="682" width="1169" height="1039"/></clipPath><clipPath id="clip10"><rect x="1634" y="682" width="1169" height="1039"/></clipPath><clipPath id="clip11"><rect x="1634" y="682" width="1169" height="1039"/></clipPath><clipPath id="clip12"><rect x="1634" y="682" width="1169" height="1039"/></clipPath><clipPath id="clip13"><rect x="1634" y="682" width="1169" height="1039"/></clipPath><clipPath id="clip14"><rect x="1634" y="682" width="1169" height="1039"/></clipPath><clipPath id="clip15"><rect x="1634" y="682" width="1169" height="1039"/></clipPath><clipPath id="clip16"><rect x="1634" y="682" width="1169" height="1039"/></clipPath><clipPath id="clip17"><rect x="1634" y="682" width="1169" height="1039"/></clipPath><clipPath id="clip18"><rect x="1634" y="682" width="1169" height="1039"/></clipPath><clipPath id="clip19"><rect x="1634" y="682" width="1169" height="1039"/></clipPath><clipPath id="clip20"><rect x="1634" y="682" width="1169" height="1039"/></clipPath><clipPath id="clip21"><rect x="1634" y="682" width="1169" height="1039"/></clipPath><clipPath id="clip22"><rect x="1634" y="682" width="1169" height="1039"/></clipPath><clipPath id="clip23"><rect x="1634" y="682" width="1169" height="1039"/></clipPath></defs><g clip-path="url(#clip0)" transform="translate(-1634 -681)"><rect x="1635" y="682" width="1169" height="1040" fill="url(#fill1)"/><g clip-path="url(#clip2)"><path d="M1760.5 1665.5 2732.5 1665.5M1760.5 1549.55 2732.5 1549.55M1760.5 1433.55 2732.5 1433.55M1760.5 1317.54 2732.5 1317.54M1760.5 1201.54 2732.5 1201.54M1760.5 970.532 2732.5 970.532M1760.5 854.528 2732.5 854.528M1760.5 738.5 2732.5 738.5" stroke="#D9D9D9" stroke-width="3.4375" stroke-linejoin="round" stroke-miterlimit="10" fill="none"/></g><g clip-path="url(#clip3)"><path d="M1760.5 738.5 1760.5 1665.5M1919.56 738.5 1919.56 1665.5M2078.57 738.5 2078.57 1665.5M2237.57 738.5 2237.57 1665.5M2396.58 738.5 2396.58 1665.5M2555.58 738.5 2555.58 1665.5M2714.5 738.5 2714.5 1665.5" stroke="#D9D9D9" stroke-width="3.4375" stroke-linejoin="round" stroke-miterlimit="10" fill="none"/></g><g clip-path="url(#clip4)"><path d="M1760.5 1086.5 2732.5 1086.5" stroke="#000000" stroke-width="11.4583" stroke-linejoin="round" stroke-miterlimit="10" fill="none" fill-rule="evenodd"/></g><g clip-path="url(#clip5)"><path d="M2475.53 939.343C2475.53 944.314 2471.5 948.343 2466.53 948.343 2461.56 948.343 2457.53 944.314 2457.53 939.343 2457.53 934.373 2461.56 930.343 2466.53 930.343 2471.5 930.343 2475.53 934.373 2475.53 939.343Z" fill="#BFBFBF"/><path d="M2493.53 952.343C2493.53 957.314 2489.5 961.343 2484.53 961.343 2479.56 961.343 2475.53 957.314 2475.53 952.343 2475.53 947.373 2479.56 943.343 2484.53 943.343 2489.5 943.343 2493.53 947.373 2493.53 952.343Z" fill="#BFBFBF"/><path d="M2511.53 1235.34C2511.53 1240.31 2507.5 1244.34 2502.53 1244.34 2497.56 1244.34 2493.53 1240.31 2493.53 1235.34 2493.53 1230.37 2497.56 1226.34 2502.53 1226.34 2507.5 1226.34 2511.53 1230.37 2511.53 1235.34Z" fill="#BFBFBF"/><path d="M2528.53 1226.34C2528.53 1231.31 2524.5 1235.34 2519.53 1235.34 2514.56 1235.34 2510.53 1231.31 2510.53 1226.34 2510.53 1221.37 2514.56 1217.34 2519.53 1217.34 2524.5 1217.34 2528.53 1221.37 2528.53 1226.34Z" fill="#BFBFBF"/><path d="M2546.53 1250.34C2546.53 1255.31 2542.5 1259.34 2537.53 1259.34 2532.56 1259.34 2528.53 1255.31 2528.53 1250.34 2528.53 1245.37 2532.56 1241.34 2537.53 1241.34 2542.5 1241.34 2546.53 1245.37 2546.53 1250.34Z" fill="#BFBFBF"/><path d="M2564.53 1560.34C2564.53 1565.31 2560.5 1569.34 2555.53 1569.34 2550.56 1569.34 2546.53 1565.31 2546.53 1560.34 2546.53 1555.37 2550.56 1551.34 2555.53 1551.34 2560.5 1551.34 2564.53 1555.37 2564.53 1560.34Z" fill="#BFBFBF"/></g><g clip-path="url(#clip6)"><path d="M2422.53 870.343C2422.53 875.314 2418.5 879.343 2413.53 879.343 2408.56 879.343 2404.53 875.314 2404.53 870.343 2404.53 865.373 2408.56 861.343 2413.53 861.343 2418.5 861.343 2422.53 865.373 2422.53 870.343Z" fill="#1F4E79"/><path d="M2687.53 1349.34C2687.53 1354.31 2683.5 1358.34 2678.53 1358.34 2673.56 1358.34 2669.53 1354.31 2669.53 1349.34 2669.53 1344.37 2673.56 1340.34 2678.53 1340.34 2683.5 1340.34 2687.53 1344.37 2687.53 1349.34Z" fill="#1F4E79"/><path d="M2705.53 1550.34C2705.53 1555.31 2701.5 1559.34 2696.53 1559.34 2691.56 1559.34 2687.53 1555.31 2687.53 1550.34 2687.53 1545.37 2691.56 1541.34 2696.53 1541.34 2701.5 1541.34 2705.53 1545.37 2705.53 1550.34Z" fill="#1F4E79"/><path d="M2723.53 1392.34C2723.53 1397.31 2719.5 1401.34 2714.53 1401.34 2709.56 1401.34 2705.53 1397.31 2705.53 1392.34 2705.53 1387.37 2709.56 1383.34 2714.53 1383.34 2719.5 1383.34 2723.53 1387.37 2723.53 1392.34Z" fill="#1F4E79"/></g><g clip-path="url(#clip7)"><path d="M2440.53 804.343C2440.53 809.314 2436.5 813.343 2431.53 813.343 2426.56 813.343 2422.53 809.314 2422.53 804.343 2422.53 799.373 2426.56 795.343 2431.53 795.343 2436.5 795.343 2440.53 799.373 2440.53 804.343Z" fill="#C00000"/><path d="M2458.53 788.343C2458.53 793.314 2454.5 797.343 2449.53 797.343 2444.56 797.343 2440.53 793.314 2440.53 788.343 2440.53 783.373 2444.56 779.344 2449.53 779.344 2454.5 779.344 2458.53 783.373 2458.53 788.343Z" fill="#C00000"/><path d="M2670.53 1276.34C2670.53 1281.31 2666.5 1285.34 2661.53 1285.34 2656.56 1285.34 2652.53 1281.31 2652.53 1276.34 2652.53 1271.37 2656.56 1267.34 2661.53 1267.34 2666.5 1267.34 2670.53 1271.37 2670.53 1276.34Z" fill="#C00000"/></g><g clip-path="url(#clip8)"><text fill="#7F7F7F" font-family="Calibri,Calibri_MSFontService,sans-serif" font-weight="400" font-size="55" transform="matrix(1 0 0 1 1664.32 1681)">-5</text></g><g clip-path="url(#clip9)"><text fill="#7F7F7F" font-family="Calibri,Calibri_MSFontService,sans-serif" font-weight="400" font-size="55" transform="matrix(1 0 0 1 1664.32 1565)">-4</text></g><g clip-path="url(#clip10)"><text fill="#7F7F7F" font-family="Calibri,Calibri_MSFontService,sans-serif" font-weight="400" font-size="55" transform="matrix(1 0 0 1 1664.32 1449)">-3</text></g><g clip-path="url(#clip11)"><text fill="#7F7F7F" font-family="Calibri,Calibri_MSFontService,sans-serif" font-weight="400" font-size="55" transform="matrix(1 0 0 1 1664.32 1333)">-2</text></g><g clip-path="url(#clip12)"><text fill="#7F7F7F" font-family="Calibri,Calibri_MSFontService,sans-serif" font-weight="400" font-size="55" transform="matrix(1 0 0 1 1664.32 1217)">-1</text></g><g clip-path="url(#clip13)"><text fill="#7F7F7F" font-family="Calibri,Calibri_MSFontService,sans-serif" font-weight="400" font-size="55" transform="matrix(1 0 0 1 1681.17 1102)">0</text></g><g clip-path="url(#clip14)"><text fill="#7F7F7F" font-family="Calibri,Calibri_MSFontService,sans-serif" font-weight="400" font-size="55" transform="matrix(1 0 0 1 1681.17 986)">1</text></g><g clip-path="url(#clip15)"><text fill="#7F7F7F" font-family="Calibri,Calibri_MSFontService,sans-serif" font-weight="400" font-size="55" transform="matrix(1 0 0 1 1681.17 870)">2</text></g><g clip-path="url(#clip16)"><text fill="#7F7F7F" font-family="Calibri,Calibri_MSFontService,sans-serif" font-weight="400" font-size="55" transform="matrix(1 0 0 1 1681.17 754)">3</text></g><g clip-path="url(#clip17)"><text fill="#7F7F7F" font-family="Calibri,Calibri_MSFontService,sans-serif" font-weight="400" font-size="41" transform="matrix(1 0 0 1 1749.61 1151)"></text></g><g clip-path="url(#clip18)"><text fill="#7F7F7F" font-family="Calibri,Calibri_MSFontService,sans-serif" font-weight="400" font-size="41" transform="matrix(1 0 0 1 1830 1151)">16</text></g><g clip-path="url(#clip19)"><text fill="#7F7F7F" font-family="Calibri,Calibri_MSFontService,sans-serif" font-weight="400" font-size="41" transform="matrix(1 0 0 1 1985 1151)">32</text></g><g clip-path="url(#clip20)"><text fill="#7F7F7F" font-family="Calibri,Calibri_MSFontService,sans-serif" font-weight="400" font-size="41" transform="matrix(1 0 0 1 2135 1151)">64</text></g><g clip-path="url(#clip21)"><text fill="#7F7F7F" font-family="Calibri,Calibri_MSFontService,sans-serif" font-weight="400" font-size="41" transform="matrix(1 0 0 1 2290 1151)">128</text></g><g clip-path="url(#clip22)"><text fill="#7F7F7F" font-family="Calibri,Calibri_MSFontService,sans-serif" font-weight="400" font-size="41" transform="matrix(1 0 0 1 2448 1151)">256</text></g><g clip-path="url(#clip23)"><text fill="#7F7F7F" font-family="Calibri,Calibri_MSFontService,sans-serif" font-weight="400" font-size="41" transform="matrix(1 0 0 1 2610 1151)">512</text></g><rect x="1635.5" y="682.5" width="1169" height="1040" stroke="#D9D9D9" stroke-width="3.4375" stroke-linejoin="round" stroke-miterlimit="10" fill="none"/></g></svg>