<svg width="1172" height="1043" xmlns="http://www.w3.org/2000/svg" xmlns:xlink="http://www.w3.org/1999/xlink" overflow="hidden"><defs><clipPath id="clip0"><rect x="1634" y="681" width="1172" height="1043"/></clipPath><radialGradient cx="1.6196e+06" cy="1.44087e+06" r="2.16777e+06" gradientUnits="userSpaceOnUse" spreadMethod="pad" id="fill1" gradientTransform="matrix(0.000360892 0 0 0.000360892 1635 682)"><stop offset="0" stop-color="#FFFFFF"/><stop offset="0.43" stop-color="#FFFFFF"/><stop offset="1" stop-color="#F2F2F2"/></radialGradient><clipPath id="clip2"><rect x="1634" y="682" width="1169" height="1039"/></clipPath><clipPath id="clip3"><rect x="1634" y="682" width="1169" height="1039"/></clipPath><clipPath id="clip4"><rect x="1634" y="682" width="1169" height="1039"/></clipPath><clipPath id="clip5"><rect x="1634" y="682" width="1169" height="1039"/></clipPath><clipPath id="clip6"><rect x="1634" y="682" width="1169" height="1039"/></clipPath><clipPath id="clip7"><rect x="1634" y="682" width="1169" height="1039"/></clipPath><clipPath id="clip8"><rect x="1634" y="682" width="1169" height="1039"/></clipPath><clipPath id="clip9"><rect x="1634" y="682" width="1169" height="1039"/></clipPath><clipPath id="clip10"><rect x="1634" y="682" width="1169" height="1039"/></clipPath><clipPath id="clip11"><rect x="1634" y="682" width="1169" height="1039"/></clipPath><clipPath id="clip12"><rect x="1634" y="682" width="1169" height="1039"/></clipPath><clipPath id="clip13"><rect x="1634" y="682" width="1169" height="1039"/></clipPath><clipPath id="clip14"><rect x="1634" y="682" width="1169" height="1039"/></clipPath><clipPath id="clip15"><rect x="1634" y="682" width="1169" height="1039"/></clipPath><clipPath id="clip16"><rect x="1634" y="682" width="1169" height="1039"/></clipPath><clipPath id="clip17"><rect x="1634" y="682" width="1169" height="1039"/></clipPath><clipPath id="clip18"><rect x="1634" y="682" width="1169" height="1039"/></clipPath><clipPath id="clip19"><rect x="1634" y="682" width="1169" height="1039"/></clipPath><clipPath id="clip20"><rect x="1634" y="682" width="1169" height="1039"/></clipPath><clipPath id="clip21"><rect x="1634" y="682" width="1169" height="1039"/></clipPath><clipPath id="clip22"><rect x="1634" y="682" width="1169" height="1039"/></clipPath><clipPath id="clip23"><rect x="1634" y="682" width="1169" height="1039"/></clipPath><clipPath id="clip24"><rect x="1634" y="682" width="1169" height="1039"/></clipPath><clipPath id="clip25"><rect x="1634" y="682" width="1169" height="1039"/></clipPath><clipPath id="clip26"><rect x="1634" y="682" width="1169" height="1039"/></clipPath><clipPath id="clip27"><rect x="1634" y="682" width="1169" height="1039"/></clipPath><clipPath id="clip28"><rect x="1634" y="682" width="1169" height="1039"/></clipPath><clipPath id="clip29"><rect x="1634" y="682" width="1169" height="1039"/></clipPath><clipPath id="clip30"><rect x="1634" y="682" width="1169" height="1039"/></clipPath><clipPath id="clip31"><rect x="1634" y="682" width="1169" height="1039"/></clipPath><clipPath id="clip32"><rect x="1634" y="682" width="1169" height="1039"/></clipPath><clipPath id="clip33"><rect x="1634" y="682" width="1169" height="1039"/></clipPath><clipPath id="clip34"><rect x="1634" y="682" width="1169" height="1039"/></clipPath><clipPath id="clip35"><rect x="1634" y="682" width="1169" height="1039"/></clipPath><clipPath id="clip36"><rect x="1634" y="682" width="1169" height="1039"/></clipPath><clipPath id="clip37"><rect x="1634" y="682" width="1169" height="1039"/></clipPath></defs><g clip-path="url(#clip0)" transform="translate(-1634 -681)"><rect x="1635" y="682" width="1169" height="1040" fill="url(#fill1)"/><g clip-path="url(#clip2)"><path d="M1868.5 1590.5 2732.5 1590.5M1868.5 1499.55 2732.5 1499.55M1868.5 1407.55 2732.5 1407.55M1868.5 1316.54 2732.5 1316.54M1868.5 1225.54 2732.5 1225.54M1868.5 1042.53 2732.5 1042.53M1868.5 951.531 2732.5 951.531M1868.5 860.5 2732.5 860.5" stroke="#D9D9D9" stroke-width="3.4375" stroke-linejoin="round" stroke-miterlimit="10" fill="none"/></g><g clip-path="url(#clip3)"><path d="M1868.5 860.5 1868.5 1590.5M2009.57 860.5 2009.57 1590.5M2151.57 860.5 2151.57 1590.5M2292.58 860.5 2292.58 1590.5M2433.58 860.5 2433.58 1590.5M2575.58 860.5 2575.58 1590.5M2716.5 860.5 2716.5 1590.5" stroke="#D9D9D9" stroke-width="3.4375" stroke-linejoin="round" stroke-miterlimit="10" fill="none"/></g><g clip-path="url(#clip4)"><path d="M1868.5 1134.5 2732.5 1134.5" stroke="#000000" stroke-width="11.4583" stroke-linejoin="round" stroke-miterlimit="10" fill="none" fill-rule="evenodd"/></g><g clip-path="url(#clip5)"><path d="M2505.53 1018.34C2505.53 1023.31 2501.5 1027.34 2496.53 1027.34 2491.56 1027.34 2487.53 1023.31 2487.53 1018.34 2487.53 1013.37 2491.56 1009.34 2496.53 1009.34 2501.5 1009.34 2505.53 1013.37 2505.53 1018.34Z" fill="#BFBFBF"/><path d="M2521.53 1028.34C2521.53 1033.31 2517.5 1037.34 2512.53 1037.34 2507.56 1037.34 2503.53 1033.31 2503.53 1028.34 2503.53 1023.37 2507.56 1019.34 2512.53 1019.34 2517.5 1019.34 2521.53 1023.37 2521.53 1028.34Z" fill="#BFBFBF"/><path d="M2536.53 1252.34C2536.53 1257.31 2532.5 1261.34 2527.53 1261.34 2522.56 1261.34 2518.53 1257.31 2518.53 1252.34 2518.53 1247.37 2522.56 1243.34 2527.53 1243.34 2532.5 1243.34 2536.53 1247.37 2536.53 1252.34Z" fill="#BFBFBF"/><path d="M2552.53 1244.34C2552.53 1249.31 2548.5 1253.34 2543.53 1253.34 2538.56 1253.34 2534.53 1249.31 2534.53 1244.34 2534.53 1239.37 2538.56 1235.34 2543.53 1235.34 2548.5 1235.34 2552.53 1239.37 2552.53 1244.34Z" fill="#BFBFBF"/><path d="M2568.53 1263.34C2568.53 1268.31 2564.5 1272.34 2559.53 1272.34 2554.56 1272.34 2550.53 1268.31 2550.53 1263.34 2550.53 1258.37 2554.56 1254.34 2559.53 1254.34 2564.5 1254.34 2568.53 1258.37 2568.53 1263.34Z" fill="#BFBFBF"/><path d="M2583.53 1508.34C2583.53 1513.31 2579.5 1517.34 2574.53 1517.34 2569.56 1517.34 2565.53 1513.31 2565.53 1508.34 2565.53 1503.37 2569.56 1499.34 2574.53 1499.34 2579.5 1499.34 2583.53 1503.37 2583.53 1508.34Z" fill="#BFBFBF"/></g><g clip-path="url(#clip6)"><path d="M2458.53 963.343C2458.53 968.314 2454.5 972.343 2449.53 972.343 2444.56 972.343 2440.53 968.314 2440.53 963.343 2440.53 958.373 2444.56 954.343 2449.53 954.343 2454.5 954.343 2458.53 958.373 2458.53 963.343Z" fill="#1F4E79"/><path d="M2693.53 1341.34C2693.53 1346.31 2689.5 1350.34 2684.53 1350.34 2679.56 1350.34 2675.53 1346.31 2675.53 1341.34 2675.53 1336.37 2679.56 1332.34 2684.53 1332.34 2689.5 1332.34 2693.53 1336.37 2693.53 1341.34Z" fill="#1F4E79"/><path d="M2709.53 1500.34C2709.53 1505.31 2705.5 1509.34 2700.53 1509.34 2695.56 1509.34 2691.53 1505.31 2691.53 1500.34 2691.53 1495.37 2695.56 1491.34 2700.53 1491.34 2705.5 1491.34 2709.53 1495.37 2709.53 1500.34Z" fill="#1F4E79"/><path d="M2725.53 1375.34C2725.53 1380.31 2721.5 1384.34 2716.53 1384.34 2711.56 1384.34 2707.53 1380.31 2707.53 1375.34 2707.53 1370.37 2711.56 1366.34 2716.53 1366.34 2721.5 1366.34 2725.53 1370.37 2725.53 1375.34Z" fill="#1F4E79"/></g><g clip-path="url(#clip7)"><path d="M2473.53 911.344C2473.53 916.314 2469.5 920.343 2464.53 920.343 2459.56 920.343 2455.53 916.314 2455.53 911.344 2455.53 906.373 2459.56 902.344 2464.53 902.344 2469.5 902.344 2473.53 906.373 2473.53 911.344Z" fill="#C00000"/><path d="M2489.53 899.344C2489.53 904.314 2485.5 908.343 2480.53 908.343 2475.56 908.343 2471.53 904.314 2471.53 899.344 2471.53 894.373 2475.56 890.344 2480.53 890.344 2485.5 890.344 2489.53 894.373 2489.53 899.344Z" fill="#C00000"/><path d="M2678.53 1284.34C2678.53 1289.31 2674.5 1293.34 2669.53 1293.34 2664.56 1293.34 2660.53 1289.31 2660.53 1284.34 2660.53 1279.37 2664.56 1275.34 2669.53 1275.34 2674.5 1275.34 2678.53 1279.37 2678.53 1284.34Z" fill="#C00000"/></g><g clip-path="url(#clip8)"><text fill="#7F7F7F" font-family="Calibri,Calibri_MSFontService,sans-serif" font-weight="400" font-size="55" transform="matrix(1 0 0 1 1772.72 1606)">-5</text></g><g clip-path="url(#clip9)"><text fill="#7F7F7F" font-family="Calibri,Calibri_MSFontService,sans-serif" font-weight="400" font-size="55" transform="matrix(1 0 0 1 1772.72 1515)">-4</text></g><g clip-path="url(#clip10)"><text fill="#7F7F7F" font-family="Calibri,Calibri_MSFontService,sans-serif" font-weight="400" font-size="55" transform="matrix(1 0 0 1 1772.72 1423)">-3</text></g><g clip-path="url(#clip11)"><text fill="#7F7F7F" font-family="Calibri,Calibri_MSFontService,sans-serif" font-weight="400" font-size="55" transform="matrix(1 0 0 1 1772.72 1332)">-2</text></g><g clip-path="url(#clip12)"><text fill="#7F7F7F" font-family="Calibri,Calibri_MSFontService,sans-serif" font-weight="400" font-size="55" transform="matrix(1 0 0 1 1772.72 1241)">-1</text></g><g clip-path="url(#clip13)"><text fill="#7F7F7F" font-family="Calibri,Calibri_MSFontService,sans-serif" font-weight="400" font-size="55" transform="matrix(1 0 0 1 1789.56 1149)">0</text></g><g clip-path="url(#clip14)"><text fill="#7F7F7F" font-family="Calibri,Calibri_MSFontService,sans-serif" font-weight="400" font-size="55" transform="matrix(1 0 0 1 1789.56 1058)">1</text></g><g clip-path="url(#clip15)"><text fill="#7F7F7F" font-family="Calibri,Calibri_MSFontService,sans-serif" font-weight="400" font-size="55" transform="matrix(1 0 0 1 1789.56 967)">2</text></g><g clip-path="url(#clip16)"><text fill="#7F7F7F" font-family="Calibri,Calibri_MSFontService,sans-serif" font-weight="400" font-size="55" transform="matrix(1 0 0 1 1789.56 876)">3</text></g><g clip-path="url(#clip17)"><text fill="#7F7F7F" font-family="Calibri,Calibri_MSFontService,sans-serif" font-weight="400" font-size="41" transform="matrix(1 0 0 1 1858.01 1199)">0</text></g><g clip-path="url(#clip18)"><text fill="#7F7F7F" font-family="Calibri,Calibri_MSFontService,sans-serif" font-weight="400" font-size="41" transform="matrix(1 0 0 1 1999.4 1199)">9</text></g><g clip-path="url(#clip19)"><text fill="#7F7F7F" font-family="Calibri,Calibri_MSFontService,sans-serif" font-weight="400" font-size="41" transform="matrix(1 0 0 1 2130.34 1199)">18</text></g><g clip-path="url(#clip20)"><text fill="#7F7F7F" font-family="Calibri,Calibri_MSFontService,sans-serif" font-weight="400" font-size="41" transform="matrix(1 0 0 1 2271.73 1199)">27</text></g><g clip-path="url(#clip21)"><text fill="#7F7F7F" font-family="Calibri,Calibri_MSFontService,sans-serif" font-weight="400" font-size="41" transform="matrix(1 0 0 1 2413.12 1199)">36</text></g><g clip-path="url(#clip22)"><text fill="#7F7F7F" font-family="Calibri,Calibri_MSFontService,sans-serif" font-weight="400" font-size="41" transform="matrix(1 0 0 1 2554.51 1199)">45</text></g><g clip-path="url(#clip23)"><text fill="#7F7F7F" font-family="Calibri,Calibri_MSFontService,sans-serif" font-weight="400" font-size="41" transform="matrix(1 0 0 1 2695.9 1199)">54</text></g><g clip-path="url(#clip24)"><text fill="#7F7F7F" font-family="Calibri,Calibri_MSFontService,sans-serif" font-weight="700" font-size="55" transform="matrix(6.12323e-17 -1 1 6.12323e-17 1743.82 1428)">Laufzeitverhältnis</text></g><g clip-path="url(#clip25)"><text fill="#7F7F7F" font-family="Calibri,Calibri_MSFontService,sans-serif" font-weight="700" font-size="55" transform="matrix(1 0 0 1 1884.62 1649)">Anzahl Argumente der Testinstanzen</text></g><g clip-path="url(#clip26)"><path d="M1764 756C1764 760.97 1759.97 765 1755 765 1750.03 765 1746 760.97 1746 756 1746 751.029 1750.03 747 1755 747 1759.97 747 1764 751.029 1764 756Z" fill="#BFBFBF"/></g><g clip-path="url(#clip27)"><text fill="#7F7F7F" font-family="Calibri,Calibri_MSFontService,sans-serif" font-weight="400" font-size="55" transform="matrix(1 0 0 1 1784.36 772)">0.1s &lt; </text></g><g clip-path="url(#clip28)"><text fill="#7F7F7F" font-family="Calibri,Calibri_MSFontService,sans-serif" font-weight="400" font-size="55" transform="matrix(1 0 0 1 1927.77 772)">Δ</text></g><g clip-path="url(#clip29)"><text fill="#7F7F7F" font-family="Calibri,Calibri_MSFontService,sans-serif" font-weight="400" font-size="55" transform="matrix(1 0 0 1 1958.82 772)">t ≤ 1s</text></g><g clip-path="url(#clip30)"><path d="M2149 756C2149 760.97 2144.97 765 2140 765 2135.03 765 2131 760.97 2131 756 2131 751.029 2135.03 747 2140 747 2144.97 747 2149 751.029 2149 756Z" fill="#1F4E79"/></g><g clip-path="url(#clip31)"><text fill="#7F7F7F" font-family="Calibri,Calibri_MSFontService,sans-serif" font-weight="400" font-size="55" transform="matrix(1 0 0 1 2168.55 772)">1s &lt; </text></g><g clip-path="url(#clip32)"><text fill="#7F7F7F" font-family="Calibri,Calibri_MSFontService,sans-serif" font-weight="400" font-size="55" transform="matrix(1 0 0 1 2270.21 772)">Δ</text></g><g clip-path="url(#clip33)"><text fill="#7F7F7F" font-family="Calibri,Calibri_MSFontService,sans-serif" font-weight="400" font-size="55" transform="matrix(1 0 0 1 2301.26 772)">t ≤ 60s</text></g><g clip-path="url(#clip34)"><path d="M2519 756C2519 760.97 2514.97 765 2510 765 2505.03 765 2501 760.97 2501 756 2501 751.029 2505.03 747 2510 747 2514.97 747 2519 751.029 2519 756Z" fill="#C00000"/></g><g clip-path="url(#clip35)"><text fill="#7F7F7F" font-family="Calibri,Calibri_MSFontService,sans-serif" font-weight="400" font-size="55" transform="matrix(1 0 0 1 2538.86 772)">60s &lt; </text></g><g clip-path="url(#clip36)"><text fill="#7F7F7F" font-family="Calibri,Calibri_MSFontService,sans-serif" font-weight="400" font-size="55" transform="matrix(1 0 0 1 2668.39 772)">Δ</text></g><g clip-path="url(#clip37)"><text fill="#7F7F7F" font-family="Calibri,Calibri_MSFontService,sans-serif" font-weight="400" font-size="55" transform="matrix(1 0 0 1 2699.44 772)">t</text></g><rect x="1635.5" y="682.5" width="1169" height="1040" stroke="#D9D9D9" stroke-width="3.4375" stroke-linejoin="round" stroke-miterlimit="10" fill="none"/></g></svg>