<svg width="2342" height="1302" xmlns="http://www.w3.org/2000/svg" xmlns:xlink="http://www.w3.org/1999/xlink" overflow="hidden"><defs><clipPath id="clip0"><rect x="958" y="415" width="2342" height="1302"/></clipPath><radialGradient cx="3.24058e+06" cy="1.79971e+06" r="3.70679e+06" fx="3.24058e+06" fy="1.79971e+06" gradientUnits="userSpaceOnUse" spreadMethod="pad" id="fill1" gradientTransform="matrix(0.000360892 0 0 0.000360892 959 416)"><stop offset="0" stop-color="#FFFFFF"/><stop offset="0.43" stop-color="#FFFFFF"/><stop offset="1" stop-color="#F2F2F2"/></radialGradient><clipPath id="clip2"><rect x="959" y="415" width="2338" height="1300"/></clipPath><clipPath id="clip3"><rect x="959" y="415" width="2338" height="1300"/></clipPath><clipPath id="clip4"><rect x="959" y="415" width="2338" height="1300"/></clipPath><clipPath id="clip5"><rect x="959" y="415" width="2338" height="1300"/></clipPath><clipPath id="clip6"><rect x="959" y="415" width="2338" height="1300"/></clipPath><clipPath id="clip7"><rect x="959" y="415" width="2338" height="1300"/></clipPath><clipPath id="clip8"><rect x="959" y="415" width="2338" height="1300"/></clipPath><clipPath id="clip9"><rect x="959" y="415" width="2338" height="1300"/></clipPath><clipPath id="clip10"><rect x="959" y="415" width="2338" height="1300"/></clipPath><clipPath id="clip11"><rect x="959" y="415" width="2338" height="1300"/></clipPath><clipPath id="clip12"><rect x="959" y="415" width="2338" height="1300"/></clipPath><clipPath id="clip13"><rect x="959" y="415" width="2338" height="1300"/></clipPath><clipPath id="clip14"><rect x="959" y="415" width="2338" height="1300"/></clipPath><clipPath id="clip15"><rect x="959" y="415" width="2338" height="1300"/></clipPath><clipPath id="clip16"><rect x="959" y="415" width="2338" height="1300"/></clipPath><clipPath id="clip17"><rect x="959" y="415" width="2338" height="1300"/></clipPath><clipPath id="clip18"><rect x="959" y="415" width="2338" height="1300"/></clipPath><clipPath id="clip19"><rect x="959" y="415" width="2338" height="1300"/></clipPath><clipPath id="clip20"><rect x="959" y="415" width="2338" height="1300"/></clipPath><clipPath id="clip21"><rect x="959" y="415" width="2338" height="1300"/></clipPath><clipPath id="clip22"><rect x="959" y="415" width="2338" height="1300"/></clipPath><clipPath id="clip23"><rect x="959" y="415" width="2338" height="1300"/></clipPath><clipPath id="clip24"><rect x="959" y="415" width="2338" height="1300"/></clipPath><clipPath id="clip25"><rect x="959" y="415" width="2338" height="1300"/></clipPath><clipPath id="clip26"><rect x="959" y="415" width="2338" height="1300"/></clipPath><clipPath id="clip27"><rect x="959" y="415" width="2338" height="1300"/></clipPath><clipPath id="clip28"><rect x="959" y="415" width="2338" height="1300"/></clipPath><clipPath id="clip29"><rect x="959" y="415" width="2338" height="1300"/></clipPath><clipPath id="clip30"><rect x="959" y="415" width="2338" height="1300"/></clipPath><clipPath id="clip31"><rect x="959" y="415" width="2338" height="1300"/></clipPath><clipPath id="clip32"><rect x="959" y="415" width="2338" height="1300"/></clipPath><clipPath id="clip33"><rect x="959" y="415" width="2338" height="1300"/></clipPath><clipPath id="clip34"><rect x="959" y="415" width="2338" height="1300"/></clipPath></defs><g clip-path="url(#clip0)" transform="translate(-958 -415)"><rect x="959" y="416" width="2339" height="1299" fill="url(#fill1)"/><g clip-path="url(#clip2)"><path d="M1220.5 1583.5 3247.5 1583.5M1220.5 1507.55 3247.5 1507.55M1220.5 1431.55 3247.5 1431.55M1220.5 1355.54 3247.5 1355.54M1220.5 1279.54 3247.5 1279.54M1220.5 1203.54 3247.5 1203.54M1220.5 1126.54 3247.5 1126.54M1220.5 1050.53 3247.5 1050.53M1220.5 974.532 3247.5 974.532M1220.5 898.53 3247.5 898.53M1220.5 746.525 3247.5 746.525M1220.5 670.522 3247.5 670.522M1220.5 593.5 3247.5 593.5" stroke="#D9D9D9" stroke-width="3.4375" stroke-linejoin="round" stroke-miterlimit="10" fill="none"/></g><g clip-path="url(#clip3)"><path d="M1220.5 822.5 3247.5 822.5" stroke="#000000" stroke-width="11.4583" stroke-linejoin="round" stroke-miterlimit="10" fill="none" fill-rule="evenodd"/></g><g clip-path="url(#clip4)"><path d="M1380.06 672.938C1380.06 677.908 1376.03 681.938 1371.06 681.938 1366.09 681.938 1362.06 677.908 1362.06 672.938 1362.06 667.967 1366.09 663.938 1371.06 663.938 1376.03 663.938 1380.06 667.967 1380.06 672.938Z" fill="#BFBFBF"/><path d="M1415.06 1207.94C1415.06 1212.91 1411.03 1216.94 1406.06 1216.94 1401.09 1216.94 1397.06 1212.91 1397.06 1207.94 1397.06 1202.97 1401.09 1198.94 1406.06 1198.94 1411.03 1198.94 1415.06 1202.97 1415.06 1207.94Z" fill="#BFBFBF"/><path d="M1421.06 1224.94C1421.06 1229.91 1417.03 1233.94 1412.06 1233.94 1407.09 1233.94 1403.06 1229.91 1403.06 1224.94 1403.06 1219.97 1407.09 1215.94 1412.06 1215.94 1417.03 1215.94 1421.06 1219.97 1421.06 1224.94Z" fill="#BFBFBF"/><path d="M1427.06 1217.94C1427.06 1222.91 1423.03 1226.94 1418.06 1226.94 1413.09 1226.94 1409.06 1222.91 1409.06 1217.94 1409.06 1212.97 1413.09 1208.94 1418.06 1208.94 1423.03 1208.94 1427.06 1212.97 1427.06 1217.94Z" fill="#BFBFBF"/><path d="M1432.06 1210.94C1432.06 1215.91 1428.03 1219.94 1423.06 1219.94 1418.09 1219.94 1414.06 1215.91 1414.06 1210.94 1414.06 1205.97 1418.09 1201.94 1423.06 1201.94 1428.03 1201.94 1432.06 1205.97 1432.06 1210.94Z" fill="#BFBFBF"/><path d="M1450.06 1290.94C1450.06 1295.91 1446.03 1299.94 1441.06 1299.94 1436.09 1299.94 1432.06 1295.91 1432.06 1290.94 1432.06 1285.97 1436.09 1281.94 1441.06 1281.94 1446.03 1281.94 1450.06 1285.97 1450.06 1290.94Z" fill="#BFBFBF"/><path d="M1473.06 720.938C1473.06 725.908 1469.03 729.938 1464.06 729.938 1459.09 729.938 1455.06 725.908 1455.06 720.938 1455.06 715.967 1459.09 711.938 1464.06 711.938 1469.03 711.938 1473.06 715.967 1473.06 720.938Z" fill="#BFBFBF"/><path d="M1479.06 708.938C1479.06 713.908 1475.03 717.938 1470.06 717.938 1465.09 717.938 1461.06 713.908 1461.06 708.938 1461.06 703.967 1465.09 699.938 1470.06 699.938 1475.03 699.938 1479.06 703.967 1479.06 708.938Z" fill="#BFBFBF"/><path d="M1485.06 712.938C1485.06 717.908 1481.03 721.938 1476.06 721.938 1471.09 721.938 1467.06 717.908 1467.06 712.938 1467.06 707.967 1471.09 703.938 1476.06 703.938 1481.03 703.938 1485.06 707.967 1485.06 712.938Z" fill="#BFBFBF"/><path d="M1490.06 685.938C1490.06 690.908 1486.03 694.938 1481.06 694.938 1476.09 694.938 1472.06 690.908 1472.06 685.938 1472.06 680.967 1476.09 676.938 1481.06 676.938 1486.03 676.938 1490.06 680.967 1490.06 685.938Z" fill="#BFBFBF"/><path d="M1496.06 703.938C1496.06 708.908 1492.03 712.938 1487.06 712.938 1482.09 712.938 1478.06 708.908 1478.06 703.938 1478.06 698.967 1482.09 694.938 1487.06 694.938 1492.03 694.938 1496.06 698.967 1496.06 703.938Z" fill="#BFBFBF"/><path d="M1502.06 702.938C1502.06 707.908 1498.03 711.938 1493.06 711.938 1488.09 711.938 1484.06 707.908 1484.06 702.938 1484.06 697.967 1488.09 693.938 1493.06 693.938 1498.03 693.938 1502.06 697.967 1502.06 702.938Z" fill="#BFBFBF"/><path d="M1508.06 708.938C1508.06 713.908 1504.03 717.938 1499.06 717.938 1494.09 717.938 1490.06 713.908 1490.06 708.938 1490.06 703.967 1494.09 699.938 1499.06 699.938 1504.03 699.938 1508.06 703.967 1508.06 708.938Z" fill="#BFBFBF"/><path d="M1514.06 1282.94C1514.06 1287.91 1510.03 1291.94 1505.06 1291.94 1500.09 1291.94 1496.06 1287.91 1496.06 1282.94 1496.06 1277.97 1500.09 1273.94 1505.06 1273.94 1510.03 1273.94 1514.06 1277.97 1514.06 1282.94Z" fill="#BFBFBF"/><path d="M1519.06 1295.94C1519.06 1300.91 1515.03 1304.94 1510.06 1304.94 1505.09 1304.94 1501.06 1300.91 1501.06 1295.94 1501.06 1290.97 1505.09 1286.94 1510.06 1286.94 1515.03 1286.94 1519.06 1290.97 1519.06 1295.94Z" fill="#BFBFBF"/><path d="M1537.06 1300.94C1537.06 1305.91 1533.03 1309.94 1528.06 1309.94 1523.09 1309.94 1519.06 1305.91 1519.06 1300.94 1519.06 1295.97 1523.09 1291.94 1528.06 1291.94 1533.03 1291.94 1537.06 1295.97 1537.06 1300.94Z" fill="#BFBFBF"/><path d="M1542.06 1242.94C1542.06 1247.91 1538.03 1251.94 1533.06 1251.94 1528.09 1251.94 1524.06 1247.91 1524.06 1242.94 1524.06 1237.97 1528.09 1233.94 1533.06 1233.94 1538.03 1233.94 1542.06 1237.97 1542.06 1242.94Z" fill="#BFBFBF"/><path d="M1560.06 1292.94C1560.06 1297.91 1556.03 1301.94 1551.06 1301.94 1546.09 1301.94 1542.06 1297.91 1542.06 1292.94 1542.06 1287.97 1546.09 1283.94 1551.06 1283.94 1556.03 1283.94 1560.06 1287.97 1560.06 1292.94Z" fill="#BFBFBF"/><path d="M1583.06 1110.94C1583.06 1115.91 1579.03 1119.94 1574.06 1119.94 1569.09 1119.94 1565.06 1115.91 1565.06 1110.94 1565.06 1105.97 1569.09 1101.94 1574.06 1101.94 1579.03 1101.94 1583.06 1105.97 1583.06 1110.94Z" fill="#BFBFBF"/><path d="M1589.06 723.938C1589.06 728.908 1585.03 732.938 1580.06 732.938 1575.09 732.938 1571.06 728.908 1571.06 723.938 1571.06 718.967 1575.09 714.938 1580.06 714.938 1585.03 714.938 1589.06 718.967 1589.06 723.938Z" fill="#BFBFBF"/><path d="M1612.06 905.938C1612.06 910.908 1608.03 914.938 1603.06 914.938 1598.09 914.938 1594.06 910.908 1594.06 905.938 1594.06 900.967 1598.09 896.938 1603.06 896.938 1608.03 896.938 1612.06 900.967 1612.06 905.938Z" fill="#BFBFBF"/><path d="M1629.06 1169.94C1629.06 1174.91 1625.03 1178.94 1620.06 1178.94 1615.09 1178.94 1611.06 1174.91 1611.06 1169.94 1611.06 1164.97 1615.09 1160.94 1620.06 1160.94 1625.03 1160.94 1629.06 1164.97 1629.06 1169.94Z" fill="#BFBFBF"/><path d="M1705.06 725.938C1705.06 730.908 1701.03 734.938 1696.06 734.938 1691.09 734.938 1687.06 730.908 1687.06 725.938 1687.06 720.967 1691.09 716.938 1696.06 716.938 1701.03 716.938 1705.06 720.967 1705.06 725.938Z" fill="#BFBFBF"/><path d="M1768.06 1297.94C1768.06 1302.91 1764.03 1306.94 1759.06 1306.94 1754.09 1306.94 1750.06 1302.91 1750.06 1297.94 1750.06 1292.97 1754.09 1288.94 1759.06 1288.94 1764.03 1288.94 1768.06 1292.97 1768.06 1297.94Z" fill="#BFBFBF"/><path d="M1774.06 684.938C1774.06 689.908 1770.03 693.938 1765.06 693.938 1760.09 693.938 1756.06 689.908 1756.06 684.938 1756.06 679.967 1760.09 675.938 1765.06 675.938 1770.03 675.938 1774.06 679.967 1774.06 684.938Z" fill="#BFBFBF"/><path d="M1780.06 673.938C1780.06 678.908 1776.03 682.938 1771.06 682.938 1766.09 682.938 1762.06 678.908 1762.06 673.938 1762.06 668.967 1766.09 664.938 1771.06 664.938 1776.03 664.938 1780.06 668.967 1780.06 673.938Z" fill="#BFBFBF"/><path d="M1786.06 691.938C1786.06 696.908 1782.03 700.938 1777.06 700.938 1772.09 700.938 1768.06 696.908 1768.06 691.938 1768.06 686.967 1772.09 682.938 1777.06 682.938 1782.03 682.938 1786.06 686.967 1786.06 691.938Z" fill="#BFBFBF"/><path d="M1791.06 654.938C1791.06 659.908 1787.03 663.938 1782.06 663.938 1777.09 663.938 1773.06 659.908 1773.06 654.938 1773.06 649.967 1777.09 645.938 1782.06 645.938 1787.03 645.938 1791.06 649.967 1791.06 654.938Z" fill="#BFBFBF"/><path d="M1803.06 677.938C1803.06 682.908 1799.03 686.938 1794.06 686.938 1789.09 686.938 1785.06 682.908 1785.06 677.938 1785.06 672.967 1789.09 668.938 1794.06 668.938 1799.03 668.938 1803.06 672.967 1803.06 677.938Z" fill="#BFBFBF"/><path d="M1826.06 688.938C1826.06 693.908 1822.03 697.938 1817.06 697.938 1812.09 697.938 1808.06 693.908 1808.06 688.938 1808.06 683.967 1812.09 679.938 1817.06 679.938 1822.03 679.938 1826.06 683.967 1826.06 688.938Z" fill="#BFBFBF"/><path d="M1832.06 652.938C1832.06 657.908 1828.03 661.938 1823.06 661.938 1818.09 661.938 1814.06 657.908 1814.06 652.938 1814.06 647.967 1818.09 643.938 1823.06 643.938 1828.03 643.938 1832.06 647.967 1832.06 652.938Z" fill="#BFBFBF"/><path d="M1838.06 687.938C1838.06 692.908 1834.03 696.938 1829.06 696.938 1824.09 696.938 1820.06 692.908 1820.06 687.938 1820.06 682.967 1824.09 678.938 1829.06 678.938 1834.03 678.938 1838.06 682.967 1838.06 687.938Z" fill="#BFBFBF"/><path d="M1844.06 716.938C1844.06 721.908 1840.03 725.938 1835.06 725.938 1830.09 725.938 1826.06 721.908 1826.06 716.938 1826.06 711.967 1830.09 707.938 1835.06 707.938 1840.03 707.938 1844.06 711.967 1844.06 716.938Z" fill="#BFBFBF"/><path d="M1849.06 665.938C1849.06 670.908 1845.03 674.938 1840.06 674.938 1835.09 674.938 1831.06 670.908 1831.06 665.938 1831.06 660.967 1835.09 656.938 1840.06 656.938 1845.03 656.938 1849.06 660.967 1849.06 665.938Z" fill="#BFBFBF"/><path d="M1861.06 707.938C1861.06 712.908 1857.03 716.938 1852.06 716.938 1847.09 716.938 1843.06 712.908 1843.06 707.938 1843.06 702.967 1847.09 698.938 1852.06 698.938 1857.03 698.938 1861.06 702.967 1861.06 707.938Z" fill="#BFBFBF"/><path d="M1867.06 704.938C1867.06 709.908 1863.03 713.938 1858.06 713.938 1853.09 713.938 1849.06 709.908 1849.06 704.938 1849.06 699.967 1853.09 695.938 1858.06 695.938 1863.03 695.938 1867.06 699.967 1867.06 704.938Z" fill="#BFBFBF"/><path d="M1873.06 678.938C1873.06 683.908 1869.03 687.938 1864.06 687.938 1859.09 687.938 1855.06 683.908 1855.06 678.938 1855.06 673.967 1859.09 669.938 1864.06 669.938 1869.03 669.938 1873.06 673.967 1873.06 678.938Z" fill="#BFBFBF"/><path d="M1878.06 735.938C1878.06 740.908 1874.03 744.938 1869.06 744.938 1864.09 744.938 1860.06 740.908 1860.06 735.938 1860.06 730.967 1864.09 726.938 1869.06 726.938 1874.03 726.938 1878.06 730.967 1878.06 735.938Z" fill="#BFBFBF"/><path d="M1884.06 684.938C1884.06 689.908 1880.03 693.938 1875.06 693.938 1870.09 693.938 1866.06 689.908 1866.06 684.938 1866.06 679.967 1870.09 675.938 1875.06 675.938 1880.03 675.938 1884.06 679.967 1884.06 684.938Z" fill="#BFBFBF"/><path d="M1890.06 706.938C1890.06 711.908 1886.03 715.938 1881.06 715.938 1876.09 715.938 1872.06 711.908 1872.06 706.938 1872.06 701.967 1876.09 697.938 1881.06 697.938 1886.03 697.938 1890.06 701.967 1890.06 706.938Z" fill="#BFBFBF"/><path d="M1896.06 708.938C1896.06 713.908 1892.03 717.938 1887.06 717.938 1882.09 717.938 1878.06 713.908 1878.06 708.938 1878.06 703.967 1882.09 699.938 1887.06 699.938 1892.03 699.938 1896.06 703.967 1896.06 708.938Z" fill="#BFBFBF"/><path d="M1901.06 699.938C1901.06 704.908 1897.03 708.938 1892.06 708.938 1887.09 708.938 1883.06 704.908 1883.06 699.938 1883.06 694.967 1887.09 690.938 1892.06 690.938 1897.03 690.938 1901.06 694.967 1901.06 699.938Z" fill="#BFBFBF"/><path d="M2000.06 710.938C2000.06 715.908 1996.03 719.938 1991.06 719.938 1986.09 719.938 1982.06 715.908 1982.06 710.938 1982.06 705.967 1986.09 701.938 1991.06 701.938 1996.03 701.938 2000.06 705.967 2000.06 710.938Z" fill="#BFBFBF"/><path d="M2006.06 724.938C2006.06 729.908 2002.03 733.938 1997.06 733.938 1992.09 733.938 1988.06 729.908 1988.06 724.938 1988.06 719.967 1992.09 715.938 1997.06 715.938 2002.03 715.938 2006.06 719.967 2006.06 724.938Z" fill="#BFBFBF"/><path d="M2029.06 700.938C2029.06 705.908 2025.03 709.938 2020.06 709.938 2015.09 709.938 2011.06 705.908 2011.06 700.938 2011.06 695.967 2015.09 691.938 2020.06 691.938 2025.03 691.938 2029.06 695.967 2029.06 700.938Z" fill="#BFBFBF"/><path d="M2075.06 1157.94C2075.06 1162.91 2071.03 1166.94 2066.06 1166.94 2061.09 1166.94 2057.06 1162.91 2057.06 1157.94 2057.06 1152.97 2061.09 1148.94 2066.06 1148.94 2071.03 1148.94 2075.06 1152.97 2075.06 1157.94Z" fill="#BFBFBF"/><path d="M2081.06 1066.94C2081.06 1071.91 2077.03 1075.94 2072.06 1075.94 2067.09 1075.94 2063.06 1071.91 2063.06 1066.94 2063.06 1061.97 2067.09 1057.94 2072.06 1057.94 2077.03 1057.94 2081.06 1061.97 2081.06 1066.94Z" fill="#BFBFBF"/><path d="M2087.06 1140.94C2087.06 1145.91 2083.03 1149.94 2078.06 1149.94 2073.09 1149.94 2069.06 1145.91 2069.06 1140.94 2069.06 1135.97 2073.09 1131.94 2078.06 1131.94 2083.03 1131.94 2087.06 1135.97 2087.06 1140.94Z" fill="#BFBFBF"/><path d="M2093.06 1241.94C2093.06 1246.91 2089.03 1250.94 2084.06 1250.94 2079.09 1250.94 2075.06 1246.91 2075.06 1241.94 2075.06 1236.97 2079.09 1232.94 2084.06 1232.94 2089.03 1232.94 2093.06 1236.97 2093.06 1241.94Z" fill="#BFBFBF"/><path d="M2098.06 1111.94C2098.06 1116.91 2094.03 1120.94 2089.06 1120.94 2084.09 1120.94 2080.06 1116.91 2080.06 1111.94 2080.06 1106.97 2084.09 1102.94 2089.06 1102.94 2094.03 1102.94 2098.06 1106.97 2098.06 1111.94Z" fill="#BFBFBF"/><path d="M2104.06 1070.94C2104.06 1075.91 2100.03 1079.94 2095.06 1079.94 2090.09 1079.94 2086.06 1075.91 2086.06 1070.94 2086.06 1065.97 2090.09 1061.94 2095.06 1061.94 2100.03 1061.94 2104.06 1065.97 2104.06 1070.94Z" fill="#BFBFBF"/><path d="M2110.06 1098.94C2110.06 1103.91 2106.03 1107.94 2101.06 1107.94 2096.09 1107.94 2092.06 1103.91 2092.06 1098.94 2092.06 1093.97 2096.09 1089.94 2101.06 1089.94 2106.03 1089.94 2110.06 1093.97 2110.06 1098.94Z" fill="#BFBFBF"/><path d="M2116.06 735.938C2116.06 740.908 2112.03 744.938 2107.06 744.938 2102.09 744.938 2098.06 740.908 2098.06 735.938 2098.06 730.967 2102.09 726.938 2107.06 726.938 2112.03 726.938 2116.06 730.967 2116.06 735.938Z" fill="#BFBFBF"/><path d="M2127.06 688.938C2127.06 693.908 2123.03 697.938 2118.06 697.938 2113.09 697.938 2109.06 693.908 2109.06 688.938 2109.06 683.967 2113.09 679.938 2118.06 679.938 2123.03 679.938 2127.06 683.967 2127.06 688.938Z" fill="#BFBFBF"/><path d="M2133.06 676.938C2133.06 681.908 2129.03 685.938 2124.06 685.938 2119.09 685.938 2115.06 681.908 2115.06 676.938 2115.06 671.967 2119.09 667.938 2124.06 667.938 2129.03 667.938 2133.06 671.967 2133.06 676.938Z" fill="#BFBFBF"/><path d="M2139.06 717.938C2139.06 722.908 2135.03 726.938 2130.06 726.938 2125.09 726.938 2121.06 722.908 2121.06 717.938 2121.06 712.967 2125.09 708.938 2130.06 708.938 2135.03 708.938 2139.06 712.967 2139.06 717.938Z" fill="#BFBFBF"/><path d="M2145.06 703.938C2145.06 708.908 2141.03 712.938 2136.06 712.938 2131.09 712.938 2127.06 708.908 2127.06 703.938 2127.06 698.967 2131.09 694.938 2136.06 694.938 2141.03 694.938 2145.06 698.967 2145.06 703.938Z" fill="#BFBFBF"/><path d="M2150.06 720.938C2150.06 725.908 2146.03 729.938 2141.06 729.938 2136.09 729.938 2132.06 725.908 2132.06 720.938 2132.06 715.967 2136.09 711.938 2141.06 711.938 2146.03 711.938 2150.06 715.967 2150.06 720.938Z" fill="#BFBFBF"/><path d="M2162.06 724.938C2162.06 729.908 2158.03 733.938 2153.06 733.938 2148.09 733.938 2144.06 729.908 2144.06 724.938 2144.06 719.967 2148.09 715.938 2153.06 715.938 2158.03 715.938 2162.06 719.967 2162.06 724.938Z" fill="#BFBFBF"/><path d="M2168.06 741.938C2168.06 746.908 2164.03 750.938 2159.06 750.938 2154.09 750.938 2150.06 746.908 2150.06 741.938 2150.06 736.967 2154.09 732.938 2159.06 732.938 2164.03 732.938 2168.06 736.967 2168.06 741.938Z" fill="#BFBFBF"/><path d="M2944.06 1174.94C2944.06 1179.91 2940.03 1183.94 2935.06 1183.94 2930.09 1183.94 2926.06 1179.91 2926.06 1174.94 2926.06 1169.97 2930.09 1165.94 2935.06 1165.94 2940.03 1165.94 2944.06 1169.97 2944.06 1174.94Z" fill="#BFBFBF"/><path d="M2949.06 1249.94C2949.06 1254.91 2945.03 1258.94 2940.06 1258.94 2935.09 1258.94 2931.06 1254.91 2931.06 1249.94 2931.06 1244.97 2935.09 1240.94 2940.06 1240.94 2945.03 1240.94 2949.06 1244.97 2949.06 1249.94Z" fill="#BFBFBF"/><path d="M2955.06 1214.94C2955.06 1219.91 2951.03 1223.94 2946.06 1223.94 2941.09 1223.94 2937.06 1219.91 2937.06 1214.94 2937.06 1209.97 2941.09 1205.94 2946.06 1205.94 2951.03 1205.94 2955.06 1209.97 2955.06 1214.94Z" fill="#BFBFBF"/><path d="M2961.06 1177.94C2961.06 1182.91 2957.03 1186.94 2952.06 1186.94 2947.09 1186.94 2943.06 1182.91 2943.06 1177.94 2943.06 1172.97 2947.09 1168.94 2952.06 1168.94 2957.03 1168.94 2961.06 1172.97 2961.06 1177.94Z" fill="#BFBFBF"/><path d="M2967.06 1233.94C2967.06 1238.91 2963.03 1242.94 2958.06 1242.94 2953.09 1242.94 2949.06 1238.91 2949.06 1233.94 2949.06 1228.97 2953.09 1224.94 2958.06 1224.94 2963.03 1224.94 2967.06 1228.97 2967.06 1233.94Z" fill="#BFBFBF"/><path d="M2973.06 1148.94C2973.06 1153.91 2969.03 1157.94 2964.06 1157.94 2959.09 1157.94 2955.06 1153.91 2955.06 1148.94 2955.06 1143.97 2959.09 1139.94 2964.06 1139.94 2969.03 1139.94 2973.06 1143.97 2973.06 1148.94Z" fill="#BFBFBF"/><path d="M2990.06 722.938C2990.06 727.908 2986.03 731.938 2981.06 731.938 2976.09 731.938 2972.06 727.908 2972.06 722.938 2972.06 717.967 2976.09 713.938 2981.06 713.938 2986.03 713.938 2990.06 717.967 2990.06 722.938Z" fill="#BFBFBF"/><path d="M2996.06 703.938C2996.06 708.908 2992.03 712.938 2987.06 712.938 2982.09 712.938 2978.06 708.908 2978.06 703.938 2978.06 698.967 2982.09 694.938 2987.06 694.938 2992.03 694.938 2996.06 698.967 2996.06 703.938Z" fill="#BFBFBF"/><path d="M3001.06 709.938C3001.06 714.908 2997.03 718.938 2992.06 718.938 2987.09 718.938 2983.06 714.908 2983.06 709.938 2983.06 704.967 2987.09 700.938 2992.06 700.938 2997.03 700.938 3001.06 704.967 3001.06 709.938Z" fill="#BFBFBF"/><path d="M3007.06 685.938C3007.06 690.908 3003.03 694.938 2998.06 694.938 2993.09 694.938 2989.06 690.908 2989.06 685.938 2989.06 680.967 2993.09 676.938 2998.06 676.938 3003.03 676.938 3007.06 680.967 3007.06 685.938Z" fill="#BFBFBF"/><path d="M3013.06 661.938C3013.06 666.908 3009.03 670.938 3004.06 670.938 2999.09 670.938 2995.06 666.908 2995.06 661.938 2995.06 656.967 2999.09 652.938 3004.06 652.938 3009.03 652.938 3013.06 656.967 3013.06 661.938Z" fill="#BFBFBF"/><path d="M3019.06 1296.94C3019.06 1301.91 3015.03 1305.94 3010.06 1305.94 3005.09 1305.94 3001.06 1301.91 3001.06 1296.94 3001.06 1291.97 3005.09 1287.94 3010.06 1287.94 3015.03 1287.94 3019.06 1291.97 3019.06 1296.94Z" fill="#BFBFBF"/><path d="M3048.06 1307.94C3048.06 1312.91 3044.03 1316.94 3039.06 1316.94 3034.09 1316.94 3030.06 1312.91 3030.06 1307.94 3030.06 1302.97 3034.09 1298.94 3039.06 1298.94 3044.03 1298.94 3048.06 1302.97 3048.06 1307.94Z" fill="#BFBFBF"/><path d="M3054.06 1228.94C3054.06 1233.91 3050.03 1237.94 3045.06 1237.94 3040.09 1237.94 3036.06 1233.91 3036.06 1228.94 3036.06 1223.97 3040.09 1219.94 3045.06 1219.94 3050.03 1219.94 3054.06 1223.97 3054.06 1228.94Z" fill="#BFBFBF"/><path d="M3065.06 1294.94C3065.06 1299.91 3061.03 1303.94 3056.06 1303.94 3051.09 1303.94 3047.06 1299.91 3047.06 1294.94 3047.06 1289.97 3051.09 1285.94 3056.06 1285.94 3061.03 1285.94 3065.06 1289.97 3065.06 1294.94Z" fill="#BFBFBF"/><path d="M3088.06 721.938C3088.06 726.908 3084.03 730.938 3079.06 730.938 3074.09 730.938 3070.06 726.908 3070.06 721.938 3070.06 716.967 3074.09 712.938 3079.06 712.938 3084.03 712.938 3088.06 716.967 3088.06 721.938Z" fill="#BFBFBF"/><path d="M3111.06 917.938C3111.06 922.908 3107.03 926.938 3102.06 926.938 3097.09 926.938 3093.06 922.908 3093.06 917.938 3093.06 912.967 3097.09 908.938 3102.06 908.938 3107.03 908.938 3111.06 912.967 3111.06 917.938Z" fill="#BFBFBF"/><path d="M3117.06 902.938C3117.06 907.908 3113.03 911.938 3108.06 911.938 3103.09 911.938 3099.06 907.908 3099.06 902.938 3099.06 897.967 3103.09 893.938 3108.06 893.938 3113.03 893.938 3117.06 897.967 3117.06 902.938Z" fill="#BFBFBF"/></g><g clip-path="url(#clip5)"><path d="M1409.06 1288.94C1409.06 1293.91 1405.03 1297.94 1400.06 1297.94 1395.09 1297.94 1391.06 1293.91 1391.06 1288.94 1391.06 1283.97 1395.09 1279.94 1400.06 1279.94 1405.03 1279.94 1409.06 1283.97 1409.06 1288.94Z" fill="#1F4E79"/><path d="M1525.06 1448.94C1525.06 1453.91 1521.03 1457.94 1516.06 1457.94 1511.09 1457.94 1507.06 1453.91 1507.06 1448.94 1507.06 1443.97 1511.09 1439.94 1516.06 1439.94 1521.03 1439.94 1525.06 1443.97 1525.06 1448.94Z" fill="#1F4E79"/><path d="M1531.06 1318.94C1531.06 1323.91 1527.03 1327.94 1522.06 1327.94 1517.09 1327.94 1513.06 1323.91 1513.06 1318.94 1513.06 1313.97 1517.09 1309.94 1522.06 1309.94 1527.03 1309.94 1531.06 1313.97 1531.06 1318.94Z" fill="#1F4E79"/><path d="M1548.06 1312.94C1548.06 1317.91 1544.03 1321.94 1539.06 1321.94 1534.09 1321.94 1530.06 1317.91 1530.06 1312.94 1530.06 1307.97 1534.09 1303.94 1539.06 1303.94 1544.03 1303.94 1548.06 1307.97 1548.06 1312.94Z" fill="#1F4E79"/><path d="M1554.06 1298.94C1554.06 1303.91 1550.03 1307.94 1545.06 1307.94 1540.09 1307.94 1536.06 1303.91 1536.06 1298.94 1536.06 1293.97 1540.09 1289.94 1545.06 1289.94 1550.03 1289.94 1554.06 1293.97 1554.06 1298.94Z" fill="#1F4E79"/><path d="M1566.06 1308.94C1566.06 1313.91 1562.03 1317.94 1557.06 1317.94 1552.09 1317.94 1548.06 1313.91 1548.06 1308.94 1548.06 1303.97 1552.09 1299.94 1557.06 1299.94 1562.03 1299.94 1566.06 1303.97 1566.06 1308.94Z" fill="#1F4E79"/><path d="M1571.06 1337.94C1571.06 1342.91 1567.03 1346.94 1562.06 1346.94 1557.09 1346.94 1553.06 1342.91 1553.06 1337.94 1553.06 1332.97 1557.09 1328.94 1562.06 1328.94 1567.03 1328.94 1571.06 1332.97 1571.06 1337.94Z" fill="#1F4E79"/><path d="M1577.06 1317.94C1577.06 1322.91 1573.03 1326.94 1568.06 1326.94 1563.09 1326.94 1559.06 1322.91 1559.06 1317.94 1559.06 1312.97 1563.09 1308.94 1568.06 1308.94 1573.03 1308.94 1577.06 1312.97 1577.06 1317.94Z" fill="#1F4E79"/><path d="M1595.06 1455.94C1595.06 1460.91 1591.03 1464.94 1586.06 1464.94 1581.09 1464.94 1577.06 1460.91 1577.06 1455.94 1577.06 1450.97 1581.09 1446.94 1586.06 1446.94 1591.03 1446.94 1595.06 1450.97 1595.06 1455.94Z" fill="#1F4E79"/><path d="M1600.06 1453.94C1600.06 1458.91 1596.03 1462.94 1591.06 1462.94 1586.09 1462.94 1582.06 1458.91 1582.06 1453.94 1582.06 1448.97 1586.09 1444.94 1591.06 1444.94 1596.03 1444.94 1600.06 1448.97 1600.06 1453.94Z" fill="#1F4E79"/><path d="M1606.06 1492.94C1606.06 1497.91 1602.03 1501.94 1597.06 1501.94 1592.09 1501.94 1588.06 1497.91 1588.06 1492.94 1588.06 1487.97 1592.09 1483.94 1597.06 1483.94 1602.03 1483.94 1606.06 1487.97 1606.06 1492.94Z" fill="#1F4E79"/><path d="M1739.06 1449.94C1739.06 1454.91 1735.03 1458.94 1730.06 1458.94 1725.09 1458.94 1721.06 1454.91 1721.06 1449.94 1721.06 1444.97 1725.09 1440.94 1730.06 1440.94 1735.03 1440.94 1739.06 1444.97 1739.06 1449.94Z" fill="#1F4E79"/><path d="M1745.06 1438.94C1745.06 1443.91 1741.03 1447.94 1736.06 1447.94 1731.09 1447.94 1727.06 1443.91 1727.06 1438.94 1727.06 1433.97 1731.09 1429.94 1736.06 1429.94 1741.03 1429.94 1745.06 1433.97 1745.06 1438.94Z" fill="#1F4E79"/><path d="M1751.06 1419.94C1751.06 1424.91 1747.03 1428.94 1742.06 1428.94 1737.09 1428.94 1733.06 1424.91 1733.06 1419.94 1733.06 1414.97 1737.09 1410.94 1742.06 1410.94 1747.03 1410.94 1751.06 1414.97 1751.06 1419.94Z" fill="#1F4E79"/><path d="M1757.06 1332.94C1757.06 1337.91 1753.03 1341.94 1748.06 1341.94 1743.09 1341.94 1739.06 1337.91 1739.06 1332.94 1739.06 1327.97 1743.09 1323.94 1748.06 1323.94 1753.03 1323.94 1757.06 1327.97 1757.06 1332.94Z" fill="#1F4E79"/><path d="M1809.06 1465.94C1809.06 1470.91 1805.03 1474.94 1800.06 1474.94 1795.09 1474.94 1791.06 1470.91 1791.06 1465.94 1791.06 1460.97 1795.09 1456.94 1800.06 1456.94 1805.03 1456.94 1809.06 1460.97 1809.06 1465.94Z" fill="#1F4E79"/><path d="M1815.06 649.938C1815.06 654.908 1811.03 658.938 1806.06 658.938 1801.09 658.938 1797.06 654.908 1797.06 649.938 1797.06 644.967 1801.09 640.938 1806.06 640.938 1811.03 640.938 1815.06 644.967 1815.06 649.938Z" fill="#1F4E79"/><path d="M1820.06 681.938C1820.06 686.908 1816.03 690.938 1811.06 690.938 1806.09 690.938 1802.06 686.908 1802.06 681.938 1802.06 676.967 1806.09 672.938 1811.06 672.938 1816.03 672.938 1820.06 676.967 1820.06 681.938Z" fill="#1F4E79"/><path d="M2035.06 1278.94C2035.06 1283.91 2031.03 1287.94 2026.06 1287.94 2021.09 1287.94 2017.06 1283.91 2017.06 1278.94 2017.06 1273.97 2021.09 1269.94 2026.06 1269.94 2031.03 1269.94 2035.06 1273.97 2035.06 1278.94Z" fill="#1F4E79"/><path d="M2040.06 1474.94C2040.06 1479.91 2036.03 1483.94 2031.06 1483.94 2026.09 1483.94 2022.06 1479.91 2022.06 1474.94 2022.06 1469.97 2026.09 1465.94 2031.06 1465.94 2036.03 1465.94 2040.06 1469.97 2040.06 1474.94Z" fill="#1F4E79"/><path d="M2046.06 1307.94C2046.06 1312.91 2042.03 1316.94 2037.06 1316.94 2032.09 1316.94 2028.06 1312.91 2028.06 1307.94 2028.06 1302.97 2032.09 1298.94 2037.06 1298.94 2042.03 1298.94 2046.06 1302.97 2046.06 1307.94Z" fill="#1F4E79"/><path d="M2052.06 1325.94C2052.06 1330.91 2048.03 1334.94 2043.06 1334.94 2038.09 1334.94 2034.06 1330.91 2034.06 1325.94 2034.06 1320.97 2038.09 1316.94 2043.06 1316.94 2048.03 1316.94 2052.06 1320.97 2052.06 1325.94Z" fill="#1F4E79"/><path d="M2058.06 1449.94C2058.06 1454.91 2054.03 1458.94 2049.06 1458.94 2044.09 1458.94 2040.06 1454.91 2040.06 1449.94 2040.06 1444.97 2044.09 1440.94 2049.06 1440.94 2054.03 1440.94 2058.06 1444.97 2058.06 1449.94Z" fill="#1F4E79"/><path d="M2064.06 681.938C2064.06 686.908 2060.03 690.938 2055.06 690.938 2050.09 690.938 2046.06 686.908 2046.06 681.938 2046.06 676.967 2050.09 672.938 2055.06 672.938 2060.03 672.938 2064.06 676.967 2064.06 681.938Z" fill="#1F4E79"/><path d="M2069.06 1468.94C2069.06 1473.91 2065.03 1477.94 2060.06 1477.94 2055.09 1477.94 2051.06 1473.91 2051.06 1468.94 2051.06 1463.97 2055.09 1459.94 2060.06 1459.94 2065.03 1459.94 2069.06 1463.97 2069.06 1468.94Z" fill="#1F4E79"/><path d="M3025.06 1435.94C3025.06 1440.91 3021.03 1444.94 3016.06 1444.94 3011.09 1444.94 3007.06 1440.91 3007.06 1435.94 3007.06 1430.97 3011.09 1426.94 3016.06 1426.94 3021.03 1426.94 3025.06 1430.97 3025.06 1435.94Z" fill="#1F4E79"/><path d="M3030.06 1303.94C3030.06 1308.91 3026.03 1312.94 3021.06 1312.94 3016.09 1312.94 3012.06 1308.91 3012.06 1303.94 3012.06 1298.97 3016.09 1294.94 3021.06 1294.94 3026.03 1294.94 3030.06 1298.97 3030.06 1303.94Z" fill="#1F4E79"/><path d="M3036.06 1319.94C3036.06 1324.91 3032.03 1328.94 3027.06 1328.94 3022.09 1328.94 3018.06 1324.91 3018.06 1319.94 3018.06 1314.97 3022.09 1310.94 3027.06 1310.94 3032.03 1310.94 3036.06 1314.97 3036.06 1319.94Z" fill="#1F4E79"/><path d="M3042.06 1326.94C3042.06 1331.91 3038.03 1335.94 3033.06 1335.94 3028.09 1335.94 3024.06 1331.91 3024.06 1326.94 3024.06 1321.97 3028.09 1317.94 3033.06 1317.94 3038.03 1317.94 3042.06 1321.97 3042.06 1326.94Z" fill="#1F4E79"/><path d="M3059.06 1298.94C3059.06 1303.91 3055.03 1307.94 3050.06 1307.94 3045.09 1307.94 3041.06 1303.91 3041.06 1298.94 3041.06 1293.97 3045.09 1289.94 3050.06 1289.94 3055.03 1289.94 3059.06 1293.97 3059.06 1298.94Z" fill="#1F4E79"/><path d="M3071.06 1315.94C3071.06 1320.91 3067.03 1324.94 3062.06 1324.94 3057.09 1324.94 3053.06 1320.91 3053.06 1315.94 3053.06 1310.97 3057.09 1306.94 3062.06 1306.94 3067.03 1306.94 3071.06 1310.97 3071.06 1315.94Z" fill="#1F4E79"/><path d="M3077.06 1320.94C3077.06 1325.91 3073.03 1329.94 3068.06 1329.94 3063.09 1329.94 3059.06 1325.91 3059.06 1320.94 3059.06 1315.97 3063.09 1311.94 3068.06 1311.94 3073.03 1311.94 3077.06 1315.97 3077.06 1320.94Z" fill="#1F4E79"/><path d="M3083.06 1335.94C3083.06 1340.91 3079.03 1344.94 3074.06 1344.94 3069.09 1344.94 3065.06 1340.91 3065.06 1335.94 3065.06 1330.97 3069.09 1326.94 3074.06 1326.94 3079.03 1326.94 3083.06 1330.97 3083.06 1335.94Z" fill="#1F4E79"/><path d="M3094.06 1450.94C3094.06 1455.91 3090.03 1459.94 3085.06 1459.94 3080.09 1459.94 3076.06 1455.91 3076.06 1450.94 3076.06 1445.97 3080.09 1441.94 3085.06 1441.94 3090.03 1441.94 3094.06 1445.97 3094.06 1450.94Z" fill="#1F4E79"/><path d="M3100.06 1451.94C3100.06 1456.91 3096.03 1460.94 3091.06 1460.94 3086.09 1460.94 3082.06 1456.91 3082.06 1451.94 3082.06 1446.97 3086.09 1442.94 3091.06 1442.94 3096.03 1442.94 3100.06 1446.97 3100.06 1451.94Z" fill="#1F4E79"/><path d="M3106.06 1498.94C3106.06 1503.91 3102.03 1507.94 3097.06 1507.94 3092.09 1507.94 3088.06 1503.91 3088.06 1498.94 3088.06 1493.97 3092.09 1489.94 3097.06 1489.94 3102.03 1489.94 3106.06 1493.97 3106.06 1498.94Z" fill="#1F4E79"/></g><g clip-path="url(#clip6)"><path d="M2156.06 650.938C2156.06 655.908 2152.03 659.938 2147.06 659.938 2142.09 659.938 2138.06 655.908 2138.06 650.938 2138.06 645.967 2142.09 641.938 2147.06 641.938 2152.03 641.938 2156.06 645.967 2156.06 650.938Z" fill="#C00000"/></g><g clip-path="url(#clip7)"><text fill="#7F7F7F" font-family="Calibri,Calibri_MSFontService,sans-serif" font-weight="400" font-size="55" transform="matrix(1 0 0 1 1097.25 1599)">-10</text></g><g clip-path="url(#clip8)"><text fill="#7F7F7F" font-family="Calibri,Calibri_MSFontService,sans-serif" font-weight="400" font-size="55" transform="matrix(1 0 0 1 1125.12 1523)">-9</text></g><g clip-path="url(#clip9)"><text fill="#7F7F7F" font-family="Calibri,Calibri_MSFontService,sans-serif" font-weight="400" font-size="55" transform="matrix(1 0 0 1 1125.12 1447)">-8</text></g><g clip-path="url(#clip10)"><text fill="#7F7F7F" font-family="Calibri,Calibri_MSFontService,sans-serif" font-weight="400" font-size="55" transform="matrix(1 0 0 1 1125.12 1371)">-7</text></g><g clip-path="url(#clip11)"><text fill="#7F7F7F" font-family="Calibri,Calibri_MSFontService,sans-serif" font-weight="400" font-size="55" transform="matrix(1 0 0 1 1125.12 1295)">-6</text></g><g clip-path="url(#clip12)"><text fill="#7F7F7F" font-family="Calibri,Calibri_MSFontService,sans-serif" font-weight="400" font-size="55" transform="matrix(1 0 0 1 1125.12 1218)">-5</text></g><g clip-path="url(#clip13)"><text fill="#7F7F7F" font-family="Calibri,Calibri_MSFontService,sans-serif" font-weight="400" font-size="55" transform="matrix(1 0 0 1 1125.12 1142)">-4</text></g><g clip-path="url(#clip14)"><text fill="#7F7F7F" font-family="Calibri,Calibri_MSFontService,sans-serif" font-weight="400" font-size="55" transform="matrix(1 0 0 1 1125.12 1066)">-3</text></g><g clip-path="url(#clip15)"><text fill="#7F7F7F" font-family="Calibri,Calibri_MSFontService,sans-serif" font-weight="400" font-size="55" transform="matrix(1 0 0 1 1125.12 990)">-2</text></g><g clip-path="url(#clip16)"><text fill="#7F7F7F" font-family="Calibri,Calibri_MSFontService,sans-serif" font-weight="400" font-size="55" transform="matrix(1 0 0 1 1125.12 914)">-1</text></g><g clip-path="url(#clip17)"><text fill="#7F7F7F" font-family="Calibri,Calibri_MSFontService,sans-serif" font-weight="400" font-size="55" transform="matrix(1 0 0 1 1141.96 838)">0</text></g><g clip-path="url(#clip18)"><text fill="#7F7F7F" font-family="Calibri,Calibri_MSFontService,sans-serif" font-weight="400" font-size="55" transform="matrix(1 0 0 1 1141.96 762)">1</text></g><g clip-path="url(#clip19)"><text fill="#7F7F7F" font-family="Calibri,Calibri_MSFontService,sans-serif" font-weight="400" font-size="55" transform="matrix(1 0 0 1 1141.96 685)">2</text></g><g clip-path="url(#clip20)"><text fill="#7F7F7F" font-family="Calibri,Calibri_MSFontService,sans-serif" font-weight="400" font-size="55" transform="matrix(1 0 0 1 1141.96 609)">3</text></g><g clip-path="url(#clip21)"><text fill="#7F7F7F" font-family="Calibri,Calibri_MSFontService,sans-serif" font-weight="700" font-size="55" transform="matrix(6.12323e-17 -1 1 6.12323e-17 1068.35 1291)">Laufzeitverhältnis</text></g><g clip-path="url(#clip22)"><text fill="#7F7F7F" font-family="Calibri,Calibri_MSFontService,sans-serif" font-weight="700" font-size="55" transform="matrix(1 0 0 1 2079.98 1643)">Testinstanzen</text></g><g clip-path="url(#clip23)"><path d="M1656 490C1656 494.971 1651.97 499 1647 499 1642.03 499 1638 494.971 1638 490 1638 485.029 1642.03 481 1647 481 1651.97 481 1656 485.029 1656 490Z" fill="#BFBFBF"/></g><g clip-path="url(#clip24)"><text fill="#7F7F7F" font-family="Calibri,Calibri_MSFontService,sans-serif" font-weight="400" font-size="55" transform="matrix(1 0 0 1 1675.98 506)">0.1s &lt; </text></g><g clip-path="url(#clip25)"><text fill="#7F7F7F" font-family="Calibri,Calibri_MSFontService,sans-serif" font-weight="400" font-size="55" transform="matrix(1 0 0 1 1819.39 506)">Δ</text></g><g clip-path="url(#clip26)"><text fill="#7F7F7F" font-family="Calibri,Calibri_MSFontService,sans-serif" font-weight="400" font-size="55" transform="matrix(1 0 0 1 1850.44 506)">t ≤ 1s</text></g><g clip-path="url(#clip27)"><path d="M2058 490C2058 494.971 2053.97 499 2049 499 2044.03 499 2040 494.971 2040 490 2040 485.029 2044.03 481 2049 481 2053.97 481 2058 485.029 2058 490Z" fill="#1F4E79"/></g><g clip-path="url(#clip28)"><text fill="#7F7F7F" font-family="Calibri,Calibri_MSFontService,sans-serif" font-weight="400" font-size="55" transform="matrix(1 0 0 1 2077.73 506)">1s &lt; </text></g><g clip-path="url(#clip29)"><text fill="#7F7F7F" font-family="Calibri,Calibri_MSFontService,sans-serif" font-weight="400" font-size="55" transform="matrix(1 0 0 1 2179.39 506)">Δ</text></g><g clip-path="url(#clip30)"><text fill="#7F7F7F" font-family="Calibri,Calibri_MSFontService,sans-serif" font-weight="400" font-size="55" transform="matrix(1 0 0 1 2210.44 506)">t ≤ 60s</text></g><g clip-path="url(#clip31)"><path d="M2446 490C2446 494.971 2441.97 499 2437 499 2432.03 499 2428 494.971 2428 490 2428 485.029 2432.03 481 2437 481 2441.97 481 2446 485.029 2446 490Z" fill="#C00000"/></g><g clip-path="url(#clip32)"><text fill="#7F7F7F" font-family="Calibri,Calibri_MSFontService,sans-serif" font-weight="400" font-size="55" transform="matrix(1 0 0 1 2465.6 506)">60s &lt; </text></g><g clip-path="url(#clip33)"><text fill="#7F7F7F" font-family="Calibri,Calibri_MSFontService,sans-serif" font-weight="400" font-size="55" transform="matrix(1 0 0 1 2595.12 506)">Δ</text></g><g clip-path="url(#clip34)"><text fill="#7F7F7F" font-family="Calibri,Calibri_MSFontService,sans-serif" font-weight="400" font-size="55" transform="matrix(1 0 0 1 2626.17 506)">t</text></g><rect x="959.5" y="416.5" width="2339" height="1299" stroke="#D9D9D9" stroke-width="3.4375" stroke-linejoin="round" stroke-miterlimit="10" fill="none"/></g></svg>