<svg width="2342" height="1302" xmlns="http://www.w3.org/2000/svg" xmlns:xlink="http://www.w3.org/1999/xlink" overflow="hidden"><defs><clipPath id="clip0"><rect x="958" y="415" width="2342" height="1302"/></clipPath><radialGradient cx="3.24058e+06" cy="1.79971e+06" r="3.70679e+06" fx="3.24058e+06" fy="1.79971e+06" gradientUnits="userSpaceOnUse" spreadMethod="pad" id="fill1" gradientTransform="matrix(0.000360892 0 0 0.000360892 959 416)"><stop offset="0" stop-color="#FFFFFF"/><stop offset="0.43" stop-color="#FFFFFF"/><stop offset="1" stop-color="#F2F2F2"/></radialGradient><clipPath id="clip2"><rect x="959" y="415" width="2338" height="1300"/></clipPath><clipPath id="clip3"><rect x="959" y="415" width="2338" height="1300"/></clipPath><clipPath id="clip4"><rect x="959" y="415" width="2338" height="1300"/></clipPath><clipPath id="clip5"><rect x="959" y="415" width="2338" height="1300"/></clipPath><clipPath id="clip6"><rect x="959" y="415" width="2338" height="1300"/></clipPath><clipPath id="clip7"><rect x="959" y="415" width="2338" height="1300"/></clipPath><clipPath id="clip8"><rect x="959" y="415" width="2338" height="1300"/></clipPath><clipPath id="clip9"><rect x="959" y="415" width="2338" height="1300"/></clipPath><clipPath id="clip10"><rect x="959" y="415" width="2338" height="1300"/></clipPath><clipPath id="clip11"><rect x="959" y="415" width="2338" height="1300"/></clipPath><clipPath id="clip12"><rect x="959" y="415" width="2338" height="1300"/></clipPath><clipPath id="clip13"><rect x="959" y="415" width="2338" height="1300"/></clipPath><clipPath id="clip14"><rect x="959" y="415" width="2338" height="1300"/></clipPath><clipPath id="clip15"><rect x="959" y="415" width="2338" height="1300"/></clipPath><clipPath id="clip16"><rect x="959" y="415" width="2338" height="1300"/></clipPath><clipPath id="clip17"><rect x="959" y="415" width="2338" height="1300"/></clipPath><clipPath id="clip18"><rect x="959" y="415" width="2338" height="1300"/></clipPath><clipPath id="clip19"><rect x="959" y="415" width="2338" height="1300"/></clipPath><clipPath id="clip20"><rect x="959" y="415" width="2338" height="1300"/></clipPath></defs><g clip-path="url(#clip0)" transform="translate(-958 -415)"><rect x="959" y="416" width="2339" height="1299" fill="url(#fill1)"/><g clip-path="url(#clip2)"><path d="M1112.5 1658.5 3247.5 1658.5M1112.5 1567.55 3247.5 1567.55M1112.5 1476.55 3247.5 1476.55M1112.5 1384.55 3247.5 1384.55M1112.5 1293.54 3247.5 1293.54M1112.5 1202.54 3247.5 1202.54M1112.5 1111.54 3247.5 1111.54M1112.5 1019.53 3247.5 1019.53M1112.5 928.531 3247.5 928.531M1112.5 837.528 3247.5 837.528M1112.5 654.522 3247.5 654.522M1112.5 563.519 3247.5 563.519M1112.5 472.5 3247.5 472.5" stroke="#D9D9D9" stroke-width="3.4375" stroke-linejoin="round" stroke-miterlimit="10" fill="none"/></g><g clip-path="url(#clip3)"><path d="M1112.5 746.5 3247.5 746.5" stroke="#000000" stroke-width="11.4583" stroke-linejoin="round" stroke-miterlimit="10" fill="none" fill-rule="evenodd"/></g><g clip-path="url(#clip4)"><path d="M1280.06 566.938C1280.06 571.908 1276.03 575.938 1271.06 575.938 1266.09 575.938 1262.06 571.908 1262.06 566.938 1262.06 561.967 1266.09 557.938 1271.06 557.938 1276.03 557.938 1280.06 561.967 1280.06 566.938Z" fill="#BFBFBF"/><path d="M1317.06 1207.94C1317.06 1212.91 1313.03 1216.94 1308.06 1216.94 1303.09 1216.94 1299.06 1212.91 1299.06 1207.94 1299.06 1202.97 1303.09 1198.94 1308.06 1198.94 1313.03 1198.94 1317.06 1202.97 1317.06 1207.94Z" fill="#BFBFBF"/><path d="M1323.06 1228.94C1323.06 1233.91 1319.03 1237.94 1314.06 1237.94 1309.09 1237.94 1305.06 1233.91 1305.06 1228.94 1305.06 1223.97 1309.09 1219.94 1314.06 1219.94 1319.03 1219.94 1323.06 1223.97 1323.06 1228.94Z" fill="#BFBFBF"/><path d="M1329.06 1219.94C1329.06 1224.91 1325.03 1228.94 1320.06 1228.94 1315.09 1228.94 1311.06 1224.91 1311.06 1219.94 1311.06 1214.97 1315.09 1210.94 1320.06 1210.94 1325.03 1210.94 1329.06 1214.97 1329.06 1219.94Z" fill="#BFBFBF"/><path d="M1335.06 1210.94C1335.06 1215.91 1331.03 1219.94 1326.06 1219.94 1321.09 1219.94 1317.06 1215.91 1317.06 1210.94 1317.06 1205.97 1321.09 1201.94 1326.06 1201.94 1331.03 1201.94 1335.06 1205.97 1335.06 1210.94Z" fill="#BFBFBF"/><path d="M1353.06 1306.94C1353.06 1311.91 1349.03 1315.94 1344.06 1315.94 1339.09 1315.94 1335.06 1311.91 1335.06 1306.94 1335.06 1301.97 1339.09 1297.94 1344.06 1297.94 1349.03 1297.94 1353.06 1301.97 1353.06 1306.94Z" fill="#BFBFBF"/><path d="M1378.06 624.938C1378.06 629.908 1374.03 633.938 1369.06 633.938 1364.09 633.938 1360.06 629.908 1360.06 624.938 1360.06 619.967 1364.09 615.938 1369.06 615.938 1374.03 615.938 1378.06 619.967 1378.06 624.938Z" fill="#BFBFBF"/><path d="M1384.06 610.938C1384.06 615.908 1380.03 619.938 1375.06 619.938 1370.09 619.938 1366.06 615.908 1366.06 610.938 1366.06 605.967 1370.09 601.938 1375.06 601.938 1380.03 601.938 1384.06 605.967 1384.06 610.938Z" fill="#BFBFBF"/><path d="M1390.06 614.938C1390.06 619.908 1386.03 623.938 1381.06 623.938 1376.09 623.938 1372.06 619.908 1372.06 614.938 1372.06 609.967 1376.09 605.938 1381.06 605.938 1386.03 605.938 1390.06 609.967 1390.06 614.938Z" fill="#BFBFBF"/><path d="M1396.06 581.938C1396.06 586.908 1392.03 590.938 1387.06 590.938 1382.09 590.938 1378.06 586.908 1378.06 581.938 1378.06 576.967 1382.09 572.938 1387.06 572.938 1392.03 572.938 1396.06 576.967 1396.06 581.938Z" fill="#BFBFBF"/><path d="M1402.06 603.938C1402.06 608.908 1398.03 612.938 1393.06 612.938 1388.09 612.938 1384.06 608.908 1384.06 603.938 1384.06 598.967 1388.09 594.938 1393.06 594.938 1398.03 594.938 1402.06 598.967 1402.06 603.938Z" fill="#BFBFBF"/><path d="M1408.06 603.938C1408.06 608.908 1404.03 612.938 1399.06 612.938 1394.09 612.938 1390.06 608.908 1390.06 603.938 1390.06 598.967 1394.09 594.938 1399.06 594.938 1404.03 594.938 1408.06 598.967 1408.06 603.938Z" fill="#BFBFBF"/><path d="M1414.06 610.938C1414.06 615.908 1410.03 619.938 1405.06 619.938 1400.09 619.938 1396.06 615.908 1396.06 610.938 1396.06 605.967 1400.09 601.938 1405.06 601.938 1410.03 601.938 1414.06 605.967 1414.06 610.938Z" fill="#BFBFBF"/><path d="M1420.06 1297.94C1420.06 1302.91 1416.03 1306.94 1411.06 1306.94 1406.09 1306.94 1402.06 1302.91 1402.06 1297.94 1402.06 1292.97 1406.09 1288.94 1411.06 1288.94 1416.03 1288.94 1420.06 1292.97 1420.06 1297.94Z" fill="#BFBFBF"/><path d="M1426.06 1312.94C1426.06 1317.91 1422.03 1321.94 1417.06 1321.94 1412.09 1321.94 1408.06 1317.91 1408.06 1312.94 1408.06 1307.97 1412.09 1303.94 1417.06 1303.94 1422.03 1303.94 1426.06 1307.97 1426.06 1312.94Z" fill="#BFBFBF"/><path d="M1445.06 1319.94C1445.06 1324.91 1441.03 1328.94 1436.06 1328.94 1431.09 1328.94 1427.06 1324.91 1427.06 1319.94 1427.06 1314.97 1431.09 1310.94 1436.06 1310.94 1441.03 1310.94 1445.06 1314.97 1445.06 1319.94Z" fill="#BFBFBF"/><path d="M1451.06 1250.94C1451.06 1255.91 1447.03 1259.94 1442.06 1259.94 1437.09 1259.94 1433.06 1255.91 1433.06 1250.94 1433.06 1245.97 1437.09 1241.94 1442.06 1241.94 1447.03 1241.94 1451.06 1245.97 1451.06 1250.94Z" fill="#BFBFBF"/><path d="M1469.06 1309.94C1469.06 1314.91 1465.03 1318.94 1460.06 1318.94 1455.09 1318.94 1451.06 1314.91 1451.06 1309.94 1451.06 1304.97 1455.09 1300.94 1460.06 1300.94 1465.03 1300.94 1469.06 1304.97 1469.06 1309.94Z" fill="#BFBFBF"/><path d="M1494.06 1092.94C1494.06 1097.91 1490.03 1101.94 1485.06 1101.94 1480.09 1101.94 1476.06 1097.91 1476.06 1092.94 1476.06 1087.97 1480.09 1083.94 1485.06 1083.94 1490.03 1083.94 1494.06 1087.97 1494.06 1092.94Z" fill="#BFBFBF"/><path d="M1500.06 627.938C1500.06 632.908 1496.03 636.938 1491.06 636.938 1486.09 636.938 1482.06 632.908 1482.06 627.938 1482.06 622.967 1486.09 618.938 1491.06 618.938 1496.03 618.938 1500.06 622.967 1500.06 627.938Z" fill="#BFBFBF"/><path d="M1524.06 845.938C1524.06 850.908 1520.03 854.938 1515.06 854.938 1510.09 854.938 1506.06 850.908 1506.06 845.938 1506.06 840.967 1510.09 836.938 1515.06 836.938 1520.03 836.938 1524.06 840.967 1524.06 845.938Z" fill="#BFBFBF"/><path d="M1542.06 1162.94C1542.06 1167.91 1538.03 1171.94 1533.06 1171.94 1528.09 1171.94 1524.06 1167.91 1524.06 1162.94 1524.06 1157.97 1528.09 1153.94 1533.06 1153.94 1538.03 1153.94 1542.06 1157.97 1542.06 1162.94Z" fill="#BFBFBF"/><path d="M1622.06 629.938C1622.06 634.908 1618.03 638.938 1613.06 638.938 1608.09 638.938 1604.06 634.908 1604.06 629.938 1604.06 624.967 1608.09 620.938 1613.06 620.938 1618.03 620.938 1622.06 624.967 1622.06 629.938Z" fill="#BFBFBF"/><path d="M1689.06 1315.94C1689.06 1320.91 1685.03 1324.94 1680.06 1324.94 1675.09 1324.94 1671.06 1320.91 1671.06 1315.94 1671.06 1310.97 1675.09 1306.94 1680.06 1306.94 1685.03 1306.94 1689.06 1310.97 1689.06 1315.94Z" fill="#BFBFBF"/><path d="M1695.06 580.938C1695.06 585.908 1691.03 589.938 1686.06 589.938 1681.09 589.938 1677.06 585.908 1677.06 580.938 1677.06 575.967 1681.09 571.938 1686.06 571.938 1691.03 571.938 1695.06 575.967 1695.06 580.938Z" fill="#BFBFBF"/><path d="M1701.06 567.938C1701.06 572.908 1697.03 576.938 1692.06 576.938 1687.09 576.938 1683.06 572.908 1683.06 567.938 1683.06 562.967 1687.09 558.938 1692.06 558.938 1697.03 558.938 1701.06 562.967 1701.06 567.938Z" fill="#BFBFBF"/><path d="M1707.06 589.938C1707.06 594.908 1703.03 598.938 1698.06 598.938 1693.09 598.938 1689.06 594.908 1689.06 589.938 1689.06 584.967 1693.09 580.938 1698.06 580.938 1703.03 580.938 1707.06 584.967 1707.06 589.938Z" fill="#BFBFBF"/><path d="M1713.06 544.938C1713.06 549.908 1709.03 553.938 1704.06 553.938 1699.09 553.938 1695.06 549.908 1695.06 544.938 1695.06 539.967 1699.09 535.938 1704.06 535.938 1709.03 535.938 1713.06 539.967 1713.06 544.938Z" fill="#BFBFBF"/><path d="M1725.06 572.938C1725.06 577.908 1721.03 581.938 1716.06 581.938 1711.09 581.938 1707.06 577.908 1707.06 572.938 1707.06 567.967 1711.09 563.938 1716.06 563.938 1721.03 563.938 1725.06 567.967 1725.06 572.938Z" fill="#BFBFBF"/><path d="M1750.06 585.938C1750.06 590.908 1746.03 594.938 1741.06 594.938 1736.09 594.938 1732.06 590.908 1732.06 585.938 1732.06 580.967 1736.09 576.938 1741.06 576.938 1746.03 576.938 1750.06 580.967 1750.06 585.938Z" fill="#BFBFBF"/><path d="M1756.06 542.938C1756.06 547.908 1752.03 551.938 1747.06 551.938 1742.09 551.938 1738.06 547.908 1738.06 542.938 1738.06 537.967 1742.09 533.938 1747.06 533.938 1752.03 533.938 1756.06 537.967 1756.06 542.938Z" fill="#BFBFBF"/><path d="M1762.06 584.938C1762.06 589.908 1758.03 593.938 1753.06 593.938 1748.09 593.938 1744.06 589.908 1744.06 584.938 1744.06 579.967 1748.09 575.938 1753.06 575.938 1758.03 575.938 1762.06 579.967 1762.06 584.938Z" fill="#BFBFBF"/><path d="M1768.06 619.938C1768.06 624.908 1764.03 628.938 1759.06 628.938 1754.09 628.938 1750.06 624.908 1750.06 619.938 1750.06 614.967 1754.09 610.938 1759.06 610.938 1764.03 610.938 1768.06 614.967 1768.06 619.938Z" fill="#BFBFBF"/><path d="M1774.06 558.938C1774.06 563.908 1770.03 567.938 1765.06 567.938 1760.09 567.938 1756.06 563.908 1756.06 558.938 1756.06 553.967 1760.09 549.938 1765.06 549.938 1770.03 549.938 1774.06 553.967 1774.06 558.938Z" fill="#BFBFBF"/><path d="M1786.06 608.938C1786.06 613.908 1782.03 617.938 1777.06 617.938 1772.09 617.938 1768.06 613.908 1768.06 608.938 1768.06 603.967 1772.09 599.938 1777.06 599.938 1782.03 599.938 1786.06 603.967 1786.06 608.938Z" fill="#BFBFBF"/><path d="M1792.06 605.938C1792.06 610.908 1788.03 614.938 1783.06 614.938 1778.09 614.938 1774.06 610.908 1774.06 605.938 1774.06 600.967 1778.09 596.938 1783.06 596.938 1788.03 596.938 1792.06 600.967 1792.06 605.938Z" fill="#BFBFBF"/><path d="M1798.06 574.938C1798.06 579.908 1794.03 583.938 1789.06 583.938 1784.09 583.938 1780.06 579.908 1780.06 574.938 1780.06 569.967 1784.09 565.938 1789.06 565.938 1794.03 565.938 1798.06 569.967 1798.06 574.938Z" fill="#BFBFBF"/><path d="M1805.06 642.938C1805.06 647.908 1801.03 651.938 1796.06 651.938 1791.09 651.938 1787.06 647.908 1787.06 642.938 1787.06 637.967 1791.09 633.938 1796.06 633.938 1801.03 633.938 1805.06 637.967 1805.06 642.938Z" fill="#BFBFBF"/><path d="M1811.06 580.938C1811.06 585.908 1807.03 589.938 1802.06 589.938 1797.09 589.938 1793.06 585.908 1793.06 580.938 1793.06 575.967 1797.09 571.938 1802.06 571.938 1807.03 571.938 1811.06 575.967 1811.06 580.938Z" fill="#BFBFBF"/><path d="M1817.06 607.938C1817.06 612.908 1813.03 616.938 1808.06 616.938 1803.09 616.938 1799.06 612.908 1799.06 607.938 1799.06 602.967 1803.09 598.938 1808.06 598.938 1813.03 598.938 1817.06 602.967 1817.06 607.938Z" fill="#BFBFBF"/><path d="M1823.06 609.938C1823.06 614.908 1819.03 618.938 1814.06 618.938 1809.09 618.938 1805.06 614.908 1805.06 609.938 1805.06 604.967 1809.09 600.938 1814.06 600.938 1819.03 600.938 1823.06 604.967 1823.06 609.938Z" fill="#BFBFBF"/><path d="M1829.06 598.938C1829.06 603.908 1825.03 607.938 1820.06 607.938 1815.09 607.938 1811.06 603.908 1811.06 598.938 1811.06 593.967 1815.09 589.938 1820.06 589.938 1825.03 589.938 1829.06 593.967 1829.06 598.938Z" fill="#BFBFBF"/><path d="M1933.06 612.938C1933.06 617.908 1929.03 621.938 1924.06 621.938 1919.09 621.938 1915.06 617.908 1915.06 612.938 1915.06 607.967 1919.09 603.938 1924.06 603.938 1929.03 603.938 1933.06 607.967 1933.06 612.938Z" fill="#BFBFBF"/><path d="M1939.06 629.938C1939.06 634.908 1935.03 638.938 1930.06 638.938 1925.09 638.938 1921.06 634.908 1921.06 629.938 1921.06 624.967 1925.09 620.938 1930.06 620.938 1935.03 620.938 1939.06 624.967 1939.06 629.938Z" fill="#BFBFBF"/><path d="M1963.06 599.938C1963.06 604.908 1959.03 608.938 1954.06 608.938 1949.09 608.938 1945.06 604.908 1945.06 599.938 1945.06 594.967 1949.09 590.938 1954.06 590.938 1959.03 590.938 1963.06 594.967 1963.06 599.938Z" fill="#BFBFBF"/><path d="M2012.06 1147.94C2012.06 1152.91 2008.03 1156.94 2003.06 1156.94 1998.09 1156.94 1994.06 1152.91 1994.06 1147.94 1994.06 1142.97 1998.09 1138.94 2003.06 1138.94 2008.03 1138.94 2012.06 1142.97 2012.06 1147.94Z" fill="#BFBFBF"/><path d="M2018.06 1039.94C2018.06 1044.91 2014.03 1048.94 2009.06 1048.94 2004.09 1048.94 2000.06 1044.91 2000.06 1039.94 2000.06 1034.97 2004.09 1030.94 2009.06 1030.94 2014.03 1030.94 2018.06 1034.97 2018.06 1039.94Z" fill="#BFBFBF"/><path d="M2024.06 1127.94C2024.06 1132.91 2020.03 1136.94 2015.06 1136.94 2010.09 1136.94 2006.06 1132.91 2006.06 1127.94 2006.06 1122.97 2010.09 1118.94 2015.06 1118.94 2020.03 1118.94 2024.06 1122.97 2024.06 1127.94Z" fill="#BFBFBF"/><path d="M2030.06 1248.94C2030.06 1253.91 2026.03 1257.94 2021.06 1257.94 2016.09 1257.94 2012.06 1253.91 2012.06 1248.94 2012.06 1243.97 2016.09 1239.94 2021.06 1239.94 2026.03 1239.94 2030.06 1243.97 2030.06 1248.94Z" fill="#BFBFBF"/><path d="M2036.06 1093.94C2036.06 1098.91 2032.03 1102.94 2027.06 1102.94 2022.09 1102.94 2018.06 1098.91 2018.06 1093.94 2018.06 1088.97 2022.09 1084.94 2027.06 1084.94 2032.03 1084.94 2036.06 1088.97 2036.06 1093.94Z" fill="#BFBFBF"/><path d="M2042.06 1043.94C2042.06 1048.91 2038.03 1052.94 2033.06 1052.94 2028.09 1052.94 2024.06 1048.91 2024.06 1043.94 2024.06 1038.97 2028.09 1034.94 2033.06 1034.94 2038.03 1034.94 2042.06 1038.97 2042.06 1043.94Z" fill="#BFBFBF"/><path d="M2049.06 1077.94C2049.06 1082.91 2045.03 1086.94 2040.06 1086.94 2035.09 1086.94 2031.06 1082.91 2031.06 1077.94 2031.06 1072.97 2035.09 1068.94 2040.06 1068.94 2045.03 1068.94 2049.06 1072.97 2049.06 1077.94Z" fill="#BFBFBF"/><path d="M2055.06 642.938C2055.06 647.908 2051.03 651.938 2046.06 651.938 2041.09 651.938 2037.06 647.908 2037.06 642.938 2037.06 637.967 2041.09 633.938 2046.06 633.938 2051.03 633.938 2055.06 637.967 2055.06 642.938Z" fill="#BFBFBF"/><path d="M2067.06 585.938C2067.06 590.908 2063.03 594.938 2058.06 594.938 2053.09 594.938 2049.06 590.908 2049.06 585.938 2049.06 580.967 2053.09 576.938 2058.06 576.938 2063.03 576.938 2067.06 580.967 2067.06 585.938Z" fill="#BFBFBF"/><path d="M2073.06 572.938C2073.06 577.908 2069.03 581.938 2064.06 581.938 2059.09 581.938 2055.06 577.908 2055.06 572.938 2055.06 567.967 2059.09 563.938 2064.06 563.938 2069.03 563.938 2073.06 567.967 2073.06 572.938Z" fill="#BFBFBF"/><path d="M2079.06 620.938C2079.06 625.908 2075.03 629.938 2070.06 629.938 2065.09 629.938 2061.06 625.908 2061.06 620.938 2061.06 615.967 2065.09 611.938 2070.06 611.938 2075.03 611.938 2079.06 615.967 2079.06 620.938Z" fill="#BFBFBF"/><path d="M2085.06 604.938C2085.06 609.908 2081.03 613.938 2076.06 613.938 2071.09 613.938 2067.06 609.908 2067.06 604.938 2067.06 599.967 2071.09 595.938 2076.06 595.938 2081.03 595.938 2085.06 599.967 2085.06 604.938Z" fill="#BFBFBF"/><path d="M2091.06 623.938C2091.06 628.908 2087.03 632.938 2082.06 632.938 2077.09 632.938 2073.06 628.908 2073.06 623.938 2073.06 618.967 2077.09 614.938 2082.06 614.938 2087.03 614.938 2091.06 618.967 2091.06 623.938Z" fill="#BFBFBF"/><path d="M2103.06 629.938C2103.06 634.908 2099.03 638.938 2094.06 638.938 2089.09 638.938 2085.06 634.908 2085.06 629.938 2085.06 624.967 2089.09 620.938 2094.06 620.938 2099.03 620.938 2103.06 624.967 2103.06 629.938Z" fill="#BFBFBF"/><path d="M2110.06 649.938C2110.06 654.908 2106.03 658.938 2101.06 658.938 2096.09 658.938 2092.06 654.908 2092.06 649.938 2092.06 644.967 2096.09 640.938 2101.06 640.938 2106.03 640.938 2110.06 644.967 2110.06 649.938Z" fill="#BFBFBF"/><path d="M2927.06 1167.94C2927.06 1172.91 2923.03 1176.94 2918.06 1176.94 2913.09 1176.94 2909.06 1172.91 2909.06 1167.94 2909.06 1162.97 2913.09 1158.94 2918.06 1158.94 2923.03 1158.94 2927.06 1162.97 2927.06 1167.94Z" fill="#BFBFBF"/><path d="M2933.06 1258.94C2933.06 1263.91 2929.03 1267.94 2924.06 1267.94 2919.09 1267.94 2915.06 1263.91 2915.06 1258.94 2915.06 1253.97 2919.09 1249.94 2924.06 1249.94 2929.03 1249.94 2933.06 1253.97 2933.06 1258.94Z" fill="#BFBFBF"/><path d="M2939.06 1216.94C2939.06 1221.91 2935.03 1225.94 2930.06 1225.94 2925.09 1225.94 2921.06 1221.91 2921.06 1216.94 2921.06 1211.97 2925.09 1207.94 2930.06 1207.94 2935.03 1207.94 2939.06 1211.97 2939.06 1216.94Z" fill="#BFBFBF"/><path d="M2945.06 1172.94C2945.06 1177.91 2941.03 1181.94 2936.06 1181.94 2931.09 1181.94 2927.06 1177.91 2927.06 1172.94 2927.06 1167.97 2931.09 1163.94 2936.06 1163.94 2941.03 1163.94 2945.06 1167.97 2945.06 1172.94Z" fill="#BFBFBF"/><path d="M2951.06 1239.94C2951.06 1244.91 2947.03 1248.94 2942.06 1248.94 2937.09 1248.94 2933.06 1244.91 2933.06 1239.94 2933.06 1234.97 2937.09 1230.94 2942.06 1230.94 2947.03 1230.94 2951.06 1234.97 2951.06 1239.94Z" fill="#BFBFBF"/><path d="M2957.06 1136.94C2957.06 1141.91 2953.03 1145.94 2948.06 1145.94 2943.09 1145.94 2939.06 1141.91 2939.06 1136.94 2939.06 1131.97 2943.09 1127.94 2948.06 1127.94 2953.03 1127.94 2957.06 1131.97 2957.06 1136.94Z" fill="#BFBFBF"/><path d="M2976.06 627.938C2976.06 632.908 2972.03 636.938 2967.06 636.938 2962.09 636.938 2958.06 632.908 2958.06 627.938 2958.06 622.967 2962.09 618.938 2967.06 618.938 2972.03 618.938 2976.06 622.967 2976.06 627.938Z" fill="#BFBFBF"/><path d="M2982.06 604.938C2982.06 609.908 2978.03 613.938 2973.06 613.938 2968.09 613.938 2964.06 609.908 2964.06 604.938 2964.06 599.967 2968.09 595.938 2973.06 595.938 2978.03 595.938 2982.06 599.967 2982.06 604.938Z" fill="#BFBFBF"/><path d="M2988.06 611.938C2988.06 616.908 2984.03 620.938 2979.06 620.938 2974.09 620.938 2970.06 616.908 2970.06 611.938 2970.06 606.967 2974.09 602.938 2979.06 602.938 2984.03 602.938 2988.06 606.967 2988.06 611.938Z" fill="#BFBFBF"/><path d="M2994.06 582.938C2994.06 587.908 2990.03 591.938 2985.06 591.938 2980.09 591.938 2976.06 587.908 2976.06 582.938 2976.06 577.967 2980.09 573.938 2985.06 573.938 2990.03 573.938 2994.06 577.967 2994.06 582.938Z" fill="#BFBFBF"/><path d="M3000.06 553.938C3000.06 558.908 2996.03 562.938 2991.06 562.938 2986.09 562.938 2982.06 558.908 2982.06 553.938 2982.06 548.967 2986.09 544.938 2991.06 544.938 2996.03 544.938 3000.06 548.967 3000.06 553.938Z" fill="#BFBFBF"/><path d="M3006.06 1313.94C3006.06 1318.91 3002.03 1322.94 2997.06 1322.94 2992.09 1322.94 2988.06 1318.91 2988.06 1313.94 2988.06 1308.97 2992.09 1304.94 2997.06 1304.94 3002.03 1304.94 3006.06 1308.97 3006.06 1313.94Z" fill="#BFBFBF"/><path d="M3037.06 1327.94C3037.06 1332.91 3033.03 1336.94 3028.06 1336.94 3023.09 1336.94 3019.06 1332.91 3019.06 1327.94 3019.06 1322.97 3023.09 1318.94 3028.06 1318.94 3033.03 1318.94 3037.06 1322.97 3037.06 1327.94Z" fill="#BFBFBF"/><path d="M3043.06 1232.94C3043.06 1237.91 3039.03 1241.94 3034.06 1241.94 3029.09 1241.94 3025.06 1237.91 3025.06 1232.94 3025.06 1227.97 3029.09 1223.94 3034.06 1223.94 3039.03 1223.94 3043.06 1227.97 3043.06 1232.94Z" fill="#BFBFBF"/><path d="M3055.06 1311.94C3055.06 1316.91 3051.03 1320.94 3046.06 1320.94 3041.09 1320.94 3037.06 1316.91 3037.06 1311.94 3037.06 1306.97 3041.09 1302.94 3046.06 1302.94 3051.03 1302.94 3055.06 1306.97 3055.06 1311.94Z" fill="#BFBFBF"/><path d="M3079.06 625.938C3079.06 630.908 3075.03 634.938 3070.06 634.938 3065.09 634.938 3061.06 630.908 3061.06 625.938 3061.06 620.967 3065.09 616.938 3070.06 616.938 3075.03 616.938 3079.06 620.967 3079.06 625.938Z" fill="#BFBFBF"/><path d="M3104.06 860.938C3104.06 865.908 3100.03 869.938 3095.06 869.938 3090.09 869.938 3086.06 865.908 3086.06 860.938 3086.06 855.967 3090.09 851.938 3095.06 851.938 3100.03 851.938 3104.06 855.967 3104.06 860.938Z" fill="#BFBFBF"/><path d="M3110.06 842.938C3110.06 847.908 3106.03 851.938 3101.06 851.938 3096.09 851.938 3092.06 847.908 3092.06 842.938 3092.06 837.967 3096.09 833.938 3101.06 833.938 3106.03 833.938 3110.06 837.967 3110.06 842.938Z" fill="#BFBFBF"/></g><g clip-path="url(#clip5)"><path d="M1311.06 1304.94C1311.06 1309.91 1307.03 1313.94 1302.06 1313.94 1297.09 1313.94 1293.06 1309.91 1293.06 1304.94 1293.06 1299.97 1297.09 1295.94 1302.06 1295.94 1307.03 1295.94 1311.06 1299.97 1311.06 1304.94Z" fill="#1F4E79"/><path d="M1433.06 1496.94C1433.06 1501.91 1429.03 1505.94 1424.06 1505.94 1419.09 1505.94 1415.06 1501.91 1415.06 1496.94 1415.06 1491.97 1419.09 1487.94 1424.06 1487.94 1429.03 1487.94 1433.06 1491.97 1433.06 1496.94Z" fill="#1F4E79"/><path d="M1439.06 1341.94C1439.06 1346.91 1435.03 1350.94 1430.06 1350.94 1425.09 1350.94 1421.06 1346.91 1421.06 1341.94 1421.06 1336.97 1425.09 1332.94 1430.06 1332.94 1435.03 1332.94 1439.06 1336.97 1439.06 1341.94Z" fill="#1F4E79"/><path d="M1457.06 1333.94C1457.06 1338.91 1453.03 1342.94 1448.06 1342.94 1443.09 1342.94 1439.06 1338.91 1439.06 1333.94 1439.06 1328.97 1443.09 1324.94 1448.06 1324.94 1453.03 1324.94 1457.06 1328.97 1457.06 1333.94Z" fill="#1F4E79"/><path d="M1463.06 1316.94C1463.06 1321.91 1459.03 1325.94 1454.06 1325.94 1449.09 1325.94 1445.06 1321.91 1445.06 1316.94 1445.06 1311.97 1449.09 1307.94 1454.06 1307.94 1459.03 1307.94 1463.06 1311.97 1463.06 1316.94Z" fill="#1F4E79"/><path d="M1475.06 1328.94C1475.06 1333.91 1471.03 1337.94 1466.06 1337.94 1461.09 1337.94 1457.06 1333.91 1457.06 1328.94 1457.06 1323.97 1461.09 1319.94 1466.06 1319.94 1471.03 1319.94 1475.06 1323.97 1475.06 1328.94Z" fill="#1F4E79"/><path d="M1481.06 1362.94C1481.06 1367.91 1477.03 1371.94 1472.06 1371.94 1467.09 1371.94 1463.06 1367.91 1463.06 1362.94 1463.06 1357.97 1467.09 1353.94 1472.06 1353.94 1477.03 1353.94 1481.06 1357.97 1481.06 1362.94Z" fill="#1F4E79"/><path d="M1487.06 1340.94C1487.06 1345.91 1483.03 1349.94 1478.06 1349.94 1473.09 1349.94 1469.06 1345.91 1469.06 1340.94 1469.06 1335.97 1473.09 1331.94 1478.06 1331.94 1483.03 1331.94 1487.06 1335.97 1487.06 1340.94Z" fill="#1F4E79"/><path d="M1506.06 1504.94C1506.06 1509.91 1502.03 1513.94 1497.06 1513.94 1492.09 1513.94 1488.06 1509.91 1488.06 1504.94 1488.06 1499.97 1492.09 1495.94 1497.06 1495.94 1502.03 1495.94 1506.06 1499.97 1506.06 1504.94Z" fill="#1F4E79"/><path d="M1512.06 1502.94C1512.06 1507.91 1508.03 1511.94 1503.06 1511.94 1498.09 1511.94 1494.06 1507.91 1494.06 1502.94 1494.06 1497.97 1498.09 1493.94 1503.06 1493.94 1508.03 1493.94 1512.06 1497.97 1512.06 1502.94Z" fill="#1F4E79"/><path d="M1518.06 1549.94C1518.06 1554.91 1514.03 1558.94 1509.06 1558.94 1504.09 1558.94 1500.06 1554.91 1500.06 1549.94 1500.06 1544.97 1504.09 1540.94 1509.06 1540.94 1514.03 1540.94 1518.06 1544.97 1518.06 1549.94Z" fill="#1F4E79"/><path d="M1658.06 1498.94C1658.06 1503.91 1654.03 1507.94 1649.06 1507.94 1644.09 1507.94 1640.06 1503.91 1640.06 1498.94 1640.06 1493.97 1644.09 1489.94 1649.06 1489.94 1654.03 1489.94 1658.06 1493.97 1658.06 1498.94Z" fill="#1F4E79"/><path d="M1664.06 1484.94C1664.06 1489.91 1660.03 1493.94 1655.06 1493.94 1650.09 1493.94 1646.06 1489.91 1646.06 1484.94 1646.06 1479.97 1650.09 1475.94 1655.06 1475.94 1660.03 1475.94 1664.06 1479.97 1664.06 1484.94Z" fill="#1F4E79"/><path d="M1670.06 1462.94C1670.06 1467.91 1666.03 1471.94 1661.06 1471.94 1656.09 1471.94 1652.06 1467.91 1652.06 1462.94 1652.06 1457.97 1656.09 1453.94 1661.06 1453.94 1666.03 1453.94 1670.06 1457.97 1670.06 1462.94Z" fill="#1F4E79"/><path d="M1676.06 1357.94C1676.06 1362.91 1672.03 1366.94 1667.06 1366.94 1662.09 1366.94 1658.06 1362.91 1658.06 1357.94 1658.06 1352.97 1662.09 1348.94 1667.06 1348.94 1672.03 1348.94 1676.06 1352.97 1676.06 1357.94Z" fill="#1F4E79"/><path d="M1731.06 1517.94C1731.06 1522.91 1727.03 1526.94 1722.06 1526.94 1717.09 1526.94 1713.06 1522.91 1713.06 1517.94 1713.06 1512.97 1717.09 1508.94 1722.06 1508.94 1727.03 1508.94 1731.06 1512.97 1731.06 1517.94Z" fill="#1F4E79"/><path d="M1737.06 538.938C1737.06 543.908 1733.03 547.938 1728.06 547.938 1723.09 547.938 1719.06 543.908 1719.06 538.938 1719.06 533.967 1723.09 529.938 1728.06 529.938 1733.03 529.938 1737.06 533.967 1737.06 538.938Z" fill="#1F4E79"/><path d="M1744.06 577.938C1744.06 582.908 1740.03 586.938 1735.06 586.938 1730.09 586.938 1726.06 582.908 1726.06 577.938 1726.06 572.967 1730.09 568.938 1735.06 568.938 1740.03 568.938 1744.06 572.967 1744.06 577.938Z" fill="#1F4E79"/><path d="M1969.06 1292.94C1969.06 1297.91 1965.03 1301.94 1960.06 1301.94 1955.09 1301.94 1951.06 1297.91 1951.06 1292.94 1951.06 1287.97 1955.09 1283.94 1960.06 1283.94 1965.03 1283.94 1969.06 1287.97 1969.06 1292.94Z" fill="#1F4E79"/><path d="M1975.06 1528.94C1975.06 1533.91 1971.03 1537.94 1966.06 1537.94 1961.09 1537.94 1957.06 1533.91 1957.06 1528.94 1957.06 1523.97 1961.09 1519.94 1966.06 1519.94 1971.03 1519.94 1975.06 1523.97 1975.06 1528.94Z" fill="#1F4E79"/><path d="M1981.06 1327.94C1981.06 1332.91 1977.03 1336.94 1972.06 1336.94 1967.09 1336.94 1963.06 1332.91 1963.06 1327.94 1963.06 1322.97 1967.09 1318.94 1972.06 1318.94 1977.03 1318.94 1981.06 1322.97 1981.06 1327.94Z" fill="#1F4E79"/><path d="M1988.06 1349.94C1988.06 1354.91 1984.03 1358.94 1979.06 1358.94 1974.09 1358.94 1970.06 1354.91 1970.06 1349.94 1970.06 1344.97 1974.09 1340.94 1979.06 1340.94 1984.03 1340.94 1988.06 1344.97 1988.06 1349.94Z" fill="#1F4E79"/><path d="M1994.06 1497.94C1994.06 1502.91 1990.03 1506.94 1985.06 1506.94 1980.09 1506.94 1976.06 1502.91 1976.06 1497.94 1976.06 1492.97 1980.09 1488.94 1985.06 1488.94 1990.03 1488.94 1994.06 1492.97 1994.06 1497.94Z" fill="#1F4E79"/><path d="M2000.06 577.938C2000.06 582.908 1996.03 586.938 1991.06 586.938 1986.09 586.938 1982.06 582.908 1982.06 577.938 1982.06 572.967 1986.09 568.938 1991.06 568.938 1996.03 568.938 2000.06 572.967 2000.06 577.938Z" fill="#1F4E79"/><path d="M2006.06 1520.94C2006.06 1525.91 2002.03 1529.94 1997.06 1529.94 1992.09 1529.94 1988.06 1525.91 1988.06 1520.94 1988.06 1515.97 1992.09 1511.94 1997.06 1511.94 2002.03 1511.94 2006.06 1515.97 2006.06 1520.94Z" fill="#1F4E79"/><path d="M3012.06 1481.94C3012.06 1486.91 3008.03 1490.94 3003.06 1490.94 2998.09 1490.94 2994.06 1486.91 2994.06 1481.94 2994.06 1476.97 2998.09 1472.94 3003.06 1472.94 3008.03 1472.94 3012.06 1476.97 3012.06 1481.94Z" fill="#1F4E79"/><path d="M3018.06 1322.94C3018.06 1327.91 3014.03 1331.94 3009.06 1331.94 3004.09 1331.94 3000.06 1327.91 3000.06 1322.94 3000.06 1317.97 3004.09 1313.94 3009.06 1313.94 3014.03 1313.94 3018.06 1317.97 3018.06 1322.94Z" fill="#1F4E79"/><path d="M3024.06 1341.94C3024.06 1346.91 3020.03 1350.94 3015.06 1350.94 3010.09 1350.94 3006.06 1346.91 3006.06 1341.94 3006.06 1336.97 3010.09 1332.94 3015.06 1332.94 3020.03 1332.94 3024.06 1336.97 3024.06 1341.94Z" fill="#1F4E79"/><path d="M3031.06 1350.94C3031.06 1355.91 3027.03 1359.94 3022.06 1359.94 3017.09 1359.94 3013.06 1355.91 3013.06 1350.94 3013.06 1345.97 3017.09 1341.94 3022.06 1341.94 3027.03 1341.94 3031.06 1345.97 3031.06 1350.94Z" fill="#1F4E79"/><path d="M3049.06 1316.94C3049.06 1321.91 3045.03 1325.94 3040.06 1325.94 3035.09 1325.94 3031.06 1321.91 3031.06 1316.94 3031.06 1311.97 3035.09 1307.94 3040.06 1307.94 3045.03 1307.94 3049.06 1311.97 3049.06 1316.94Z" fill="#1F4E79"/><path d="M3061.06 1336.94C3061.06 1341.91 3057.03 1345.94 3052.06 1345.94 3047.09 1345.94 3043.06 1341.91 3043.06 1336.94 3043.06 1331.97 3047.09 1327.94 3052.06 1327.94 3057.03 1327.94 3061.06 1331.97 3061.06 1336.94Z" fill="#1F4E79"/><path d="M3067.06 1343.94C3067.06 1348.91 3063.03 1352.94 3058.06 1352.94 3053.09 1352.94 3049.06 1348.91 3049.06 1343.94 3049.06 1338.97 3053.09 1334.94 3058.06 1334.94 3063.03 1334.94 3067.06 1338.97 3067.06 1343.94Z" fill="#1F4E79"/><path d="M3073.06 1360.94C3073.06 1365.91 3069.03 1369.94 3064.06 1369.94 3059.09 1369.94 3055.06 1365.91 3055.06 1360.94 3055.06 1355.97 3059.09 1351.94 3064.06 1351.94 3069.03 1351.94 3073.06 1355.97 3073.06 1360.94Z" fill="#1F4E79"/><path d="M3085.06 1499.94C3085.06 1504.91 3081.03 1508.94 3076.06 1508.94 3071.09 1508.94 3067.06 1504.91 3067.06 1499.94 3067.06 1494.97 3071.09 1490.94 3076.06 1490.94 3081.03 1490.94 3085.06 1494.97 3085.06 1499.94Z" fill="#1F4E79"/><path d="M3092.06 1500.94C3092.06 1505.91 3088.03 1509.94 3083.06 1509.94 3078.09 1509.94 3074.06 1505.91 3074.06 1500.94 3074.06 1495.97 3078.09 1491.94 3083.06 1491.94 3088.03 1491.94 3092.06 1495.97 3092.06 1500.94Z" fill="#1F4E79"/><path d="M3098.06 1556.94C3098.06 1561.91 3094.03 1565.94 3089.06 1565.94 3084.09 1565.94 3080.06 1561.91 3080.06 1556.94 3080.06 1551.97 3084.09 1547.94 3089.06 1547.94 3094.03 1547.94 3098.06 1551.97 3098.06 1556.94Z" fill="#1F4E79"/></g><g clip-path="url(#clip6)"><path d="M2097.06 540.938C2097.06 545.908 2093.03 549.938 2088.06 549.938 2083.09 549.938 2079.06 545.908 2079.06 540.938 2079.06 535.967 2083.09 531.938 2088.06 531.938 2093.03 531.938 2097.06 535.967 2097.06 540.938Z" fill="#C00000"/></g><g clip-path="url(#clip7)"><text fill="#7F7F7F" font-family="Calibri,Calibri_MSFontService,sans-serif" font-weight="400" font-size="55" transform="matrix(1 0 0 1 988.854 1674)">-10</text></g><g clip-path="url(#clip8)"><text fill="#7F7F7F" font-family="Calibri,Calibri_MSFontService,sans-serif" font-weight="400" font-size="55" transform="matrix(1 0 0 1 1016.72 1583)">-9</text></g><g clip-path="url(#clip9)"><text fill="#7F7F7F" font-family="Calibri,Calibri_MSFontService,sans-serif" font-weight="400" font-size="55" transform="matrix(1 0 0 1 1016.72 1492)">-8</text></g><g clip-path="url(#clip10)"><text fill="#7F7F7F" font-family="Calibri,Calibri_MSFontService,sans-serif" font-weight="400" font-size="55" transform="matrix(1 0 0 1 1016.72 1400)">-7</text></g><g clip-path="url(#clip11)"><text fill="#7F7F7F" font-family="Calibri,Calibri_MSFontService,sans-serif" font-weight="400" font-size="55" transform="matrix(1 0 0 1 1016.72 1309)">-6</text></g><g clip-path="url(#clip12)"><text fill="#7F7F7F" font-family="Calibri,Calibri_MSFontService,sans-serif" font-weight="400" font-size="55" transform="matrix(1 0 0 1 1016.72 1218)">-5</text></g><g clip-path="url(#clip13)"><text fill="#7F7F7F" font-family="Calibri,Calibri_MSFontService,sans-serif" font-weight="400" font-size="55" transform="matrix(1 0 0 1 1016.72 1127)">-4</text></g><g clip-path="url(#clip14)"><text fill="#7F7F7F" font-family="Calibri,Calibri_MSFontService,sans-serif" font-weight="400" font-size="55" transform="matrix(1 0 0 1 1016.72 1035)">-3</text></g><g clip-path="url(#clip15)"><text fill="#7F7F7F" font-family="Calibri,Calibri_MSFontService,sans-serif" font-weight="400" font-size="55" transform="matrix(1 0 0 1 1016.72 944)">-2</text></g><g clip-path="url(#clip16)"><text fill="#7F7F7F" font-family="Calibri,Calibri_MSFontService,sans-serif" font-weight="400" font-size="55" transform="matrix(1 0 0 1 1016.72 853)">-1</text></g><g clip-path="url(#clip17)"><text fill="#7F7F7F" font-family="Calibri,Calibri_MSFontService,sans-serif" font-weight="400" font-size="55" transform="matrix(1 0 0 1 1033.56 762)">0</text></g><g clip-path="url(#clip18)"><text fill="#7F7F7F" font-family="Calibri,Calibri_MSFontService,sans-serif" font-weight="400" font-size="55" transform="matrix(1 0 0 1 1033.56 670)">1</text></g><g clip-path="url(#clip19)"><text fill="#7F7F7F" font-family="Calibri,Calibri_MSFontService,sans-serif" font-weight="400" font-size="55" transform="matrix(1 0 0 1 1033.56 579)">2</text></g><g clip-path="url(#clip20)"><text fill="#7F7F7F" font-family="Calibri,Calibri_MSFontService,sans-serif" font-weight="400" font-size="55" transform="matrix(1 0 0 1 1033.56 488)">3</text></g><rect x="959.5" y="416.5" width="2339" height="1299" stroke="#D9D9D9" stroke-width="3.4375" stroke-linejoin="round" stroke-miterlimit="10" fill="none"/></g></svg>