<svg width="1172" height="1043" xmlns="http://www.w3.org/2000/svg" xmlns:xlink="http://www.w3.org/1999/xlink" overflow="hidden"><defs><clipPath id="clip0"><rect x="1436" y="764" width="1172" height="1043"/></clipPath><radialGradient cx="1.6196e+06" cy="1.44087e+06" r="2.16777e+06" fx="1.6196e+06" fy="1.44087e+06" gradientUnits="userSpaceOnUse" spreadMethod="pad" id="fill1" gradientTransform="matrix(0.000360892 0 0 0.000360892 1437 765)"><stop offset="0" stop-color="#FFFFFF"/><stop offset="0.43" stop-color="#FFFFFF"/><stop offset="1" stop-color="#F2F2F2"/></radialGradient><clipPath id="clip2"><rect x="1436" y="765" width="1170" height="1039"/></clipPath><clipPath id="clip3"><rect x="1436" y="765" width="1170" height="1039"/></clipPath><clipPath id="clip4"><rect x="1436" y="765" width="1170" height="1039"/></clipPath><clipPath id="clip5"><rect x="1436" y="765" width="1170" height="1039"/></clipPath><clipPath id="clip6"><rect x="1436" y="765" width="1170" height="1039"/></clipPath><clipPath id="clip7"><rect x="1436" y="765" width="1170" height="1039"/></clipPath><clipPath id="clip8"><rect x="1436" y="765" width="1170" height="1039"/></clipPath><clipPath id="clip9"><rect x="1436" y="765" width="1170" height="1039"/></clipPath><clipPath id="clip10"><rect x="1436" y="765" width="1170" height="1039"/></clipPath><clipPath id="clip11"><rect x="1436" y="765" width="1170" height="1039"/></clipPath><clipPath id="clip12"><rect x="1436" y="765" width="1170" height="1039"/></clipPath><clipPath id="clip13"><rect x="1436" y="765" width="1170" height="1039"/></clipPath><clipPath id="clip14"><rect x="1436" y="765" width="1170" height="1039"/></clipPath><clipPath id="clip15"><rect x="1436" y="765" width="1170" height="1039"/></clipPath><clipPath id="clip16"><rect x="1436" y="765" width="1170" height="1039"/></clipPath><clipPath id="clip17"><rect x="1436" y="765" width="1170" height="1039"/></clipPath><clipPath id="clip18"><rect x="1436" y="765" width="1170" height="1039"/></clipPath><clipPath id="clip19"><rect x="1436" y="765" width="1170" height="1039"/></clipPath><clipPath id="clip20"><rect x="1436" y="765" width="1170" height="1039"/></clipPath><clipPath id="clip21"><rect x="1436" y="765" width="1170" height="1039"/></clipPath><clipPath id="clip22"><rect x="1436" y="765" width="1170" height="1039"/></clipPath><clipPath id="clip23"><rect x="1436" y="765" width="1170" height="1039"/></clipPath><clipPath id="clip24"><rect x="1436" y="765" width="1170" height="1039"/></clipPath><clipPath id="clip25"><rect x="1436" y="765" width="1170" height="1039"/></clipPath><clipPath id="clip26"><rect x="1436" y="765" width="1170" height="1039"/></clipPath><clipPath id="clip27"><rect x="1436" y="765" width="1170" height="1039"/></clipPath><clipPath id="clip28"><rect x="1436" y="765" width="1170" height="1039"/></clipPath><clipPath id="clip29"><rect x="1436" y="765" width="1170" height="1039"/></clipPath><clipPath id="clip30"><rect x="1436" y="765" width="1170" height="1039"/></clipPath><clipPath id="clip31"><rect x="1436" y="765" width="1170" height="1039"/></clipPath><clipPath id="clip32"><rect x="1436" y="765" width="1170" height="1039"/></clipPath><clipPath id="clip33"><rect x="1436" y="765" width="1170" height="1039"/></clipPath><clipPath id="clip34"><rect x="1436" y="765" width="1170" height="1039"/></clipPath></defs><g clip-path="url(#clip0)" transform="translate(-1436 -764)"><rect x="1437" y="765" width="1169" height="1040" fill="url(#fill1)"/><g clip-path="url(#clip2)"><path d="M1670.5 1673.5 2534.5 1673.5M1670.5 1527.55 2534.5 1527.55M1670.5 1235.54 2534.5 1235.54M1670.5 1089.54 2534.5 1089.54M1670.5 943.5 2534.5 943.5" stroke="#D9D9D9" stroke-width="3.4375" stroke-linejoin="round" stroke-miterlimit="10" fill="none"/></g><g clip-path="url(#clip3)"><path d="M1670.5 943.5 1670.5 1673.5M1812.56 943.5 1812.56 1673.5M1953.56 943.5 1953.56 1673.5M2094.57 943.5 2094.57 1673.5M2236.57 943.5 2236.57 1673.5M2377.58 943.5 2377.58 1673.5M2519.5 943.5 2519.5 1673.5" stroke="#D9D9D9" stroke-width="3.4375" stroke-linejoin="round" stroke-miterlimit="10" fill="none"/></g><g clip-path="url(#clip4)"><path d="M1670.5 1381.5 2534.5 1381.5" stroke="#000000" stroke-width="11.4583" stroke-linejoin="round" stroke-miterlimit="10" fill="none" fill-rule="evenodd"/></g><g clip-path="url(#clip5)"><path d="M2339.88 1172.32C2339.88 1177.29 2335.85 1181.32 2330.88 1181.32 2325.9 1181.32 2321.88 1177.29 2321.88 1172.32 2321.88 1167.35 2325.9 1163.32 2330.88 1163.32 2335.85 1163.32 2339.88 1167.35 2339.88 1172.32Z" fill="#BFBFBF"/><path d="M2354.87 985.317C2354.87 990.288 2350.85 994.317 2345.88 994.317 2340.9 994.317 2336.88 990.288 2336.88 985.317 2336.88 980.347 2340.9 976.318 2345.88 976.318 2350.85 976.318 2354.87 980.347 2354.87 985.317Z" fill="#BFBFBF"/><path d="M2527.88 1580.32C2527.88 1585.29 2523.85 1589.32 2518.88 1589.32 2513.9 1589.32 2509.88 1585.29 2509.88 1580.32 2509.88 1575.35 2513.9 1571.32 2518.88 1571.32 2523.85 1571.32 2527.88 1575.35 2527.88 1580.32Z" fill="#BFBFBF"/></g><g clip-path="url(#clip6)"><path d="M2260.87 1115.32C2260.87 1120.29 2256.85 1124.32 2251.88 1124.32 2246.9 1124.32 2242.88 1120.29 2242.88 1115.32 2242.88 1110.35 2246.9 1106.32 2251.88 1106.32 2256.85 1106.32 2260.87 1110.35 2260.87 1115.32Z" fill="#1F4E79"/><path d="M2291.87 1084.32C2291.87 1089.29 2287.85 1093.32 2282.88 1093.32 2277.9 1093.32 2273.88 1089.29 2273.88 1084.32 2273.88 1079.35 2277.9 1075.32 2282.88 1075.32 2287.85 1075.32 2291.87 1079.35 2291.87 1084.32Z" fill="#1F4E79"/><path d="M2307.88 1219.32C2307.88 1224.29 2303.85 1228.32 2298.88 1228.32 2293.9 1228.32 2289.88 1224.29 2289.88 1219.32 2289.88 1214.35 2293.9 1210.32 2298.88 1210.32 2303.85 1210.32 2307.88 1214.35 2307.88 1219.32Z" fill="#1F4E79"/><path d="M2323.87 1183.32C2323.87 1188.29 2319.85 1192.32 2314.88 1192.32 2309.9 1192.32 2305.88 1188.29 2305.88 1183.32 2305.88 1178.35 2309.9 1174.32 2314.88 1174.32 2319.85 1174.32 2323.87 1178.35 2323.87 1183.32Z" fill="#1F4E79"/><path d="M2496.87 1151.32C2496.87 1156.29 2492.85 1160.32 2487.88 1160.32 2482.9 1160.32 2478.88 1156.29 2478.88 1151.32 2478.88 1146.35 2482.9 1142.32 2487.88 1142.32 2492.85 1142.32 2496.87 1146.35 2496.87 1151.32Z" fill="#1F4E79"/><path d="M2511.87 1111.32C2511.87 1116.29 2507.85 1120.32 2502.88 1120.32 2497.9 1120.32 2493.88 1116.29 2493.88 1111.32 2493.88 1106.35 2497.9 1102.32 2502.88 1102.32 2507.85 1102.32 2511.87 1106.35 2511.87 1111.32Z" fill="#1F4E79"/></g><g clip-path="url(#clip7)"><path d="M2276.87 1032.32C2276.87 1037.29 2272.85 1041.32 2267.88 1041.32 2262.9 1041.32 2258.88 1037.29 2258.88 1032.32 2258.88 1027.35 2262.9 1023.32 2267.88 1023.32 2272.85 1023.32 2276.87 1027.35 2276.87 1032.32Z" fill="#C00000"/><path d="M2480.87 1180.32C2480.87 1185.29 2476.85 1189.32 2471.88 1189.32 2466.9 1189.32 2462.88 1185.29 2462.88 1180.32 2462.88 1175.35 2466.9 1171.32 2471.88 1171.32 2476.85 1171.32 2480.87 1175.35 2480.87 1180.32Z" fill="#C00000"/></g><g clip-path="url(#clip8)"><text fill="#7F7F7F" font-family="Calibri,Calibri_MSFontService,sans-serif" font-weight="400" font-size="55" transform="matrix(1 0 0 1 1575.06 1689)">-2</text></g><g clip-path="url(#clip9)"><text fill="#7F7F7F" font-family="Calibri,Calibri_MSFontService,sans-serif" font-weight="400" font-size="55" transform="matrix(1 0 0 1 1575.06 1543)">-1</text></g><g clip-path="url(#clip10)"><text fill="#7F7F7F" font-family="Calibri,Calibri_MSFontService,sans-serif" font-weight="400" font-size="55" transform="matrix(1 0 0 1 1591.91 1397)">0</text></g><g clip-path="url(#clip11)"><text fill="#7F7F7F" font-family="Calibri,Calibri_MSFontService,sans-serif" font-weight="400" font-size="55" transform="matrix(1 0 0 1 1591.91 1251)">1</text></g><g clip-path="url(#clip12)"><text fill="#7F7F7F" font-family="Calibri,Calibri_MSFontService,sans-serif" font-weight="400" font-size="55" transform="matrix(1 0 0 1 1591.91 1105)">2</text></g><g clip-path="url(#clip13)"><text fill="#7F7F7F" font-family="Calibri,Calibri_MSFontService,sans-serif" font-weight="400" font-size="55" transform="matrix(1 0 0 1 1591.91 959)">3</text></g><g clip-path="url(#clip14)"><text fill="#7F7F7F" font-family="Calibri,Calibri_MSFontService,sans-serif" font-weight="400" font-size="41" transform="matrix(1 0 0 1 1660.35 1447)">0</text></g><g clip-path="url(#clip15)"><text fill="#7F7F7F" font-family="Calibri,Calibri_MSFontService,sans-serif" font-weight="400" font-size="41" transform="matrix(1 0 0 1 1801.74 1447)">9</text></g><g clip-path="url(#clip16)"><text fill="#7F7F7F" font-family="Calibri,Calibri_MSFontService,sans-serif" font-weight="400" font-size="41" transform="matrix(1 0 0 1 1932.68 1447)">18</text></g><g clip-path="url(#clip17)"><text fill="#7F7F7F" font-family="Calibri,Calibri_MSFontService,sans-serif" font-weight="400" font-size="41" transform="matrix(1 0 0 1 2074.07 1447)">27</text></g><g clip-path="url(#clip18)"><text fill="#7F7F7F" font-family="Calibri,Calibri_MSFontService,sans-serif" font-weight="400" font-size="41" transform="matrix(1 0 0 1 2215.46 1447)">36</text></g><g clip-path="url(#clip19)"><text fill="#7F7F7F" font-family="Calibri,Calibri_MSFontService,sans-serif" font-weight="400" font-size="41" transform="matrix(1 0 0 1 2356.85 1447)">45</text></g><g clip-path="url(#clip20)"><text fill="#7F7F7F" font-family="Calibri,Calibri_MSFontService,sans-serif" font-weight="400" font-size="41" transform="matrix(1 0 0 1 2498.24 1447)">54</text></g><g clip-path="url(#clip21)"><text fill="#7F7F7F" font-family="Calibri,Calibri_MSFontService,sans-serif" font-weight="700" font-size="55" transform="matrix(6.12323e-17 -1 1 6.12323e-17 1546.16 1511)">Laufzeitverhältnis</text></g><g clip-path="url(#clip22)"><text fill="#7F7F7F" font-family="Calibri,Calibri_MSFontService,sans-serif" font-weight="700" font-size="55" transform="matrix(1 0 0 1 1686.97 1732)">Anzahl Argumente der Testinstanzen</text></g><g clip-path="url(#clip23)"><path d="M1567 839C1567 843.971 1562.97 848 1558 848 1553.03 848 1549 843.971 1549 839 1549 834.03 1553.03 830 1558 830 1562.97 830 1567 834.03 1567 839Z" fill="#BFBFBF"/></g><g clip-path="url(#clip24)"><text fill="#7F7F7F" font-family="Calibri,Calibri_MSFontService,sans-serif" font-weight="400" font-size="55" transform="matrix(1 0 0 1 1586.7 855)">0.1s &lt; </text></g><g clip-path="url(#clip25)"><text fill="#7F7F7F" font-family="Calibri,Calibri_MSFontService,sans-serif" font-weight="400" font-size="55" transform="matrix(1 0 0 1 1730.12 855)">Δ</text></g><g clip-path="url(#clip26)"><text fill="#7F7F7F" font-family="Calibri,Calibri_MSFontService,sans-serif" font-weight="400" font-size="55" transform="matrix(1 0 0 1 1761.17 855)">t ≤ 1s</text></g><g clip-path="url(#clip27)"><path d="M1951 839C1951 843.971 1946.97 848 1942 848 1937.03 848 1933 843.971 1933 839 1933 834.03 1937.03 830 1942 830 1946.97 830 1951 834.03 1951 839Z" fill="#1F4E79"/></g><g clip-path="url(#clip28)"><text fill="#7F7F7F" font-family="Calibri,Calibri_MSFontService,sans-serif" font-weight="400" font-size="55" transform="matrix(1 0 0 1 1970.9 855)">1s &lt; </text></g><g clip-path="url(#clip29)"><text fill="#7F7F7F" font-family="Calibri,Calibri_MSFontService,sans-serif" font-weight="400" font-size="55" transform="matrix(1 0 0 1 2072.56 855)">Δ</text></g><g clip-path="url(#clip30)"><text fill="#7F7F7F" font-family="Calibri,Calibri_MSFontService,sans-serif" font-weight="400" font-size="55" transform="matrix(1 0 0 1 2103.61 855)">t ≤ 60s</text></g><g clip-path="url(#clip31)"><path d="M2321 839C2321 843.971 2316.97 848 2312 848 2307.03 848 2303 843.971 2303 839 2303 834.03 2307.03 830 2312 830 2316.97 830 2321 834.03 2321 839Z" fill="#C00000"/></g><g clip-path="url(#clip32)"><text fill="#7F7F7F" font-family="Calibri,Calibri_MSFontService,sans-serif" font-weight="400" font-size="55" transform="matrix(1 0 0 1 2341.2 855)">60s &lt; </text></g><g clip-path="url(#clip33)"><text fill="#7F7F7F" font-family="Calibri,Calibri_MSFontService,sans-serif" font-weight="400" font-size="55" transform="matrix(1 0 0 1 2470.73 855)">Δ</text></g><g clip-path="url(#clip34)"><text fill="#7F7F7F" font-family="Calibri,Calibri_MSFontService,sans-serif" font-weight="400" font-size="55" transform="matrix(1 0 0 1 2501.78 855)">t</text></g><rect x="1437.5" y="765.5" width="1169" height="1040" stroke="#D9D9D9" stroke-width="3.4375" stroke-linejoin="round" stroke-miterlimit="10" fill="none"/></g></svg>