<svg width="2342" height="1302" xmlns="http://www.w3.org/2000/svg" xmlns:xlink="http://www.w3.org/1999/xlink" overflow="hidden"><defs><clipPath id="clip0"><rect x="779" y="212" width="2342" height="1302"/></clipPath><radialGradient cx="3.24058e+06" cy="1.79971e+06" r="3.70679e+06" fx="3.24058e+06" fy="1.79971e+06" gradientUnits="userSpaceOnUse" spreadMethod="pad" id="fill1" gradientTransform="matrix(0.000360892 0 0 0.000360892 780 213)"><stop offset="0" stop-color="#FFFFFF"/><stop offset="0.43" stop-color="#FFFFFF"/><stop offset="1" stop-color="#F2F2F2"/></radialGradient><clipPath id="clip2"><rect x="780" y="213" width="2338" height="1299"/></clipPath><clipPath id="clip3"><rect x="780" y="213" width="2338" height="1299"/></clipPath><clipPath id="clip4"><rect x="780" y="213" width="2338" height="1299"/></clipPath><clipPath id="clip5"><rect x="780" y="213" width="2338" height="1299"/></clipPath><clipPath id="clip6"><rect x="780" y="213" width="2338" height="1299"/></clipPath><clipPath id="clip7"><rect x="780" y="213" width="2338" height="1299"/></clipPath><clipPath id="clip8"><rect x="780" y="213" width="2338" height="1299"/></clipPath><clipPath id="clip9"><rect x="780" y="213" width="2338" height="1299"/></clipPath><clipPath id="clip10"><rect x="780" y="213" width="2338" height="1299"/></clipPath><clipPath id="clip11"><rect x="780" y="213" width="2338" height="1299"/></clipPath><clipPath id="clip12"><rect x="780" y="213" width="2338" height="1299"/></clipPath><clipPath id="clip13"><rect x="780" y="213" width="2338" height="1299"/></clipPath><clipPath id="clip14"><rect x="780" y="213" width="2338" height="1299"/></clipPath><clipPath id="clip15"><rect x="780" y="213" width="2338" height="1299"/></clipPath><clipPath id="clip16"><rect x="780" y="213" width="2338" height="1299"/></clipPath><clipPath id="clip17"><rect x="780" y="213" width="2338" height="1299"/></clipPath></defs><g clip-path="url(#clip0)" transform="translate(-779 -212)"><rect x="780" y="213" width="2339" height="1299" fill="url(#fill1)"/><g clip-path="url(#clip2)"><path d="M905.5 1455.5 3068.5 1455.5M905.5 1337.54 3068.5 1337.54M905.5 1099.54 3068.5 1099.54M905.5 981.532 3068.5 981.532M905.5 862.529 3068.5 862.529M905.5 744.525 3068.5 744.525M905.5 625.521 3068.5 625.521M905.5 506.517 3068.5 506.517M905.5 388.513 3068.5 388.513M905.5 269.5 3068.5 269.5" stroke="#D9D9D9" stroke-width="3.4375" stroke-linejoin="round" stroke-miterlimit="10" fill="none"/></g><g clip-path="url(#clip3)"><path d="M905.5 1218.5 3068.5 1218.5" stroke="#000000" stroke-width="11.4583" stroke-linejoin="round" stroke-miterlimit="10" fill="none" fill-rule="evenodd"/></g><g clip-path="url(#clip4)"><path d="M1038.31 854.125C1038.31 859.095 1034.28 863.125 1029.31 863.125 1024.34 863.125 1020.31 859.095 1020.31 854.125 1020.31 849.154 1024.34 845.125 1029.31 845.125 1034.28 845.125 1038.31 849.154 1038.31 854.125Z" fill="#BFBFBF"/><path d="M1075.31 1057.12C1075.31 1062.1 1071.28 1066.12 1066.31 1066.12 1061.34 1066.12 1057.31 1062.1 1057.31 1057.12 1057.31 1052.15 1061.34 1048.12 1066.31 1048.12 1071.28 1048.12 1075.31 1052.15 1075.31 1057.12Z" fill="#BFBFBF"/><path d="M1113.31 659.125C1113.31 664.095 1109.28 668.125 1104.31 668.125 1099.34 668.125 1095.31 664.095 1095.31 659.125 1095.31 654.154 1099.34 650.125 1104.31 650.125 1109.28 650.125 1113.31 654.154 1113.31 659.125Z" fill="#BFBFBF"/><path d="M1119.31 664.125C1119.31 669.095 1115.28 673.125 1110.31 673.125 1105.34 673.125 1101.31 669.095 1101.31 664.125 1101.31 659.154 1105.34 655.125 1110.31 655.125 1115.28 655.125 1119.31 659.154 1119.31 664.125Z" fill="#BFBFBF"/><path d="M1125.31 656.125C1125.31 661.095 1121.28 665.125 1116.31 665.125 1111.34 665.125 1107.31 661.095 1107.31 656.125 1107.31 651.154 1111.34 647.125 1116.31 647.125 1121.28 647.125 1125.31 651.154 1125.31 656.125Z" fill="#BFBFBF"/><path d="M1131.31 628.125C1131.31 633.095 1127.28 637.125 1122.31 637.125 1117.34 637.125 1113.31 633.095 1113.31 628.125 1113.31 623.154 1117.34 619.125 1122.31 619.125 1127.28 619.125 1131.31 623.154 1131.31 628.125Z" fill="#BFBFBF"/><path d="M1156.31 855.125C1156.31 860.095 1152.28 864.125 1147.31 864.125 1142.34 864.125 1138.31 860.095 1138.31 855.125 1138.31 850.154 1142.34 846.125 1147.31 846.125 1152.28 846.125 1156.31 850.154 1156.31 855.125Z" fill="#BFBFBF"/><path d="M1162.31 808.125C1162.31 813.095 1158.28 817.125 1153.31 817.125 1148.34 817.125 1144.31 813.095 1144.31 808.125 1144.31 803.154 1148.34 799.125 1153.31 799.125 1158.28 799.125 1162.31 803.154 1162.31 808.125Z" fill="#BFBFBF"/><path d="M1168.31 806.125C1168.31 811.095 1164.28 815.125 1159.31 815.125 1154.34 815.125 1150.31 811.095 1150.31 806.125 1150.31 801.154 1154.34 797.125 1159.31 797.125 1164.28 797.125 1168.31 801.154 1168.31 806.125Z" fill="#BFBFBF"/><path d="M1174.31 798.125C1174.31 803.095 1170.28 807.125 1165.31 807.125 1160.34 807.125 1156.31 803.095 1156.31 798.125 1156.31 793.154 1160.34 789.125 1165.31 789.125 1170.28 789.125 1174.31 793.154 1174.31 798.125Z" fill="#BFBFBF"/><path d="M1181.31 825.125C1181.31 830.095 1177.28 834.125 1172.31 834.125 1167.34 834.125 1163.31 830.095 1163.31 825.125 1163.31 820.154 1167.34 816.125 1172.31 816.125 1177.28 816.125 1181.31 820.154 1181.31 825.125Z" fill="#BFBFBF"/><path d="M1199.31 1058.12C1199.31 1063.1 1195.28 1067.12 1190.31 1067.12 1185.34 1067.12 1181.31 1063.1 1181.31 1058.12 1181.31 1053.15 1185.34 1049.12 1190.31 1049.12 1195.28 1049.12 1199.31 1053.15 1199.31 1058.12Z" fill="#BFBFBF"/><path d="M1218.31 610.125C1218.31 615.095 1214.28 619.125 1209.31 619.125 1204.34 619.125 1200.31 615.095 1200.31 610.125 1200.31 605.154 1204.34 601.125 1209.31 601.125 1214.28 601.125 1218.31 605.154 1218.31 610.125Z" fill="#BFBFBF"/><path d="M1224.31 610.125C1224.31 615.095 1220.28 619.125 1215.31 619.125 1210.34 619.125 1206.31 615.095 1206.31 610.125 1206.31 605.154 1210.34 601.125 1215.31 601.125 1220.28 601.125 1224.31 605.154 1224.31 610.125Z" fill="#BFBFBF"/><path d="M1242.31 613.125C1242.31 618.095 1238.28 622.125 1233.31 622.125 1228.34 622.125 1224.31 618.095 1224.31 613.125 1224.31 608.154 1228.34 604.125 1233.31 604.125 1238.28 604.125 1242.31 608.154 1242.31 613.125Z" fill="#BFBFBF"/><path d="M1249.31 669.125C1249.31 674.095 1245.28 678.125 1240.31 678.125 1235.34 678.125 1231.31 674.095 1231.31 669.125 1231.31 664.154 1235.34 660.125 1240.31 660.125 1245.28 660.125 1249.31 664.154 1249.31 669.125Z" fill="#BFBFBF"/><path d="M1255.31 596.125C1255.31 601.095 1251.28 605.125 1246.31 605.125 1241.34 605.125 1237.31 601.095 1237.31 596.125 1237.31 591.154 1241.34 587.125 1246.31 587.125 1251.28 587.125 1255.31 591.154 1255.31 596.125Z" fill="#BFBFBF"/><path d="M1267.31 614.125C1267.31 619.095 1263.28 623.125 1258.31 623.125 1253.34 623.125 1249.31 619.095 1249.31 614.125 1249.31 609.154 1253.34 605.125 1258.31 605.125 1263.28 605.125 1267.31 609.154 1267.31 614.125Z" fill="#BFBFBF"/><path d="M1341.31 744.125C1341.31 749.095 1337.28 753.125 1332.31 753.125 1327.34 753.125 1323.31 749.095 1323.31 744.125 1323.31 739.154 1327.34 735.125 1332.31 735.125 1337.28 735.125 1341.31 739.154 1341.31 744.125Z" fill="#BFBFBF"/><path d="M1415.31 806.125C1415.31 811.095 1411.28 815.125 1406.31 815.125 1401.34 815.125 1397.31 811.095 1397.31 806.125 1397.31 801.154 1401.34 797.125 1406.31 797.125 1411.28 797.125 1415.31 801.154 1415.31 806.125Z" fill="#BFBFBF"/><path d="M1422.31 785.125C1422.31 790.095 1418.28 794.125 1413.31 794.125 1408.34 794.125 1404.31 790.095 1404.31 785.125 1404.31 780.154 1408.34 776.125 1413.31 776.125 1418.28 776.125 1422.31 780.154 1422.31 785.125Z" fill="#BFBFBF"/><path d="M1496.31 1073.12C1496.31 1078.1 1492.28 1082.12 1487.31 1082.12 1482.34 1082.12 1478.31 1078.1 1478.31 1073.12 1478.31 1068.15 1482.34 1064.12 1487.31 1064.12 1492.28 1064.12 1496.31 1068.15 1496.31 1073.12Z" fill="#BFBFBF"/><path d="M1502.31 1062.12C1502.31 1067.1 1498.28 1071.12 1493.31 1071.12 1488.34 1071.12 1484.31 1067.1 1484.31 1062.12 1484.31 1057.15 1488.34 1053.12 1493.31 1053.12 1498.28 1053.12 1502.31 1057.15 1502.31 1062.12Z" fill="#BFBFBF"/><path d="M1508.31 953.125C1508.31 958.095 1504.28 962.125 1499.31 962.125 1494.34 962.125 1490.31 958.095 1490.31 953.125 1490.31 948.154 1494.34 944.125 1499.31 944.125 1504.28 944.125 1508.31 948.154 1508.31 953.125Z" fill="#BFBFBF"/><path d="M1514.31 1045.12C1514.31 1050.1 1510.28 1054.12 1505.31 1054.12 1500.34 1054.12 1496.31 1050.1 1496.31 1045.12 1496.31 1040.15 1500.34 1036.12 1505.31 1036.12 1510.28 1036.12 1514.31 1040.15 1514.31 1045.12Z" fill="#BFBFBF"/><path d="M1527.31 1051.12C1527.31 1056.1 1523.28 1060.12 1518.31 1060.12 1513.34 1060.12 1509.31 1056.1 1509.31 1051.12 1509.31 1046.15 1513.34 1042.12 1518.31 1042.12 1523.28 1042.12 1527.31 1046.15 1527.31 1051.12Z" fill="#BFBFBF"/><path d="M1551.31 1024.12C1551.31 1029.1 1547.28 1033.12 1542.31 1033.12 1537.34 1033.12 1533.31 1029.1 1533.31 1024.12 1533.31 1019.15 1537.34 1015.12 1542.31 1015.12 1547.28 1015.12 1551.31 1019.15 1551.31 1024.12Z" fill="#BFBFBF"/><path d="M1557.31 1033.12C1557.31 1038.1 1553.28 1042.12 1548.31 1042.12 1543.34 1042.12 1539.31 1038.1 1539.31 1033.12 1539.31 1028.15 1543.34 1024.12 1548.31 1024.12 1553.28 1024.12 1557.31 1028.15 1557.31 1033.12Z" fill="#BFBFBF"/><path d="M1588.31 1071.12C1588.31 1076.1 1584.28 1080.12 1579.31 1080.12 1574.34 1080.12 1570.31 1076.1 1570.31 1071.12 1570.31 1066.15 1574.34 1062.12 1579.31 1062.12 1584.28 1062.12 1588.31 1066.15 1588.31 1071.12Z" fill="#BFBFBF"/><path d="M1595.31 1057.12C1595.31 1062.1 1591.28 1066.12 1586.31 1066.12 1581.34 1066.12 1577.31 1062.1 1577.31 1057.12 1577.31 1052.15 1581.34 1048.12 1586.31 1048.12 1591.28 1048.12 1595.31 1052.15 1595.31 1057.12Z" fill="#BFBFBF"/><path d="M1601.31 1030.12C1601.31 1035.1 1597.28 1039.12 1592.31 1039.12 1587.34 1039.12 1583.31 1035.1 1583.31 1030.12 1583.31 1025.15 1587.34 1021.12 1592.31 1021.12 1597.28 1021.12 1601.31 1025.15 1601.31 1030.12Z" fill="#BFBFBF"/><path d="M1607.31 1040.12C1607.31 1045.1 1603.28 1049.12 1598.31 1049.12 1593.34 1049.12 1589.31 1045.1 1589.31 1040.12 1589.31 1035.15 1593.34 1031.12 1598.31 1031.12 1603.28 1031.12 1607.31 1035.15 1607.31 1040.12Z" fill="#BFBFBF"/><path d="M1632.31 1054.12C1632.31 1059.1 1628.28 1063.12 1623.31 1063.12 1618.34 1063.12 1614.31 1059.1 1614.31 1054.12 1614.31 1049.15 1618.34 1045.12 1623.31 1045.12 1628.28 1045.12 1632.31 1049.15 1632.31 1054.12Z" fill="#BFBFBF"/><path d="M1718.31 916.125C1718.31 921.095 1714.28 925.125 1709.31 925.125 1704.34 925.125 1700.31 921.095 1700.31 916.125 1700.31 911.154 1704.34 907.125 1709.31 907.125 1714.28 907.125 1718.31 911.154 1718.31 916.125Z" fill="#BFBFBF"/><path d="M1724.31 815.125C1724.31 820.095 1720.28 824.125 1715.31 824.125 1710.34 824.125 1706.31 820.095 1706.31 815.125 1706.31 810.154 1710.34 806.125 1715.31 806.125 1720.28 806.125 1724.31 810.154 1724.31 815.125Z" fill="#BFBFBF"/><path d="M1737.31 829.125C1737.31 834.095 1733.28 838.125 1728.31 838.125 1723.34 838.125 1719.31 834.095 1719.31 829.125 1719.31 824.154 1723.34 820.125 1728.31 820.125 1733.28 820.125 1737.31 824.154 1737.31 829.125Z" fill="#BFBFBF"/><path d="M1817.31 938.125C1817.31 943.095 1813.28 947.125 1808.31 947.125 1803.34 947.125 1799.31 943.095 1799.31 938.125 1799.31 933.154 1803.34 929.125 1808.31 929.125 1813.28 929.125 1817.31 933.154 1817.31 938.125Z" fill="#BFBFBF"/><path d="M1823.31 898.125C1823.31 903.095 1819.28 907.125 1814.31 907.125 1809.34 907.125 1805.31 903.095 1805.31 898.125 1805.31 893.154 1809.34 889.125 1814.31 889.125 1819.28 889.125 1823.31 893.154 1823.31 898.125Z" fill="#BFBFBF"/><path d="M1829.31 863.125C1829.31 868.095 1825.28 872.125 1820.31 872.125 1815.34 872.125 1811.31 868.095 1811.31 863.125 1811.31 858.154 1815.34 854.125 1820.31 854.125 1825.28 854.125 1829.31 858.154 1829.31 863.125Z" fill="#BFBFBF"/><path d="M1836.31 905.125C1836.31 910.095 1832.28 914.125 1827.31 914.125 1822.34 914.125 1818.31 910.095 1818.31 905.125 1818.31 900.154 1822.34 896.125 1827.31 896.125 1832.28 896.125 1836.31 900.154 1836.31 905.125Z" fill="#BFBFBF"/><path d="M1842.31 848.125C1842.31 853.095 1838.28 857.125 1833.31 857.125 1828.34 857.125 1824.31 853.095 1824.31 848.125 1824.31 843.154 1828.34 839.125 1833.31 839.125 1838.28 839.125 1842.31 843.154 1842.31 848.125Z" fill="#BFBFBF"/><path d="M1848.31 882.125C1848.31 887.095 1844.28 891.125 1839.31 891.125 1834.34 891.125 1830.31 887.095 1830.31 882.125 1830.31 877.154 1834.34 873.125 1839.31 873.125 1844.28 873.125 1848.31 877.154 1848.31 882.125Z" fill="#BFBFBF"/><path d="M1854.31 855.125C1854.31 860.095 1850.28 864.125 1845.31 864.125 1840.34 864.125 1836.31 860.095 1836.31 855.125 1836.31 850.154 1840.34 846.125 1845.31 846.125 1850.28 846.125 1854.31 850.154 1854.31 855.125Z" fill="#BFBFBF"/><path d="M1885.31 1079.12C1885.31 1084.1 1881.28 1088.12 1876.31 1088.12 1871.34 1088.12 1867.31 1084.1 1867.31 1079.12 1867.31 1074.15 1871.34 1070.12 1876.31 1070.12 1881.28 1070.12 1885.31 1074.15 1885.31 1079.12Z" fill="#BFBFBF"/><path d="M1891.31 1071.12C1891.31 1076.1 1887.28 1080.12 1882.31 1080.12 1877.34 1080.12 1873.31 1076.1 1873.31 1071.12 1873.31 1066.15 1877.34 1062.12 1882.31 1062.12 1887.28 1062.12 1891.31 1066.15 1891.31 1071.12Z" fill="#BFBFBF"/><path d="M2095.31 913.125C2095.31 918.095 2091.28 922.125 2086.31 922.125 2081.34 922.125 2077.31 918.095 2077.31 913.125 2077.31 908.154 2081.34 904.125 2086.31 904.125 2091.28 904.125 2095.31 908.154 2095.31 913.125Z" fill="#BFBFBF"/><path d="M2398.31 343.125C2398.31 348.095 2394.28 352.125 2389.31 352.125 2384.34 352.125 2380.31 348.095 2380.31 343.125 2380.31 338.154 2384.34 334.125 2389.31 334.125 2394.28 334.125 2398.31 338.154 2398.31 343.125Z" fill="#BFBFBF"/><path d="M2682.31 905.125C2682.31 910.095 2678.28 914.125 2673.31 914.125 2668.34 914.125 2664.31 910.095 2664.31 905.125 2664.31 900.154 2668.34 896.125 2673.31 896.125 2678.28 896.125 2682.31 900.154 2682.31 905.125Z" fill="#BFBFBF"/><path d="M2701.31 889.125C2701.31 894.095 2697.28 898.125 2692.31 898.125 2687.34 898.125 2683.31 894.095 2683.31 889.125 2683.31 884.154 2687.34 880.125 2692.31 880.125 2697.28 880.125 2701.31 884.154 2701.31 889.125Z" fill="#BFBFBF"/><path d="M2744.31 738.125C2744.31 743.095 2740.28 747.125 2735.31 747.125 2730.34 747.125 2726.31 743.095 2726.31 738.125 2726.31 733.154 2730.34 729.125 2735.31 729.125 2740.28 729.125 2744.31 733.154 2744.31 738.125Z" fill="#BFBFBF"/><path d="M2750.31 619.125C2750.31 624.095 2746.28 628.125 2741.31 628.125 2736.34 628.125 2732.31 624.095 2732.31 619.125 2732.31 614.154 2736.34 610.125 2741.31 610.125 2746.28 610.125 2750.31 614.154 2750.31 619.125Z" fill="#BFBFBF"/><path d="M2756.31 648.125C2756.31 653.095 2752.28 657.125 2747.31 657.125 2742.34 657.125 2738.31 653.095 2738.31 648.125 2738.31 643.154 2742.34 639.125 2747.31 639.125 2752.28 639.125 2756.31 643.154 2756.31 648.125Z" fill="#BFBFBF"/><path d="M2762.31 756.125C2762.31 761.095 2758.28 765.125 2753.31 765.125 2748.34 765.125 2744.31 761.095 2744.31 756.125 2744.31 751.154 2748.34 747.125 2753.31 747.125 2758.28 747.125 2762.31 751.154 2762.31 756.125Z" fill="#BFBFBF"/><path d="M2769.31 639.125C2769.31 644.095 2765.28 648.125 2760.31 648.125 2755.34 648.125 2751.31 644.095 2751.31 639.125 2751.31 634.154 2755.34 630.125 2760.31 630.125 2765.28 630.125 2769.31 634.154 2769.31 639.125Z" fill="#BFBFBF"/><path d="M2781.31 842.125C2781.31 847.095 2777.28 851.125 2772.31 851.125 2767.34 851.125 2763.31 847.095 2763.31 842.125 2763.31 837.154 2767.34 833.125 2772.31 833.125 2777.28 833.125 2781.31 837.154 2781.31 842.125Z" fill="#BFBFBF"/><path d="M2787.31 791.125C2787.31 796.095 2783.28 800.125 2778.31 800.125 2773.34 800.125 2769.31 796.095 2769.31 791.125 2769.31 786.154 2773.34 782.125 2778.31 782.125 2783.28 782.125 2787.31 786.154 2787.31 791.125Z" fill="#BFBFBF"/><path d="M2793.31 738.125C2793.31 743.095 2789.28 747.125 2784.31 747.125 2779.34 747.125 2775.31 743.095 2775.31 738.125 2775.31 733.154 2779.34 729.125 2784.31 729.125 2789.28 729.125 2793.31 733.154 2793.31 738.125Z" fill="#BFBFBF"/><path d="M2799.31 838.125C2799.31 843.095 2795.28 847.125 2790.31 847.125 2785.34 847.125 2781.31 843.095 2781.31 838.125 2781.31 833.154 2785.34 829.125 2790.31 829.125 2795.28 829.125 2799.31 833.154 2799.31 838.125Z" fill="#BFBFBF"/><path d="M2806.31 829.125C2806.31 834.095 2802.28 838.125 2797.31 838.125 2792.34 838.125 2788.31 834.095 2788.31 829.125 2788.31 824.154 2792.34 820.125 2797.31 820.125 2802.28 820.125 2806.31 824.154 2806.31 829.125Z" fill="#BFBFBF"/><path d="M2818.31 979.125C2818.31 984.095 2814.28 988.125 2809.31 988.125 2804.34 988.125 2800.31 984.095 2800.31 979.125 2800.31 974.154 2804.34 970.125 2809.31 970.125 2814.28 970.125 2818.31 974.154 2818.31 979.125Z" fill="#BFBFBF"/><path d="M2824.31 598.125C2824.31 603.095 2820.28 607.125 2815.31 607.125 2810.34 607.125 2806.31 603.095 2806.31 598.125 2806.31 593.154 2810.34 589.125 2815.31 589.125 2820.28 589.125 2824.31 593.154 2824.31 598.125Z" fill="#BFBFBF"/><path d="M2855.31 610.125C2855.31 615.095 2851.28 619.125 2846.31 619.125 2841.34 619.125 2837.31 615.095 2837.31 610.125 2837.31 605.154 2841.34 601.125 2846.31 601.125 2851.28 601.125 2855.31 605.154 2855.31 610.125Z" fill="#BFBFBF"/><path d="M2861.31 658.125C2861.31 663.095 2857.28 667.125 2852.31 667.125 2847.34 667.125 2843.31 663.095 2843.31 658.125 2843.31 653.154 2847.34 649.125 2852.31 649.125 2857.28 649.125 2861.31 653.154 2861.31 658.125Z" fill="#BFBFBF"/><path d="M2874.31 604.125C2874.31 609.095 2870.28 613.125 2865.31 613.125 2860.34 613.125 2856.31 609.095 2856.31 604.125 2856.31 599.154 2860.34 595.125 2865.31 595.125 2870.28 595.125 2874.31 599.154 2874.31 604.125Z" fill="#BFBFBF"/></g><g clip-path="url(#clip5)"><path d="M1106.31 533.125C1106.31 538.095 1102.28 542.125 1097.31 542.125 1092.34 542.125 1088.31 538.095 1088.31 533.125 1088.31 528.154 1092.34 524.125 1097.31 524.125 1102.28 524.125 1106.31 528.154 1106.31 533.125Z" fill="#1F4E79"/><path d="M1187.31 962.125C1187.31 967.095 1183.28 971.125 1178.31 971.125 1173.34 971.125 1169.31 967.095 1169.31 962.125 1169.31 957.154 1173.34 953.125 1178.31 953.125 1183.28 953.125 1187.31 957.154 1187.31 962.125Z" fill="#1F4E79"/><path d="M1193.31 1059.12C1193.31 1064.1 1189.28 1068.12 1184.31 1068.12 1179.34 1068.12 1175.31 1064.1 1175.31 1059.12 1175.31 1054.15 1179.34 1050.12 1184.31 1050.12 1189.28 1050.12 1193.31 1054.15 1193.31 1059.12Z" fill="#1F4E79"/><path d="M1205.31 1065.12C1205.31 1070.1 1201.28 1074.12 1196.31 1074.12 1191.34 1074.12 1187.31 1070.1 1187.31 1065.12 1187.31 1060.15 1191.34 1056.12 1196.31 1056.12 1201.28 1056.12 1205.31 1060.15 1205.31 1065.12Z" fill="#1F4E79"/><path d="M1211.31 1009.12C1211.31 1014.1 1207.28 1018.12 1202.31 1018.12 1197.34 1018.12 1193.31 1014.1 1193.31 1009.12 1193.31 1004.15 1197.34 1000.12 1202.31 1000.12 1207.28 1000.12 1211.31 1004.15 1211.31 1009.12Z" fill="#1F4E79"/><path d="M1230.31 504.125C1230.31 509.095 1226.28 513.125 1221.31 513.125 1216.34 513.125 1212.31 509.095 1212.31 504.125 1212.31 499.154 1216.34 495.125 1221.31 495.125 1226.28 495.125 1230.31 499.154 1230.31 504.125Z" fill="#1F4E79"/><path d="M1236.31 523.125C1236.31 528.095 1232.28 532.125 1227.31 532.125 1222.34 532.125 1218.31 528.095 1218.31 523.125 1218.31 518.154 1222.34 514.125 1227.31 514.125 1232.28 514.125 1236.31 518.154 1236.31 523.125Z" fill="#1F4E79"/><path d="M1261.31 542.125C1261.31 547.095 1257.28 551.125 1252.31 551.125 1247.34 551.125 1243.31 547.095 1243.31 542.125 1243.31 537.154 1247.34 533.125 1252.31 533.125 1257.28 533.125 1261.31 537.154 1261.31 542.125Z" fill="#1F4E79"/><path d="M1273.31 531.125C1273.31 536.095 1269.28 540.125 1264.31 540.125 1259.34 540.125 1255.31 536.095 1255.31 531.125 1255.31 526.154 1259.34 522.125 1264.31 522.125 1269.28 522.125 1273.31 526.154 1273.31 531.125Z" fill="#1F4E79"/><path d="M1279.31 518.125C1279.31 523.095 1275.28 527.124 1270.31 527.124 1265.34 527.124 1261.31 523.095 1261.31 518.125 1261.31 513.154 1265.34 509.125 1270.31 509.125 1275.28 509.125 1279.31 513.154 1279.31 518.125Z" fill="#1F4E79"/><path d="M1286.31 516.125C1286.31 521.095 1282.28 525.125 1277.31 525.125 1272.34 525.125 1268.31 521.095 1268.31 516.125 1268.31 511.154 1272.34 507.125 1277.31 507.125 1282.28 507.125 1286.31 511.154 1286.31 516.125Z" fill="#1F4E79"/><path d="M1298.31 774.125C1298.31 779.095 1294.28 783.125 1289.31 783.125 1284.34 783.125 1280.31 779.095 1280.31 774.125 1280.31 769.154 1284.34 765.125 1289.31 765.125 1294.28 765.125 1298.31 769.154 1298.31 774.125Z" fill="#1F4E79"/><path d="M1304.31 406.125C1304.31 411.095 1300.28 415.125 1295.31 415.125 1290.34 415.125 1286.31 411.095 1286.31 406.125 1286.31 401.154 1290.34 397.125 1295.31 397.125 1300.28 397.125 1304.31 401.154 1304.31 406.125Z" fill="#1F4E79"/><path d="M1310.31 431.125C1310.31 436.095 1306.28 440.125 1301.31 440.125 1296.34 440.125 1292.31 436.095 1292.31 431.125 1292.31 426.154 1296.34 422.125 1301.31 422.125 1306.28 422.125 1310.31 426.154 1310.31 431.125Z" fill="#1F4E79"/><path d="M1316.31 397.125C1316.31 402.095 1312.28 406.124 1307.31 406.124 1302.34 406.124 1298.31 402.095 1298.31 397.125 1298.31 392.154 1302.34 388.125 1307.31 388.125 1312.28 388.125 1316.31 392.154 1316.31 397.125Z" fill="#1F4E79"/><path d="M1323.31 646.125C1323.31 651.095 1319.28 655.125 1314.31 655.125 1309.34 655.125 1305.31 651.095 1305.31 646.125 1305.31 641.154 1309.34 637.125 1314.31 637.125 1319.28 637.125 1323.31 641.154 1323.31 646.125Z" fill="#1F4E79"/><path d="M1459.31 415.125C1459.31 420.095 1455.28 424.125 1450.31 424.125 1445.34 424.125 1441.31 420.095 1441.31 415.125 1441.31 410.154 1445.34 406.125 1450.31 406.125 1455.28 406.125 1459.31 410.154 1459.31 415.125Z" fill="#1F4E79"/><path d="M1465.31 480.125C1465.31 485.095 1461.28 489.125 1456.31 489.125 1451.34 489.125 1447.31 485.095 1447.31 480.125 1447.31 475.154 1451.34 471.125 1456.31 471.125 1461.28 471.125 1465.31 475.154 1465.31 480.125Z" fill="#1F4E79"/><path d="M1471.31 495.125C1471.31 500.095 1467.28 504.125 1462.31 504.125 1457.34 504.125 1453.31 500.095 1453.31 495.125 1453.31 490.154 1457.34 486.125 1462.31 486.125 1467.28 486.125 1471.31 490.154 1471.31 495.125Z" fill="#1F4E79"/><path d="M1477.31 531.125C1477.31 536.095 1473.28 540.125 1468.31 540.125 1463.34 540.125 1459.31 536.095 1459.31 531.125 1459.31 526.154 1463.34 522.125 1468.31 522.125 1473.28 522.125 1477.31 526.154 1477.31 531.125Z" fill="#1F4E79"/><path d="M1533.31 392.125C1533.31 397.095 1529.28 401.125 1524.31 401.125 1519.34 401.125 1515.31 397.095 1515.31 392.125 1515.31 387.154 1519.34 383.125 1524.31 383.125 1529.28 383.125 1533.31 387.154 1533.31 392.125Z" fill="#1F4E79"/><path d="M1539.31 1002.12C1539.31 1007.1 1535.28 1011.12 1530.31 1011.12 1525.34 1011.12 1521.31 1007.1 1521.31 1002.12 1521.31 997.154 1525.34 993.125 1530.31 993.125 1535.28 993.125 1539.31 997.154 1539.31 1002.12Z" fill="#1F4E79"/><path d="M1545.31 1013.12C1545.31 1018.1 1541.28 1022.12 1536.31 1022.12 1531.34 1022.12 1527.31 1018.1 1527.31 1013.12 1527.31 1008.15 1531.34 1004.12 1536.31 1004.12 1541.28 1004.12 1545.31 1008.15 1545.31 1013.12Z" fill="#1F4E79"/><path d="M1564.31 1054.12C1564.31 1059.1 1560.28 1063.12 1555.31 1063.12 1550.34 1063.12 1546.31 1059.1 1546.31 1054.12 1546.31 1049.15 1550.34 1045.12 1555.31 1045.12 1560.28 1045.12 1564.31 1049.15 1564.31 1054.12Z" fill="#1F4E79"/><path d="M1570.31 993.125C1570.31 998.095 1566.28 1002.12 1561.31 1002.12 1556.34 1002.12 1552.31 998.095 1552.31 993.125 1552.31 988.154 1556.34 984.125 1561.31 984.125 1566.28 984.125 1570.31 988.154 1570.31 993.125Z" fill="#1F4E79"/><path d="M1576.31 1008.12C1576.31 1013.1 1572.28 1017.12 1567.31 1017.12 1562.34 1017.12 1558.31 1013.1 1558.31 1008.12 1558.31 1003.15 1562.34 999.125 1567.31 999.125 1572.28 999.125 1576.31 1003.15 1576.31 1008.12Z" fill="#1F4E79"/><path d="M1619.31 1068.12C1619.31 1073.1 1615.28 1077.12 1610.31 1077.12 1605.34 1077.12 1601.31 1073.1 1601.31 1068.12 1601.31 1063.15 1605.34 1059.12 1610.31 1059.12 1615.28 1059.12 1619.31 1063.15 1619.31 1068.12Z" fill="#1F4E79"/><path d="M1625.31 997.125C1625.31 1002.1 1621.28 1006.12 1616.31 1006.12 1611.34 1006.12 1607.31 1002.1 1607.31 997.125 1607.31 992.154 1611.34 988.125 1616.31 988.125 1621.28 988.125 1625.31 992.154 1625.31 997.125Z" fill="#1F4E79"/><path d="M1743.31 793.125C1743.31 798.095 1739.28 802.125 1734.31 802.125 1729.34 802.125 1725.31 798.095 1725.31 793.125 1725.31 788.154 1729.34 784.125 1734.31 784.125 1739.28 784.125 1743.31 788.154 1743.31 793.125Z" fill="#1F4E79"/><path d="M1768.31 980.125C1768.31 985.095 1764.28 989.125 1759.31 989.125 1754.34 989.125 1750.31 985.095 1750.31 980.125 1750.31 975.154 1754.34 971.125 1759.31 971.125 1764.28 971.125 1768.31 975.154 1768.31 980.125Z" fill="#1F4E79"/><path d="M1774.31 543.125C1774.31 548.095 1770.28 552.125 1765.31 552.125 1760.34 552.125 1756.31 548.095 1756.31 543.125 1756.31 538.154 1760.34 534.125 1765.31 534.125 1770.28 534.125 1774.31 538.154 1774.31 543.125Z" fill="#1F4E79"/><path d="M1780.31 383.125C1780.31 388.095 1776.28 392.125 1771.31 392.125 1766.34 392.125 1762.31 388.095 1762.31 383.125 1762.31 378.154 1766.34 374.125 1771.31 374.125 1776.28 374.125 1780.31 378.154 1780.31 383.125Z" fill="#1F4E79"/><path d="M1786.31 539.125C1786.31 544.095 1782.28 548.125 1777.31 548.125 1772.34 548.125 1768.31 544.095 1768.31 539.125 1768.31 534.154 1772.34 530.125 1777.31 530.125 1782.28 530.125 1786.31 534.154 1786.31 539.125Z" fill="#1F4E79"/><path d="M1792.31 527.125C1792.31 532.095 1788.28 536.125 1783.31 536.125 1778.34 536.125 1774.31 532.095 1774.31 527.125 1774.31 522.154 1778.34 518.125 1783.31 518.125 1788.28 518.125 1792.31 522.154 1792.31 527.125Z" fill="#1F4E79"/><path d="M1798.31 485.125C1798.31 490.095 1794.28 494.124 1789.31 494.124 1784.34 494.124 1780.31 490.095 1780.31 485.125 1780.31 480.154 1784.34 476.125 1789.31 476.125 1794.28 476.125 1798.31 480.154 1798.31 485.125Z" fill="#1F4E79"/><path d="M1805.31 1001.12C1805.31 1006.1 1801.28 1010.12 1796.31 1010.12 1791.34 1010.12 1787.31 1006.1 1787.31 1001.12 1787.31 996.154 1791.34 992.125 1796.31 992.125 1801.28 992.125 1805.31 996.154 1805.31 1001.12Z" fill="#1F4E79"/><path d="M1811.31 395.125C1811.31 400.095 1807.28 404.125 1802.31 404.125 1797.34 404.125 1793.31 400.095 1793.31 395.125 1793.31 390.154 1797.34 386.125 1802.31 386.125 1807.28 386.125 1811.31 390.154 1811.31 395.125Z" fill="#1F4E79"/><path d="M1879.31 1016.12C1879.31 1021.1 1875.28 1025.12 1870.31 1025.12 1865.34 1025.12 1861.31 1021.1 1861.31 1016.12 1861.31 1011.15 1865.34 1007.12 1870.31 1007.12 1875.28 1007.12 1879.31 1011.15 1879.31 1016.12Z" fill="#1F4E79"/><path d="M1897.31 1061.12C1897.31 1066.1 1893.28 1070.12 1888.31 1070.12 1883.34 1070.12 1879.31 1066.1 1879.31 1061.12 1879.31 1056.15 1883.34 1052.12 1888.31 1052.12 1893.28 1052.12 1897.31 1056.15 1897.31 1061.12Z" fill="#1F4E79"/><path d="M1910.31 1075.12C1910.31 1080.1 1906.28 1084.12 1901.31 1084.12 1896.34 1084.12 1892.31 1080.1 1892.31 1075.12 1892.31 1070.15 1896.34 1066.12 1901.31 1066.12 1906.28 1066.12 1910.31 1070.15 1910.31 1075.12Z" fill="#1F4E79"/><path d="M1916.31 1342.12C1916.31 1347.1 1912.28 1351.12 1907.31 1351.12 1902.34 1351.12 1898.31 1347.1 1898.31 1342.12 1898.31 1337.15 1902.34 1333.12 1907.31 1333.12 1912.28 1333.12 1916.31 1337.15 1916.31 1342.12Z" fill="#1F4E79"/><path d="M2812.31 1026.12C2812.31 1031.1 2808.28 1035.12 2803.31 1035.12 2798.34 1035.12 2794.31 1031.1 2794.31 1026.12 2794.31 1021.15 2798.34 1017.12 2803.31 1017.12 2808.28 1017.12 2812.31 1021.15 2812.31 1026.12Z" fill="#1F4E79"/><path d="M2830.31 484.125C2830.31 489.095 2826.28 493.125 2821.31 493.125 2816.34 493.125 2812.31 489.095 2812.31 484.125 2812.31 479.154 2816.34 475.125 2821.31 475.125 2826.28 475.125 2830.31 479.154 2830.31 484.125Z" fill="#1F4E79"/><path d="M2836.31 532.125C2836.31 537.095 2832.28 541.125 2827.31 541.125 2822.34 541.125 2818.31 537.095 2818.31 532.125 2818.31 527.154 2822.34 523.125 2827.31 523.125 2832.28 523.125 2836.31 527.154 2836.31 532.125Z" fill="#1F4E79"/><path d="M2843.31 523.125C2843.31 528.095 2839.28 532.125 2834.31 532.125 2829.34 532.125 2825.31 528.095 2825.31 523.125 2825.31 518.154 2829.34 514.125 2834.31 514.125 2839.28 514.125 2843.31 518.154 2843.31 523.125Z" fill="#1F4E79"/><path d="M2849.31 526.125C2849.31 531.095 2845.28 535.125 2840.31 535.125 2835.34 535.125 2831.31 531.095 2831.31 526.125 2831.31 521.154 2835.34 517.125 2840.31 517.125 2845.28 517.125 2849.31 521.154 2849.31 526.125Z" fill="#1F4E79"/><path d="M2867.31 536.125C2867.31 541.095 2863.28 545.125 2858.31 545.125 2853.34 545.125 2849.31 541.095 2849.31 536.125 2849.31 531.154 2853.34 527.125 2858.31 527.125 2863.28 527.125 2867.31 531.154 2867.31 536.125Z" fill="#1F4E79"/><path d="M2880.31 540.125C2880.31 545.095 2876.28 549.125 2871.31 549.125 2866.34 549.125 2862.31 545.095 2862.31 540.125 2862.31 535.154 2866.34 531.125 2871.31 531.125 2876.28 531.125 2880.31 535.154 2880.31 540.125Z" fill="#1F4E79"/><path d="M2886.31 551.125C2886.31 556.095 2882.28 560.125 2877.31 560.125 2872.34 560.125 2868.31 556.095 2868.31 551.125 2868.31 546.154 2872.34 542.125 2877.31 542.125 2882.28 542.125 2886.31 546.154 2886.31 551.125Z" fill="#1F4E79"/><path d="M2892.31 569.125C2892.31 574.095 2888.28 578.125 2883.31 578.125 2878.34 578.125 2874.31 574.095 2874.31 569.125 2874.31 564.154 2878.34 560.125 2883.31 560.125 2888.28 560.125 2892.31 564.154 2892.31 569.125Z" fill="#1F4E79"/><path d="M2898.31 767.125C2898.31 772.095 2894.28 776.125 2889.31 776.125 2884.34 776.125 2880.31 772.095 2880.31 767.125 2880.31 762.154 2884.34 758.125 2889.31 758.125 2894.28 758.125 2898.31 762.154 2898.31 767.125Z" fill="#1F4E79"/><path d="M2904.31 408.125C2904.31 413.095 2900.28 417.124 2895.31 417.124 2890.34 417.124 2886.31 413.095 2886.31 408.125 2886.31 403.154 2890.34 399.125 2895.31 399.125 2900.28 399.125 2904.31 403.154 2904.31 408.125Z" fill="#1F4E79"/><path d="M2911.31 414.125C2911.31 419.095 2907.28 423.125 2902.31 423.125 2897.34 423.125 2893.31 419.095 2893.31 414.125 2893.31 409.154 2897.34 405.125 2902.31 405.125 2907.28 405.125 2911.31 409.154 2911.31 414.125Z" fill="#1F4E79"/><path d="M2917.31 398.125C2917.31 403.095 2913.28 407.125 2908.31 407.125 2903.34 407.125 2899.31 403.095 2899.31 398.125 2899.31 393.154 2903.34 389.125 2908.31 389.125 2913.28 389.125 2917.31 393.154 2917.31 398.125Z" fill="#1F4E79"/><path d="M2923.31 648.125C2923.31 653.095 2919.28 657.125 2914.31 657.125 2909.34 657.125 2905.31 653.095 2905.31 648.125 2905.31 643.154 2909.34 639.125 2914.31 639.125 2919.28 639.125 2923.31 643.154 2923.31 648.125Z" fill="#1F4E79"/><path d="M2929.31 658.125C2929.31 663.095 2925.28 667.125 2920.31 667.125 2915.34 667.125 2911.31 663.095 2911.31 658.125 2911.31 653.154 2915.34 649.125 2920.31 649.125 2925.28 649.125 2929.31 653.154 2929.31 658.125Z" fill="#1F4E79"/></g><g clip-path="url(#clip6)"><path d="M1903.31 973.125C1903.31 978.095 1899.28 982.125 1894.31 982.125 1889.34 982.125 1885.31 978.095 1885.31 973.125 1885.31 968.154 1889.34 964.125 1894.31 964.125 1899.28 964.125 1903.31 968.154 1903.31 973.125Z" fill="#C00000"/></g><g clip-path="url(#clip7)"><text fill="#7F7F7F" font-family="Calibri,Calibri_MSFontService,sans-serif" font-weight="400" font-size="55" transform="matrix(1 0 0 1 810.104 1471)">-2</text></g><g clip-path="url(#clip8)"><text fill="#7F7F7F" font-family="Calibri,Calibri_MSFontService,sans-serif" font-weight="400" font-size="55" transform="matrix(1 0 0 1 810.104 1353)">-1</text></g><g clip-path="url(#clip9)"><text fill="#7F7F7F" font-family="Calibri,Calibri_MSFontService,sans-serif" font-weight="400" font-size="55" transform="matrix(1 0 0 1 826.948 1234)">0</text></g><g clip-path="url(#clip10)"><text fill="#7F7F7F" font-family="Calibri,Calibri_MSFontService,sans-serif" font-weight="400" font-size="55" transform="matrix(1 0 0 1 826.948 1115)">1</text></g><g clip-path="url(#clip11)"><text fill="#7F7F7F" font-family="Calibri,Calibri_MSFontService,sans-serif" font-weight="400" font-size="55" transform="matrix(1 0 0 1 826.948 997)">2</text></g><g clip-path="url(#clip12)"><text fill="#7F7F7F" font-family="Calibri,Calibri_MSFontService,sans-serif" font-weight="400" font-size="55" transform="matrix(1 0 0 1 826.948 878)">3</text></g><g clip-path="url(#clip13)"><text fill="#7F7F7F" font-family="Calibri,Calibri_MSFontService,sans-serif" font-weight="400" font-size="55" transform="matrix(1 0 0 1 826.948 759)">4</text></g><g clip-path="url(#clip14)"><text fill="#7F7F7F" font-family="Calibri,Calibri_MSFontService,sans-serif" font-weight="400" font-size="55" transform="matrix(1 0 0 1 826.948 641)">5</text></g><g clip-path="url(#clip15)"><text fill="#7F7F7F" font-family="Calibri,Calibri_MSFontService,sans-serif" font-weight="400" font-size="55" transform="matrix(1 0 0 1 826.948 522)">6</text></g><g clip-path="url(#clip16)"><text fill="#7F7F7F" font-family="Calibri,Calibri_MSFontService,sans-serif" font-weight="400" font-size="55" transform="matrix(1 0 0 1 826.948 404)">7</text></g><g clip-path="url(#clip17)"><text fill="#7F7F7F" font-family="Calibri,Calibri_MSFontService,sans-serif" font-weight="400" font-size="55" transform="matrix(1 0 0 1 826.948 285)">8</text></g><rect x="780.5" y="213.5" width="2339" height="1299" stroke="#D9D9D9" stroke-width="3.4375" stroke-linejoin="round" stroke-miterlimit="10" fill="none"/></g></svg>