<svg width="2342" height="1302" xmlns="http://www.w3.org/2000/svg" xmlns:xlink="http://www.w3.org/1999/xlink" overflow="hidden"><defs><clipPath id="clip0"><rect x="693" y="735" width="2342" height="1302"/></clipPath><radialGradient cx="3.24058e+06" cy="1.79971e+06" r="3.70679e+06" fx="3.24058e+06" fy="1.79971e+06" gradientUnits="userSpaceOnUse" spreadMethod="pad" id="fill1" gradientTransform="matrix(0.000360892 0 0 0.000360892 694 736)"><stop offset="0" stop-color="#FFFFFF"/><stop offset="0.43" stop-color="#FFFFFF"/><stop offset="1" stop-color="#F2F2F2"/></radialGradient><clipPath id="clip2"><rect x="694" y="735" width="2338" height="1299"/></clipPath><clipPath id="clip3"><rect x="694" y="735" width="2338" height="1299"/></clipPath><clipPath id="clip4"><rect x="694" y="735" width="2338" height="1299"/></clipPath><clipPath id="clip5"><rect x="694" y="735" width="2338" height="1299"/></clipPath><clipPath id="clip6"><rect x="694" y="735" width="2338" height="1299"/></clipPath><clipPath id="clip7"><rect x="694" y="735" width="2338" height="1299"/></clipPath><clipPath id="clip8"><rect x="694" y="735" width="2338" height="1299"/></clipPath><clipPath id="clip9"><rect x="694" y="735" width="2338" height="1299"/></clipPath><clipPath id="clip10"><rect x="694" y="735" width="2338" height="1299"/></clipPath><clipPath id="clip11"><rect x="694" y="735" width="2338" height="1299"/></clipPath><clipPath id="clip12"><rect x="694" y="735" width="2338" height="1299"/></clipPath><clipPath id="clip13"><rect x="694" y="735" width="2338" height="1299"/></clipPath><clipPath id="clip14"><rect x="694" y="735" width="2338" height="1299"/></clipPath><clipPath id="clip15"><rect x="694" y="735" width="2338" height="1299"/></clipPath><clipPath id="clip16"><rect x="694" y="735" width="2338" height="1299"/></clipPath><clipPath id="clip17"><rect x="694" y="735" width="2338" height="1299"/></clipPath><clipPath id="clip18"><rect x="694" y="735" width="2338" height="1299"/></clipPath><clipPath id="clip19"><rect x="694" y="735" width="2338" height="1299"/></clipPath><clipPath id="clip20"><rect x="694" y="735" width="2338" height="1299"/></clipPath><clipPath id="clip21"><rect x="694" y="735" width="2338" height="1299"/></clipPath><clipPath id="clip22"><rect x="694" y="735" width="2338" height="1299"/></clipPath><clipPath id="clip23"><rect x="694" y="735" width="2338" height="1299"/></clipPath><clipPath id="clip24"><rect x="694" y="735" width="2338" height="1299"/></clipPath><clipPath id="clip25"><rect x="694" y="735" width="2338" height="1299"/></clipPath><clipPath id="clip26"><rect x="694" y="735" width="2338" height="1299"/></clipPath><clipPath id="clip27"><rect x="694" y="735" width="2338" height="1299"/></clipPath><clipPath id="clip28"><rect x="694" y="735" width="2338" height="1299"/></clipPath><clipPath id="clip29"><rect x="694" y="735" width="2338" height="1299"/></clipPath><clipPath id="clip30"><rect x="694" y="735" width="2338" height="1299"/></clipPath><clipPath id="clip31"><rect x="694" y="735" width="2338" height="1299"/></clipPath></defs><g clip-path="url(#clip0)" transform="translate(-693 -735)"><rect x="694" y="736" width="2339" height="1299" fill="url(#fill1)"/><g clip-path="url(#clip2)"><path d="M928.5 1903.5 2982.5 1903.5M928.5 1804.56 2982.5 1804.56M928.5 1606.55 2982.5 1606.55M928.5 1507.55 2982.5 1507.55M928.5 1408.55 2982.5 1408.55M928.5 1309.54 2982.5 1309.54M928.5 1210.54 2982.5 1210.54M928.5 1111.54 2982.5 1111.54M928.5 1012.53 2982.5 1012.53M928.5 913.5 2982.5 913.5" stroke="#D9D9D9" stroke-width="3.4375" stroke-linejoin="round" stroke-miterlimit="10" fill="none"/></g><g clip-path="url(#clip3)"><path d="M928.5 1705.5 2982.5 1705.5" stroke="#000000" stroke-width="11.4583" stroke-linejoin="round" stroke-miterlimit="10" fill="none" fill-rule="evenodd"/></g><g clip-path="url(#clip4)"><path d="M1055.37 1400.62C1055.37 1405.6 1051.35 1409.62 1046.37 1409.62 1041.4 1409.62 1037.37 1405.6 1037.37 1400.62 1037.37 1395.65 1041.4 1391.62 1046.37 1391.62 1051.35 1391.62 1055.37 1395.65 1055.37 1400.62Z" fill="#BFBFBF"/><path d="M1090.37 1570.62C1090.37 1575.6 1086.35 1579.62 1081.37 1579.62 1076.4 1579.62 1072.37 1575.6 1072.37 1570.62 1072.37 1565.65 1076.4 1561.62 1081.37 1561.62 1086.35 1561.62 1090.37 1565.65 1090.37 1570.62Z" fill="#BFBFBF"/><path d="M1125.37 1238.62C1125.37 1243.6 1121.35 1247.62 1116.37 1247.62 1111.4 1247.62 1107.37 1243.6 1107.37 1238.62 1107.37 1233.65 1111.4 1229.62 1116.37 1229.62 1121.35 1229.62 1125.37 1233.65 1125.37 1238.62Z" fill="#BFBFBF"/><path d="M1131.37 1241.62C1131.37 1246.6 1127.35 1250.62 1122.37 1250.62 1117.4 1250.62 1113.38 1246.6 1113.38 1241.62 1113.38 1236.65 1117.4 1232.63 1122.37 1232.63 1127.35 1232.63 1131.37 1236.65 1131.37 1241.62Z" fill="#BFBFBF"/><path d="M1137.37 1235.62C1137.37 1240.6 1133.35 1244.62 1128.37 1244.62 1123.4 1244.62 1119.37 1240.6 1119.37 1235.62 1119.37 1230.65 1123.4 1226.62 1128.37 1226.62 1133.35 1226.62 1137.37 1230.65 1137.37 1235.62Z" fill="#BFBFBF"/><path d="M1143.37 1212.62C1143.37 1217.6 1139.35 1221.62 1134.37 1221.62 1129.4 1221.62 1125.37 1217.6 1125.37 1212.62 1125.37 1207.65 1129.4 1203.62 1134.37 1203.62 1139.35 1203.62 1143.37 1207.65 1143.37 1212.62Z" fill="#BFBFBF"/><path d="M1166.37 1401.62C1166.37 1406.6 1162.35 1410.62 1157.37 1410.62 1152.4 1410.62 1148.37 1406.6 1148.37 1401.62 1148.37 1396.65 1152.4 1392.62 1157.37 1392.62 1162.35 1392.62 1166.37 1396.65 1166.37 1401.62Z" fill="#BFBFBF"/><path d="M1172.37 1362.62C1172.37 1367.6 1168.35 1371.62 1163.37 1371.62 1158.4 1371.62 1154.37 1367.6 1154.37 1362.62 1154.37 1357.65 1158.4 1353.63 1163.37 1353.63 1168.35 1353.63 1172.37 1357.65 1172.37 1362.62Z" fill="#BFBFBF"/><path d="M1178.37 1360.62C1178.37 1365.6 1174.35 1369.62 1169.37 1369.62 1164.4 1369.62 1160.37 1365.6 1160.37 1360.62 1160.37 1355.65 1164.4 1351.62 1169.37 1351.62 1174.35 1351.62 1178.37 1355.65 1178.37 1360.62Z" fill="#BFBFBF"/><path d="M1184.37 1354.62C1184.37 1359.6 1180.35 1363.62 1175.37 1363.62 1170.4 1363.62 1166.38 1359.6 1166.38 1354.62 1166.38 1349.65 1170.4 1345.62 1175.37 1345.62 1180.35 1345.62 1184.37 1349.65 1184.37 1354.62Z" fill="#BFBFBF"/><path d="M1190.37 1376.62C1190.37 1381.6 1186.35 1385.62 1181.37 1385.62 1176.4 1385.62 1172.37 1381.6 1172.37 1376.62 1172.37 1371.65 1176.4 1367.62 1181.37 1367.62 1186.35 1367.62 1190.37 1371.65 1190.37 1376.62Z" fill="#BFBFBF"/><path d="M1207.37 1570.62C1207.37 1575.6 1203.35 1579.62 1198.37 1579.62 1193.4 1579.62 1189.38 1575.6 1189.38 1570.62 1189.38 1565.65 1193.4 1561.62 1198.37 1561.62 1203.35 1561.62 1207.37 1565.65 1207.37 1570.62Z" fill="#BFBFBF"/><path d="M1225.37 1196.62C1225.37 1201.6 1221.35 1205.62 1216.37 1205.62 1211.4 1205.62 1207.37 1201.6 1207.37 1196.62 1207.37 1191.65 1211.4 1187.62 1216.37 1187.62 1221.35 1187.62 1225.37 1191.65 1225.37 1196.62Z" fill="#BFBFBF"/><path d="M1231.37 1196.62C1231.37 1201.6 1227.35 1205.62 1222.37 1205.62 1217.4 1205.62 1213.37 1201.6 1213.37 1196.62 1213.37 1191.65 1217.4 1187.62 1222.37 1187.62 1227.35 1187.62 1231.37 1191.65 1231.37 1196.62Z" fill="#BFBFBF"/><path d="M1248.37 1199.62C1248.37 1204.6 1244.35 1208.62 1239.37 1208.62 1234.4 1208.62 1230.37 1204.6 1230.37 1199.62 1230.37 1194.65 1234.4 1190.62 1239.37 1190.62 1244.35 1190.62 1248.37 1194.65 1248.37 1199.62Z" fill="#BFBFBF"/><path d="M1254.37 1246.62C1254.37 1251.6 1250.35 1255.62 1245.37 1255.62 1240.4 1255.62 1236.37 1251.6 1236.37 1246.62 1236.37 1241.65 1240.4 1237.62 1245.37 1237.62 1250.35 1237.62 1254.37 1241.65 1254.37 1246.62Z" fill="#BFBFBF"/><path d="M1260.37 1185.62C1260.37 1190.6 1256.35 1194.62 1251.37 1194.62 1246.4 1194.62 1242.37 1190.6 1242.37 1185.62 1242.37 1180.65 1246.4 1176.62 1251.37 1176.62 1256.35 1176.62 1260.37 1180.65 1260.37 1185.62Z" fill="#BFBFBF"/><path d="M1272.37 1200.62C1272.37 1205.6 1268.35 1209.62 1263.37 1209.62 1258.4 1209.62 1254.38 1205.6 1254.38 1200.62 1254.38 1195.65 1258.4 1191.62 1263.37 1191.62 1268.35 1191.62 1272.37 1195.65 1272.37 1200.62Z" fill="#BFBFBF"/><path d="M1342.37 1309.62C1342.37 1314.6 1338.35 1318.62 1333.37 1318.62 1328.4 1318.62 1324.37 1314.6 1324.37 1309.62 1324.37 1304.65 1328.4 1300.62 1333.37 1300.62 1338.35 1300.62 1342.37 1304.65 1342.37 1309.62Z" fill="#BFBFBF"/><path d="M1413.37 1360.62C1413.37 1365.6 1409.35 1369.62 1404.37 1369.62 1399.4 1369.62 1395.37 1365.6 1395.37 1360.62 1395.37 1355.65 1399.4 1351.62 1404.37 1351.62 1409.35 1351.62 1413.37 1355.65 1413.37 1360.62Z" fill="#BFBFBF"/><path d="M1419.37 1343.62C1419.37 1348.6 1415.35 1352.62 1410.37 1352.62 1405.4 1352.62 1401.37 1348.6 1401.37 1343.62 1401.37 1338.65 1405.4 1334.62 1410.37 1334.62 1415.35 1334.62 1419.37 1338.65 1419.37 1343.62Z" fill="#BFBFBF"/><path d="M1489.37 1583.62C1489.37 1588.6 1485.35 1592.62 1480.37 1592.62 1475.4 1592.62 1471.37 1588.6 1471.37 1583.62 1471.37 1578.65 1475.4 1574.63 1480.37 1574.63 1485.35 1574.63 1489.37 1578.65 1489.37 1583.62Z" fill="#BFBFBF"/><path d="M1495.37 1574.62C1495.37 1579.6 1491.35 1583.62 1486.37 1583.62 1481.4 1583.62 1477.37 1579.6 1477.37 1574.62 1477.37 1569.65 1481.4 1565.62 1486.37 1565.62 1491.35 1565.62 1495.37 1569.65 1495.37 1574.62Z" fill="#BFBFBF"/><path d="M1501.37 1483.62C1501.37 1488.6 1497.35 1492.62 1492.37 1492.62 1487.4 1492.62 1483.37 1488.6 1483.37 1483.62 1483.37 1478.65 1487.4 1474.63 1492.37 1474.63 1497.35 1474.63 1501.37 1478.65 1501.37 1483.62Z" fill="#BFBFBF"/><path d="M1507.37 1560.62C1507.37 1565.6 1503.35 1569.62 1498.37 1569.62 1493.4 1569.62 1489.37 1565.6 1489.37 1560.62 1489.37 1555.65 1493.4 1551.63 1498.37 1551.63 1503.35 1551.63 1507.37 1555.65 1507.37 1560.62Z" fill="#BFBFBF"/><path d="M1518.37 1565.62C1518.37 1570.6 1514.35 1574.62 1509.37 1574.62 1504.4 1574.62 1500.37 1570.6 1500.37 1565.62 1500.37 1560.65 1504.4 1556.62 1509.37 1556.62 1514.35 1556.62 1518.37 1560.65 1518.37 1565.62Z" fill="#BFBFBF"/><path d="M1542.37 1542.62C1542.37 1547.6 1538.35 1551.62 1533.37 1551.62 1528.4 1551.62 1524.37 1547.6 1524.37 1542.62 1524.37 1537.65 1528.4 1533.62 1533.37 1533.62 1538.35 1533.62 1542.37 1537.65 1542.37 1542.62Z" fill="#BFBFBF"/><path d="M1548.37 1550.62C1548.37 1555.6 1544.35 1559.62 1539.37 1559.62 1534.4 1559.62 1530.38 1555.6 1530.38 1550.62 1530.38 1545.65 1534.4 1541.63 1539.37 1541.63 1544.35 1541.63 1548.37 1545.65 1548.37 1550.62Z" fill="#BFBFBF"/><path d="M1577.37 1581.62C1577.37 1586.6 1573.35 1590.62 1568.37 1590.62 1563.4 1590.62 1559.37 1586.6 1559.37 1581.62 1559.37 1576.65 1563.4 1572.62 1568.37 1572.62 1573.35 1572.62 1577.37 1576.65 1577.37 1581.62Z" fill="#BFBFBF"/><path d="M1583.37 1570.62C1583.37 1575.6 1579.35 1579.62 1574.37 1579.62 1569.4 1579.62 1565.37 1575.6 1565.37 1570.62 1565.37 1565.65 1569.4 1561.62 1574.37 1561.62 1579.35 1561.62 1583.37 1565.65 1583.37 1570.62Z" fill="#BFBFBF"/><path d="M1589.37 1548.62C1589.37 1553.6 1585.35 1557.62 1580.37 1557.62 1575.4 1557.62 1571.37 1553.6 1571.37 1548.62 1571.37 1543.65 1575.4 1539.62 1580.37 1539.62 1585.35 1539.62 1589.37 1543.65 1589.37 1548.62Z" fill="#BFBFBF"/><path d="M1595.37 1555.62C1595.37 1560.6 1591.35 1564.62 1586.37 1564.62 1581.4 1564.62 1577.37 1560.6 1577.37 1555.62 1577.37 1550.65 1581.4 1546.62 1586.37 1546.62 1591.35 1546.62 1595.37 1550.65 1595.37 1555.62Z" fill="#BFBFBF"/><path d="M1618.37 1568.62C1618.37 1573.6 1614.35 1577.62 1609.37 1577.62 1604.4 1577.62 1600.37 1573.6 1600.37 1568.62 1600.37 1563.65 1604.4 1559.62 1609.37 1559.62 1614.35 1559.62 1618.37 1563.65 1618.37 1568.62Z" fill="#BFBFBF"/><path d="M1700.37 1452.62C1700.37 1457.6 1696.35 1461.62 1691.37 1461.62 1686.4 1461.62 1682.37 1457.6 1682.37 1452.62 1682.37 1447.65 1686.4 1443.62 1691.37 1443.62 1696.35 1443.62 1700.37 1447.65 1700.37 1452.62Z" fill="#BFBFBF"/><path d="M1706.37 1368.62C1706.37 1373.6 1702.35 1377.62 1697.37 1377.62 1692.4 1377.62 1688.37 1373.6 1688.37 1368.62 1688.37 1363.65 1692.4 1359.62 1697.37 1359.62 1702.35 1359.62 1706.37 1363.65 1706.37 1368.62Z" fill="#BFBFBF"/><path d="M1718.37 1380.62C1718.37 1385.6 1714.35 1389.62 1709.37 1389.62 1704.4 1389.62 1700.37 1385.6 1700.37 1380.62 1700.37 1375.65 1704.4 1371.62 1709.37 1371.62 1714.35 1371.62 1718.37 1375.65 1718.37 1380.62Z" fill="#BFBFBF"/><path d="M1794.37 1470.62C1794.37 1475.6 1790.35 1479.62 1785.37 1479.62 1780.4 1479.62 1776.37 1475.6 1776.37 1470.62 1776.37 1465.65 1780.4 1461.62 1785.37 1461.62 1790.35 1461.62 1794.37 1465.65 1794.37 1470.62Z" fill="#BFBFBF"/><path d="M1800.37 1437.62C1800.37 1442.6 1796.35 1446.62 1791.37 1446.62 1786.4 1446.62 1782.38 1442.6 1782.38 1437.62 1782.38 1432.65 1786.4 1428.62 1791.37 1428.62 1796.35 1428.62 1800.37 1432.65 1800.37 1437.62Z" fill="#BFBFBF"/><path d="M1806.37 1408.62C1806.37 1413.6 1802.35 1417.62 1797.37 1417.62 1792.4 1417.62 1788.37 1413.6 1788.37 1408.62 1788.37 1403.65 1792.4 1399.62 1797.37 1399.62 1802.35 1399.62 1806.37 1403.65 1806.37 1408.62Z" fill="#BFBFBF"/><path d="M1812.37 1443.62C1812.37 1448.6 1808.35 1452.62 1803.37 1452.62 1798.4 1452.62 1794.38 1448.6 1794.38 1443.62 1794.38 1438.65 1798.4 1434.62 1803.37 1434.62 1808.35 1434.62 1812.37 1438.65 1812.37 1443.62Z" fill="#BFBFBF"/><path d="M1818.37 1395.62C1818.37 1400.6 1814.35 1404.62 1809.37 1404.62 1804.4 1404.62 1800.37 1400.6 1800.37 1395.62 1800.37 1390.65 1804.4 1386.63 1809.37 1386.63 1814.35 1386.63 1818.37 1390.65 1818.37 1395.62Z" fill="#BFBFBF"/><path d="M1824.37 1423.62C1824.37 1428.6 1820.35 1432.62 1815.37 1432.62 1810.4 1432.62 1806.38 1428.6 1806.38 1423.62 1806.38 1418.65 1810.4 1414.62 1815.37 1414.62 1820.35 1414.62 1824.37 1418.65 1824.37 1423.62Z" fill="#BFBFBF"/><path d="M1829.37 1401.62C1829.37 1406.6 1825.35 1410.62 1820.37 1410.62 1815.4 1410.62 1811.37 1406.6 1811.37 1401.62 1811.37 1396.65 1815.4 1392.62 1820.37 1392.62 1825.35 1392.62 1829.37 1396.65 1829.37 1401.62Z" fill="#BFBFBF"/><path d="M1859.37 1588.62C1859.37 1593.6 1855.35 1597.62 1850.37 1597.62 1845.4 1597.62 1841.37 1593.6 1841.37 1588.62 1841.37 1583.65 1845.4 1579.62 1850.37 1579.62 1855.35 1579.62 1859.37 1583.65 1859.37 1588.62Z" fill="#BFBFBF"/><path d="M1865.37 1581.62C1865.37 1586.6 1861.35 1590.62 1856.37 1590.62 1851.4 1590.62 1847.37 1586.6 1847.37 1581.62 1847.37 1576.65 1851.4 1572.62 1856.37 1572.62 1861.35 1572.62 1865.37 1576.65 1865.37 1581.62Z" fill="#BFBFBF"/><path d="M2058.37 1449.62C2058.37 1454.6 2054.35 1458.62 2049.37 1458.62 2044.4 1458.62 2040.37 1454.6 2040.37 1449.62 2040.37 1444.65 2044.4 1440.62 2049.37 1440.62 2054.35 1440.62 2058.37 1444.65 2058.37 1449.62Z" fill="#BFBFBF"/><path d="M2346.37 973.625C2346.37 978.595 2342.35 982.625 2337.37 982.625 2332.4 982.625 2328.37 978.595 2328.37 973.625 2328.37 968.654 2332.4 964.625 2337.37 964.625 2342.35 964.625 2346.37 968.654 2346.37 973.625Z" fill="#BFBFBF"/><path d="M2616.37 1443.62C2616.37 1448.6 2612.35 1452.62 2607.38 1452.62 2602.4 1452.62 2598.38 1448.6 2598.38 1443.62 2598.38 1438.65 2602.4 1434.62 2607.38 1434.62 2612.35 1434.62 2616.37 1438.65 2616.37 1443.62Z" fill="#BFBFBF"/><path d="M2634.37 1429.62C2634.37 1434.6 2630.35 1438.62 2625.38 1438.62 2620.4 1438.62 2616.38 1434.6 2616.38 1429.62 2616.38 1424.65 2620.4 1420.63 2625.38 1420.63 2630.35 1420.63 2634.37 1424.65 2634.37 1429.62Z" fill="#BFBFBF"/><path d="M2675.37 1304.62C2675.37 1309.6 2671.35 1313.62 2666.37 1313.62 2661.4 1313.62 2657.37 1309.6 2657.37 1304.62 2657.37 1299.65 2661.4 1295.62 2666.37 1295.62 2671.35 1295.62 2675.37 1299.65 2675.37 1304.62Z" fill="#BFBFBF"/><path d="M2680.37 1204.62C2680.37 1209.6 2676.35 1213.62 2671.38 1213.62 2666.4 1213.62 2662.38 1209.6 2662.38 1204.62 2662.38 1199.65 2666.4 1195.62 2671.38 1195.62 2676.35 1195.62 2680.37 1199.65 2680.37 1204.62Z" fill="#BFBFBF"/><path d="M2686.37 1228.62C2686.37 1233.6 2682.35 1237.62 2677.37 1237.62 2672.4 1237.62 2668.37 1233.6 2668.37 1228.62 2668.37 1223.65 2672.4 1219.62 2677.37 1219.62 2682.35 1219.62 2686.37 1223.65 2686.37 1228.62Z" fill="#BFBFBF"/><path d="M2692.37 1319.62C2692.37 1324.6 2688.35 1328.62 2683.38 1328.62 2678.4 1328.62 2674.38 1324.6 2674.38 1319.62 2674.38 1314.65 2678.4 1310.63 2683.38 1310.63 2688.35 1310.63 2692.37 1314.65 2692.37 1319.62Z" fill="#BFBFBF"/><path d="M2698.37 1221.62C2698.37 1226.6 2694.35 1230.62 2689.37 1230.62 2684.4 1230.62 2680.37 1226.6 2680.37 1221.62 2680.37 1216.65 2684.4 1212.62 2689.37 1212.62 2694.35 1212.62 2698.37 1216.65 2698.37 1221.62Z" fill="#BFBFBF"/><path d="M2710.37 1390.62C2710.37 1395.6 2706.35 1399.62 2701.37 1399.62 2696.4 1399.62 2692.37 1395.6 2692.37 1390.62 2692.37 1385.65 2696.4 1381.62 2701.37 1381.62 2706.35 1381.62 2710.37 1385.65 2710.37 1390.62Z" fill="#BFBFBF"/><path d="M2716.37 1348.62C2716.37 1353.6 2712.35 1357.62 2707.37 1357.62 2702.4 1357.62 2698.37 1353.6 2698.37 1348.62 2698.37 1343.65 2702.4 1339.62 2707.37 1339.62 2712.35 1339.62 2716.37 1343.65 2716.37 1348.62Z" fill="#BFBFBF"/><path d="M2722.37 1304.62C2722.37 1309.6 2718.35 1313.62 2713.38 1313.62 2708.4 1313.62 2704.38 1309.6 2704.38 1304.62 2704.38 1299.65 2708.4 1295.62 2713.38 1295.62 2718.35 1295.62 2722.37 1299.65 2722.37 1304.62Z" fill="#BFBFBF"/><path d="M2727.37 1387.62C2727.37 1392.6 2723.35 1396.62 2718.37 1396.62 2713.4 1396.62 2709.37 1392.6 2709.37 1387.62 2709.37 1382.65 2713.4 1378.62 2718.37 1378.62 2723.35 1378.62 2727.37 1382.65 2727.37 1387.62Z" fill="#BFBFBF"/><path d="M2733.37 1379.62C2733.37 1384.6 2729.35 1388.62 2724.38 1388.62 2719.4 1388.62 2715.38 1384.6 2715.38 1379.62 2715.38 1374.65 2719.4 1370.62 2724.38 1370.62 2729.35 1370.62 2733.37 1374.65 2733.37 1379.62Z" fill="#BFBFBF"/><path d="M2745.37 1504.62C2745.37 1509.6 2741.35 1513.62 2736.38 1513.62 2731.4 1513.62 2727.38 1509.6 2727.38 1504.62 2727.38 1499.65 2731.4 1495.62 2736.38 1495.62 2741.35 1495.62 2745.37 1499.65 2745.37 1504.62Z" fill="#BFBFBF"/><path d="M2751.37 1186.62C2751.37 1191.6 2747.35 1195.62 2742.37 1195.62 2737.4 1195.62 2733.37 1191.6 2733.37 1186.62 2733.37 1181.65 2737.4 1177.63 2742.37 1177.63 2747.35 1177.63 2751.37 1181.65 2751.37 1186.62Z" fill="#BFBFBF"/><path d="M2780.37 1197.62C2780.37 1202.6 2776.35 1206.62 2771.38 1206.62 2766.4 1206.62 2762.38 1202.6 2762.38 1197.62 2762.38 1192.65 2766.4 1188.63 2771.38 1188.63 2776.35 1188.63 2780.37 1192.65 2780.37 1197.62Z" fill="#BFBFBF"/><path d="M2786.37 1237.62C2786.37 1242.6 2782.35 1246.62 2777.37 1246.62 2772.4 1246.62 2768.37 1242.6 2768.37 1237.62 2768.37 1232.65 2772.4 1228.62 2777.37 1228.62 2782.35 1228.62 2786.37 1232.65 2786.37 1237.62Z" fill="#BFBFBF"/><path d="M2798.37 1192.62C2798.37 1197.6 2794.35 1201.62 2789.37 1201.62 2784.4 1201.62 2780.37 1197.6 2780.37 1192.62 2780.37 1187.65 2784.4 1183.62 2789.37 1183.62 2794.35 1183.62 2798.37 1187.65 2798.37 1192.62Z" fill="#BFBFBF"/></g><g clip-path="url(#clip5)"><path d="M1119.37 1132.62C1119.37 1137.6 1115.35 1141.62 1110.37 1141.62 1105.4 1141.62 1101.38 1137.6 1101.38 1132.62 1101.38 1127.65 1105.4 1123.63 1110.37 1123.63 1115.35 1123.63 1119.37 1127.65 1119.37 1132.62Z" fill="#1F4E79"/><path d="M1196.37 1490.62C1196.37 1495.6 1192.35 1499.62 1187.37 1499.62 1182.4 1499.62 1178.38 1495.6 1178.38 1490.62 1178.38 1485.65 1182.4 1481.62 1187.37 1481.62 1192.35 1481.62 1196.37 1485.65 1196.37 1490.62Z" fill="#1F4E79"/><path d="M1201.37 1571.62C1201.37 1576.6 1197.35 1580.62 1192.37 1580.62 1187.4 1580.62 1183.37 1576.6 1183.37 1571.62 1183.37 1566.65 1187.4 1562.63 1192.37 1562.63 1197.35 1562.63 1201.37 1566.65 1201.37 1571.62Z" fill="#1F4E79"/><path d="M1213.37 1577.62C1213.37 1582.6 1209.35 1586.62 1204.37 1586.62 1199.4 1586.62 1195.37 1582.6 1195.37 1577.62 1195.37 1572.65 1199.4 1568.62 1204.37 1568.62 1209.35 1568.62 1213.37 1572.65 1213.37 1577.62Z" fill="#1F4E79"/><path d="M1219.37 1530.62C1219.37 1535.6 1215.35 1539.62 1210.37 1539.62 1205.4 1539.62 1201.38 1535.6 1201.38 1530.62 1201.38 1525.65 1205.4 1521.62 1210.37 1521.62 1215.35 1521.62 1219.37 1525.65 1219.37 1530.62Z" fill="#1F4E79"/><path d="M1237.37 1108.62C1237.37 1113.6 1233.35 1117.62 1228.37 1117.62 1223.4 1117.62 1219.37 1113.6 1219.37 1108.62 1219.37 1103.65 1223.4 1099.62 1228.37 1099.62 1233.35 1099.62 1237.37 1103.65 1237.37 1108.62Z" fill="#1F4E79"/><path d="M1243.37 1124.62C1243.37 1129.6 1239.35 1133.62 1234.37 1133.62 1229.4 1133.62 1225.37 1129.6 1225.37 1124.62 1225.37 1119.65 1229.4 1115.62 1234.37 1115.62 1239.35 1115.62 1243.37 1119.65 1243.37 1124.62Z" fill="#1F4E79"/><path d="M1266.37 1140.62C1266.37 1145.6 1262.35 1149.62 1257.37 1149.62 1252.4 1149.62 1248.37 1145.6 1248.37 1140.62 1248.37 1135.65 1252.4 1131.62 1257.37 1131.62 1262.35 1131.62 1266.37 1135.65 1266.37 1140.62Z" fill="#1F4E79"/><path d="M1278.37 1131.62C1278.37 1136.6 1274.35 1140.62 1269.37 1140.62 1264.4 1140.62 1260.37 1136.6 1260.37 1131.62 1260.37 1126.65 1264.4 1122.63 1269.37 1122.63 1274.35 1122.63 1278.37 1126.65 1278.37 1131.62Z" fill="#1F4E79"/><path d="M1284.37 1120.62C1284.37 1125.6 1280.35 1129.62 1275.37 1129.62 1270.4 1129.62 1266.38 1125.6 1266.38 1120.62 1266.38 1115.65 1270.4 1111.63 1275.37 1111.63 1280.35 1111.63 1284.37 1115.65 1284.37 1120.62Z" fill="#1F4E79"/><path d="M1289.37 1118.62C1289.37 1123.6 1285.35 1127.62 1280.37 1127.62 1275.4 1127.62 1271.37 1123.6 1271.37 1118.62 1271.37 1113.65 1275.4 1109.62 1280.37 1109.62 1285.35 1109.62 1289.37 1113.65 1289.37 1118.62Z" fill="#1F4E79"/><path d="M1301.37 1333.62C1301.37 1338.6 1297.35 1342.62 1292.37 1342.62 1287.4 1342.62 1283.37 1338.6 1283.37 1333.62 1283.37 1328.65 1287.4 1324.62 1292.37 1324.62 1297.35 1324.62 1301.37 1328.65 1301.37 1333.62Z" fill="#1F4E79"/><path d="M1307.37 1027.62C1307.37 1032.6 1303.35 1036.62 1298.37 1036.62 1293.4 1036.62 1289.38 1032.6 1289.38 1027.62 1289.38 1022.65 1293.4 1018.62 1298.37 1018.62 1303.35 1018.62 1307.37 1022.65 1307.37 1027.62Z" fill="#1F4E79"/><path d="M1313.37 1047.62C1313.37 1052.6 1309.35 1056.62 1304.37 1056.62 1299.4 1056.62 1295.37 1052.6 1295.37 1047.62 1295.37 1042.65 1299.4 1038.62 1304.37 1038.62 1309.35 1038.62 1313.37 1042.65 1313.37 1047.62Z" fill="#1F4E79"/><path d="M1319.37 1019.62C1319.37 1024.6 1315.35 1028.62 1310.37 1028.62 1305.4 1028.62 1301.37 1024.6 1301.37 1019.62 1301.37 1014.65 1305.4 1010.62 1310.37 1010.62 1315.35 1010.62 1319.37 1014.65 1319.37 1019.62Z" fill="#1F4E79"/><path d="M1325.37 1227.62C1325.37 1232.6 1321.35 1236.62 1316.37 1236.62 1311.4 1236.62 1307.37 1232.6 1307.37 1227.62 1307.37 1222.65 1311.4 1218.62 1316.37 1218.62 1321.35 1218.62 1325.37 1222.65 1325.37 1227.62Z" fill="#1F4E79"/><path d="M1454.37 1034.62C1454.37 1039.6 1450.35 1043.62 1445.37 1043.62 1440.4 1043.62 1436.37 1039.6 1436.37 1034.62 1436.37 1029.65 1440.4 1025.62 1445.37 1025.62 1450.35 1025.62 1454.37 1029.65 1454.37 1034.62Z" fill="#1F4E79"/><path d="M1460.37 1088.62C1460.37 1093.6 1456.35 1097.62 1451.37 1097.62 1446.4 1097.62 1442.38 1093.6 1442.38 1088.62 1442.38 1083.65 1446.4 1079.63 1451.37 1079.63 1456.35 1079.63 1460.37 1083.65 1460.37 1088.62Z" fill="#1F4E79"/><path d="M1466.37 1101.62C1466.37 1106.6 1462.35 1110.62 1457.37 1110.62 1452.4 1110.62 1448.37 1106.6 1448.37 1101.62 1448.37 1096.65 1452.4 1092.62 1457.37 1092.62 1462.35 1092.62 1466.37 1096.65 1466.37 1101.62Z" fill="#1F4E79"/><path d="M1471.37 1131.62C1471.37 1136.6 1467.35 1140.62 1462.37 1140.62 1457.4 1140.62 1453.38 1136.6 1453.38 1131.62 1453.38 1126.65 1457.4 1122.63 1462.37 1122.63 1467.35 1122.63 1471.37 1126.65 1471.37 1131.62Z" fill="#1F4E79"/><path d="M1524.37 1015.62C1524.37 1020.6 1520.35 1024.62 1515.37 1024.62 1510.4 1024.62 1506.37 1020.6 1506.37 1015.62 1506.37 1010.65 1510.4 1006.62 1515.37 1006.62 1520.35 1006.62 1524.37 1010.65 1524.37 1015.62Z" fill="#1F4E79"/><path d="M1530.37 1524.62C1530.37 1529.6 1526.35 1533.62 1521.37 1533.62 1516.4 1533.62 1512.37 1529.6 1512.37 1524.62 1512.37 1519.65 1516.4 1515.62 1521.37 1515.62 1526.35 1515.62 1530.37 1519.65 1530.37 1524.62Z" fill="#1F4E79"/><path d="M1536.37 1533.62C1536.37 1538.6 1532.35 1542.62 1527.37 1542.62 1522.4 1542.62 1518.38 1538.6 1518.38 1533.62 1518.38 1528.65 1522.4 1524.62 1527.37 1524.62 1532.35 1524.62 1536.37 1528.65 1536.37 1533.62Z" fill="#1F4E79"/><path d="M1554.37 1567.62C1554.37 1572.6 1550.35 1576.62 1545.37 1576.62 1540.4 1576.62 1536.37 1572.6 1536.37 1567.62 1536.37 1562.65 1540.4 1558.62 1545.37 1558.62 1550.35 1558.62 1554.37 1562.65 1554.37 1567.62Z" fill="#1F4E79"/><path d="M1559.37 1516.62C1559.37 1521.6 1555.35 1525.62 1550.37 1525.62 1545.4 1525.62 1541.38 1521.6 1541.38 1516.62 1541.38 1511.65 1545.4 1507.63 1550.37 1507.63 1555.35 1507.63 1559.37 1511.65 1559.37 1516.62Z" fill="#1F4E79"/><path d="M1565.37 1529.62C1565.37 1534.6 1561.35 1538.62 1556.37 1538.62 1551.4 1538.62 1547.37 1534.6 1547.37 1529.62 1547.37 1524.65 1551.4 1520.62 1556.37 1520.62 1561.35 1520.62 1565.37 1524.65 1565.37 1529.62Z" fill="#1F4E79"/><path d="M1606.37 1579.62C1606.37 1584.6 1602.35 1588.62 1597.37 1588.62 1592.4 1588.62 1588.37 1584.6 1588.37 1579.62 1588.37 1574.65 1592.4 1570.62 1597.37 1570.62 1602.35 1570.62 1606.37 1574.65 1606.37 1579.62Z" fill="#1F4E79"/><path d="M1612.37 1519.62C1612.37 1524.6 1608.35 1528.62 1603.37 1528.62 1598.4 1528.62 1594.37 1524.6 1594.37 1519.62 1594.37 1514.65 1598.4 1510.62 1603.37 1510.62 1608.35 1510.62 1612.37 1514.65 1612.37 1519.62Z" fill="#1F4E79"/><path d="M1724.37 1349.62C1724.37 1354.6 1720.35 1358.62 1715.37 1358.62 1710.4 1358.62 1706.38 1354.6 1706.38 1349.62 1706.38 1344.65 1710.4 1340.62 1715.37 1340.62 1720.35 1340.62 1724.37 1344.65 1724.37 1349.62Z" fill="#1F4E79"/><path d="M1747.37 1505.62C1747.37 1510.6 1743.35 1514.62 1738.37 1514.62 1733.4 1514.62 1729.38 1510.6 1729.38 1505.62 1729.38 1500.65 1733.4 1496.63 1738.37 1496.63 1743.35 1496.63 1747.37 1500.65 1747.37 1505.62Z" fill="#1F4E79"/><path d="M1753.37 1140.62C1753.37 1145.6 1749.35 1149.62 1744.37 1149.62 1739.4 1149.62 1735.37 1145.6 1735.37 1140.62 1735.37 1135.65 1739.4 1131.62 1744.37 1131.62 1749.35 1131.62 1753.37 1135.65 1753.37 1140.62Z" fill="#1F4E79"/><path d="M1759.37 1007.62C1759.37 1012.6 1755.35 1016.62 1750.37 1016.62 1745.4 1016.62 1741.37 1012.6 1741.37 1007.62 1741.37 1002.65 1745.4 998.625 1750.37 998.625 1755.35 998.625 1759.37 1002.65 1759.37 1007.62Z" fill="#1F4E79"/><path d="M1765.37 1138.62C1765.37 1143.6 1761.35 1147.62 1756.37 1147.62 1751.4 1147.62 1747.37 1143.6 1747.37 1138.62 1747.37 1133.65 1751.4 1129.62 1756.37 1129.62 1761.35 1129.62 1765.37 1133.65 1765.37 1138.62Z" fill="#1F4E79"/><path d="M1771.37 1127.62C1771.37 1132.6 1767.35 1136.62 1762.37 1136.62 1757.4 1136.62 1753.37 1132.6 1753.37 1127.62 1753.37 1122.65 1757.4 1118.62 1762.37 1118.62 1767.35 1118.62 1771.37 1122.65 1771.37 1127.62Z" fill="#1F4E79"/><path d="M1777.37 1092.62C1777.37 1097.6 1773.35 1101.62 1768.37 1101.62 1763.4 1101.62 1759.37 1097.6 1759.37 1092.62 1759.37 1087.65 1763.4 1083.62 1768.37 1083.62 1773.35 1083.62 1777.37 1087.65 1777.37 1092.62Z" fill="#1F4E79"/><path d="M1782.37 1523.62C1782.37 1528.6 1778.35 1532.62 1773.37 1532.62 1768.4 1532.62 1764.37 1528.6 1764.37 1523.62 1764.37 1518.65 1768.4 1514.62 1773.37 1514.62 1778.35 1514.62 1782.37 1518.65 1782.37 1523.62Z" fill="#1F4E79"/><path d="M1788.37 1017.62C1788.37 1022.6 1784.35 1026.62 1779.37 1026.62 1774.4 1026.62 1770.37 1022.6 1770.37 1017.62 1770.37 1012.65 1774.4 1008.62 1779.37 1008.62 1784.35 1008.62 1788.37 1012.65 1788.37 1017.62Z" fill="#1F4E79"/><path d="M1853.37 1536.62C1853.37 1541.6 1849.35 1545.62 1844.37 1545.62 1839.4 1545.62 1835.37 1541.6 1835.37 1536.62 1835.37 1531.65 1839.4 1527.62 1844.37 1527.62 1849.35 1527.62 1853.37 1531.65 1853.37 1536.62Z" fill="#1F4E79"/><path d="M1871.37 1573.62C1871.37 1578.6 1867.35 1582.62 1862.37 1582.62 1857.4 1582.62 1853.37 1578.6 1853.37 1573.62 1853.37 1568.65 1857.4 1564.62 1862.37 1564.62 1867.35 1564.62 1871.37 1568.65 1871.37 1573.62Z" fill="#1F4E79"/><path d="M1882.37 1585.62C1882.37 1590.6 1878.35 1594.62 1873.37 1594.62 1868.4 1594.62 1864.37 1590.6 1864.37 1585.62 1864.37 1580.65 1868.4 1576.62 1873.37 1576.62 1878.35 1576.62 1882.37 1580.65 1882.37 1585.62Z" fill="#1F4E79"/><path d="M1888.37 1807.62C1888.37 1812.6 1884.35 1816.62 1879.37 1816.62 1874.4 1816.62 1870.38 1812.6 1870.38 1807.62 1870.38 1802.65 1874.4 1798.62 1879.37 1798.62 1884.35 1798.62 1888.37 1802.65 1888.37 1807.62Z" fill="#1F4E79"/><path d="M2739.37 1544.62C2739.37 1549.6 2735.35 1553.62 2730.37 1553.62 2725.4 1553.62 2721.37 1549.6 2721.37 1544.62 2721.37 1539.65 2725.4 1535.62 2730.37 1535.62 2735.35 1535.62 2739.37 1539.65 2739.37 1544.62Z" fill="#1F4E79"/><path d="M2757.37 1092.62C2757.37 1097.6 2753.35 1101.62 2748.38 1101.62 2743.4 1101.62 2739.38 1097.6 2739.38 1092.62 2739.38 1087.65 2743.4 1083.62 2748.38 1083.62 2753.35 1083.62 2757.37 1087.65 2757.37 1092.62Z" fill="#1F4E79"/><path d="M2763.37 1131.62C2763.37 1136.6 2759.35 1140.62 2754.37 1140.62 2749.4 1140.62 2745.37 1136.6 2745.37 1131.62 2745.37 1126.65 2749.4 1122.63 2754.37 1122.63 2759.35 1122.63 2763.37 1126.65 2763.37 1131.62Z" fill="#1F4E79"/><path d="M2769.37 1124.62C2769.37 1129.6 2765.35 1133.62 2760.38 1133.62 2755.4 1133.62 2751.38 1129.6 2751.38 1124.62 2751.38 1119.65 2755.4 1115.62 2760.38 1115.62 2765.35 1115.62 2769.37 1119.65 2769.37 1124.62Z" fill="#1F4E79"/><path d="M2774.37 1127.62C2774.37 1132.6 2770.35 1136.62 2765.37 1136.62 2760.4 1136.62 2756.37 1132.6 2756.37 1127.62 2756.37 1122.65 2760.4 1118.62 2765.37 1118.62 2770.35 1118.62 2774.37 1122.65 2774.37 1127.62Z" fill="#1F4E79"/><path d="M2792.37 1135.62C2792.37 1140.6 2788.35 1144.62 2783.38 1144.62 2778.4 1144.62 2774.38 1140.6 2774.38 1135.62 2774.38 1130.65 2778.4 1126.62 2783.38 1126.62 2788.35 1126.62 2792.37 1130.65 2792.37 1135.62Z" fill="#1F4E79"/><path d="M2804.37 1138.62C2804.37 1143.6 2800.35 1147.62 2795.37 1147.62 2790.4 1147.62 2786.37 1143.6 2786.37 1138.62 2786.37 1133.65 2790.4 1129.62 2795.37 1129.62 2800.35 1129.62 2804.37 1133.65 2804.37 1138.62Z" fill="#1F4E79"/><path d="M2810.37 1147.62C2810.37 1152.6 2806.35 1156.62 2801.38 1156.62 2796.4 1156.62 2792.38 1152.6 2792.38 1147.62 2792.38 1142.65 2796.4 1138.62 2801.38 1138.62 2806.35 1138.62 2810.37 1142.65 2810.37 1147.62Z" fill="#1F4E79"/><path d="M2815.37 1162.62C2815.37 1167.6 2811.35 1171.62 2806.37 1171.62 2801.4 1171.62 2797.37 1167.6 2797.37 1162.62 2797.37 1157.65 2801.4 1153.62 2806.37 1153.62 2811.35 1153.62 2815.37 1157.65 2815.37 1162.62Z" fill="#1F4E79"/><path d="M2821.37 1328.62C2821.37 1333.6 2817.35 1337.62 2812.38 1337.62 2807.4 1337.62 2803.38 1333.6 2803.38 1328.62 2803.38 1323.65 2807.4 1319.62 2812.38 1319.62 2817.35 1319.62 2821.37 1323.65 2821.37 1328.62Z" fill="#1F4E79"/><path d="M2827.37 1028.62C2827.37 1033.6 2823.35 1037.62 2818.37 1037.62 2813.4 1037.62 2809.37 1033.6 2809.37 1028.62 2809.37 1023.65 2813.4 1019.62 2818.37 1019.62 2823.35 1019.62 2827.37 1023.65 2827.37 1028.62Z" fill="#1F4E79"/><path d="M2833.37 1033.62C2833.37 1038.6 2829.35 1042.62 2824.38 1042.62 2819.4 1042.62 2815.38 1038.6 2815.38 1033.62 2815.38 1028.65 2819.4 1024.63 2824.38 1024.63 2829.35 1024.63 2833.37 1028.65 2833.37 1033.62Z" fill="#1F4E79"/><path d="M2839.37 1019.62C2839.37 1024.6 2835.35 1028.62 2830.37 1028.62 2825.4 1028.62 2821.37 1024.6 2821.37 1019.62 2821.37 1014.65 2825.4 1010.62 2830.37 1010.62 2835.35 1010.62 2839.37 1014.65 2839.37 1019.62Z" fill="#1F4E79"/><path d="M2845.37 1228.62C2845.37 1233.6 2841.35 1237.62 2836.38 1237.62 2831.4 1237.62 2827.38 1233.6 2827.38 1228.62 2827.38 1223.65 2831.4 1219.62 2836.38 1219.62 2841.35 1219.62 2845.37 1223.65 2845.37 1228.62Z" fill="#1F4E79"/><path d="M2851.37 1237.62C2851.37 1242.6 2847.35 1246.62 2842.37 1246.62 2837.4 1246.62 2833.37 1242.6 2833.37 1237.62 2833.37 1232.65 2837.4 1228.62 2842.37 1228.62 2847.35 1228.62 2851.37 1232.65 2851.37 1237.62Z" fill="#1F4E79"/></g><g clip-path="url(#clip6)"><path d="M1876.37 1499.62C1876.37 1504.6 1872.35 1508.62 1867.37 1508.62 1862.4 1508.62 1858.37 1504.6 1858.37 1499.62 1858.37 1494.65 1862.4 1490.62 1867.37 1490.62 1872.35 1490.62 1876.37 1494.65 1876.37 1499.62Z" fill="#C00000"/></g><g clip-path="url(#clip7)"><text fill="#7F7F7F" font-family="Calibri,Calibri_MSFontService,sans-serif" font-weight="400" font-size="55" transform="matrix(1 0 0 1 832.562 1919)">-2</text></g><g clip-path="url(#clip8)"><text fill="#7F7F7F" font-family="Calibri,Calibri_MSFontService,sans-serif" font-weight="400" font-size="55" transform="matrix(1 0 0 1 832.562 1820)">-1</text></g><g clip-path="url(#clip9)"><text fill="#7F7F7F" font-family="Calibri,Calibri_MSFontService,sans-serif" font-weight="400" font-size="55" transform="matrix(1 0 0 1 849.406 1721)">0</text></g><g clip-path="url(#clip10)"><text fill="#7F7F7F" font-family="Calibri,Calibri_MSFontService,sans-serif" font-weight="400" font-size="55" transform="matrix(1 0 0 1 849.406 1622)">1</text></g><g clip-path="url(#clip11)"><text fill="#7F7F7F" font-family="Calibri,Calibri_MSFontService,sans-serif" font-weight="400" font-size="55" transform="matrix(1 0 0 1 849.406 1523)">2</text></g><g clip-path="url(#clip12)"><text fill="#7F7F7F" font-family="Calibri,Calibri_MSFontService,sans-serif" font-weight="400" font-size="55" transform="matrix(1 0 0 1 849.406 1424)">3</text></g><g clip-path="url(#clip13)"><text fill="#7F7F7F" font-family="Calibri,Calibri_MSFontService,sans-serif" font-weight="400" font-size="55" transform="matrix(1 0 0 1 849.406 1325)">4</text></g><g clip-path="url(#clip14)"><text fill="#7F7F7F" font-family="Calibri,Calibri_MSFontService,sans-serif" font-weight="400" font-size="55" transform="matrix(1 0 0 1 849.406 1226)">5</text></g><g clip-path="url(#clip15)"><text fill="#7F7F7F" font-family="Calibri,Calibri_MSFontService,sans-serif" font-weight="400" font-size="55" transform="matrix(1 0 0 1 849.406 1127)">6</text></g><g clip-path="url(#clip16)"><text fill="#7F7F7F" font-family="Calibri,Calibri_MSFontService,sans-serif" font-weight="400" font-size="55" transform="matrix(1 0 0 1 849.406 1028)">7</text></g><g clip-path="url(#clip17)"><text fill="#7F7F7F" font-family="Calibri,Calibri_MSFontService,sans-serif" font-weight="400" font-size="55" transform="matrix(1 0 0 1 849.406 929)">8</text></g><g clip-path="url(#clip18)"><text fill="#7F7F7F" font-family="Calibri,Calibri_MSFontService,sans-serif" font-weight="700" font-size="55" transform="matrix(6.12323e-17 -1 1 6.12323e-17 803.665 1611)">Laufzeitverhältnis</text></g><g clip-path="url(#clip19)"><text fill="#7F7F7F" font-family="Calibri,Calibri_MSFontService,sans-serif" font-weight="700" font-size="55" transform="matrix(1 0 0 1 1801.36 1962)">Testinstanzen</text></g><g clip-path="url(#clip20)"><path d="M1391 810C1391 814.971 1386.97 819 1382 819 1377.03 819 1373 814.971 1373 810 1373 805.029 1377.03 801 1382 801 1386.97 801 1391 805.029 1391 810Z" fill="#BFBFBF"/></g><g clip-path="url(#clip21)"><text fill="#7F7F7F" font-family="Calibri,Calibri_MSFontService,sans-serif" font-weight="400" font-size="55" transform="matrix(1 0 0 1 1411.29 826)">0.1s &lt; </text></g><g clip-path="url(#clip22)"><text fill="#7F7F7F" font-family="Calibri,Calibri_MSFontService,sans-serif" font-weight="400" font-size="55" transform="matrix(1 0 0 1 1554.7 826)">Δ</text></g><g clip-path="url(#clip23)"><text fill="#7F7F7F" font-family="Calibri,Calibri_MSFontService,sans-serif" font-weight="400" font-size="55" transform="matrix(1 0 0 1 1585.75 826)">t ≤ 1s</text></g><g clip-path="url(#clip24)"><path d="M1793 810C1793 814.971 1788.97 819 1784 819 1779.03 819 1775 814.971 1775 810 1775 805.029 1779.03 801 1784 801 1788.97 801 1793 805.029 1793 810Z" fill="#1F4E79"/></g><g clip-path="url(#clip25)"><text fill="#7F7F7F" font-family="Calibri,Calibri_MSFontService,sans-serif" font-weight="400" font-size="55" transform="matrix(1 0 0 1 1813.04 826)">1s &lt; </text></g><g clip-path="url(#clip26)"><text fill="#7F7F7F" font-family="Calibri,Calibri_MSFontService,sans-serif" font-weight="400" font-size="55" transform="matrix(1 0 0 1 1914.7 826)">Δ</text></g><g clip-path="url(#clip27)"><text fill="#7F7F7F" font-family="Calibri,Calibri_MSFontService,sans-serif" font-weight="400" font-size="55" transform="matrix(1 0 0 1 1945.75 826)">t ≤ 60s</text></g><g clip-path="url(#clip28)"><path d="M2181 810C2181 814.971 2176.97 819 2172 819 2167.03 819 2163 814.971 2163 810 2163 805.029 2167.03 801 2172 801 2176.97 801 2181 805.029 2181 810Z" fill="#C00000"/></g><g clip-path="url(#clip29)"><text fill="#7F7F7F" font-family="Calibri,Calibri_MSFontService,sans-serif" font-weight="400" font-size="55" transform="matrix(1 0 0 1 2200.91 826)">60s &lt; </text></g><g clip-path="url(#clip30)"><text fill="#7F7F7F" font-family="Calibri,Calibri_MSFontService,sans-serif" font-weight="400" font-size="55" transform="matrix(1 0 0 1 2330.44 826)">Δ</text></g><g clip-path="url(#clip31)"><text fill="#7F7F7F" font-family="Calibri,Calibri_MSFontService,sans-serif" font-weight="400" font-size="55" transform="matrix(1 0 0 1 2361.49 826)">t</text></g><rect x="694.5" y="736.5" width="2339" height="1299" stroke="#D9D9D9" stroke-width="3.4375" stroke-linejoin="round" stroke-miterlimit="10" fill="none"/></g></svg>