<svg width="1172" height="1043" xmlns="http://www.w3.org/2000/svg" xmlns:xlink="http://www.w3.org/1999/xlink" overflow="hidden"><defs><clipPath id="clip0"><rect x="1481" y="815" width="1172" height="1043"/></clipPath><radialGradient cx="1.6196e+06" cy="1.44087e+06" r="2.16777e+06" gradientUnits="userSpaceOnUse" spreadMethod="pad" id="fill1" gradientTransform="matrix(0.000360892 0 0 0.000360892 1482 816)"><stop offset="0" stop-color="#FFFFFF"/><stop offset="0.43" stop-color="#FFFFFF"/><stop offset="1" stop-color="#F2F2F2"/></radialGradient><clipPath id="clip2"><rect x="1481" y="816" width="1169" height="1039"/></clipPath><clipPath id="clip3"><rect x="1481" y="816" width="1169" height="1039"/></clipPath><clipPath id="clip4"><rect x="1481" y="816" width="1169" height="1039"/></clipPath><clipPath id="clip5"><rect x="1481" y="816" width="1169" height="1039"/></clipPath><clipPath id="clip6"><rect x="1481" y="816" width="1169" height="1039"/></clipPath><clipPath id="clip7"><rect x="1481" y="816" width="1169" height="1039"/></clipPath><clipPath id="clip8"><rect x="1481" y="816" width="1169" height="1039"/></clipPath><clipPath id="clip9"><rect x="1481" y="816" width="1169" height="1039"/></clipPath><clipPath id="clip10"><rect x="1481" y="816" width="1169" height="1039"/></clipPath><clipPath id="clip11"><rect x="1481" y="816" width="1169" height="1039"/></clipPath><clipPath id="clip12"><rect x="1481" y="816" width="1169" height="1039"/></clipPath><clipPath id="clip13"><rect x="1481" y="816" width="1169" height="1039"/></clipPath><clipPath id="clip14"><rect x="1481" y="816" width="1169" height="1039"/></clipPath><clipPath id="clip15"><rect x="1481" y="816" width="1169" height="1039"/></clipPath><clipPath id="clip16"><rect x="1481" y="816" width="1169" height="1039"/></clipPath><clipPath id="clip17"><rect x="1481" y="816" width="1169" height="1039"/></clipPath><clipPath id="clip18"><rect x="1481" y="816" width="1169" height="1039"/></clipPath><clipPath id="clip19"><rect x="1481" y="816" width="1169" height="1039"/></clipPath><clipPath id="clip20"><rect x="1481" y="816" width="1169" height="1039"/></clipPath></defs><g clip-path="url(#clip0)" transform="translate(-1481 -815)"><rect x="1482" y="816" width="1169" height="1040" fill="url(#fill1)"/><g clip-path="url(#clip2)"><path d="M1607.5 1799.5 2579.5 1799.5M1607.5 1613.55 2579.5 1613.55M1607.5 1243.54 2579.5 1243.54M1607.5 1058.53 2579.5 1058.53M1607.5 872.5 2579.5 872.5" stroke="#D9D9D9" stroke-width="3.4375" stroke-linejoin="round" stroke-miterlimit="10" fill="none"/></g><g clip-path="url(#clip3)"><path d="M1607.5 872.5 1607.5 1799.5M1766.56 872.5 1766.56 1799.5M1925.56 872.5 1925.56 1799.5M2084.57 872.5 2084.57 1799.5M2243.57 872.5 2243.57 1799.5M2402.58 872.5 2402.58 1799.5M2561.5 872.5 2561.5 1799.5" stroke="#D9D9D9" stroke-width="3.4375" stroke-linejoin="round" stroke-miterlimit="10" fill="none"/></g><g clip-path="url(#clip4)"><path d="M1607.5 1428.5 2579.5 1428.5" stroke="#000000" stroke-width="11.4583" stroke-linejoin="round" stroke-miterlimit="10" fill="none" fill-rule="evenodd"/></g><g clip-path="url(#clip5)"><path d="M2358.56 1163.41C2358.56 1168.38 2354.53 1172.41 2349.56 1172.41 2344.59 1172.41 2340.56 1168.38 2340.56 1163.41 2340.56 1158.44 2344.59 1154.41 2349.56 1154.41 2354.53 1154.41 2358.56 1158.44 2358.56 1163.41Z" fill="#BFBFBF"/><path d="M2375.56 926.406C2375.56 931.376 2371.53 935.406 2366.56 935.406 2361.59 935.406 2357.56 931.376 2357.56 926.406 2357.56 921.435 2361.59 917.406 2366.56 917.406 2371.53 917.406 2375.56 921.435 2375.56 926.406Z" fill="#BFBFBF"/><path d="M2570.56 1681.41C2570.56 1686.38 2566.53 1690.41 2561.56 1690.41 2556.59 1690.41 2552.56 1686.38 2552.56 1681.41 2552.56 1676.44 2556.59 1672.41 2561.56 1672.41 2566.53 1672.41 2570.56 1676.44 2570.56 1681.41Z" fill="#BFBFBF"/></g><g clip-path="url(#clip6)"><path d="M2269.56 1091.41C2269.56 1096.38 2265.53 1100.41 2260.56 1100.41 2255.59 1100.41 2251.56 1096.38 2251.56 1091.41 2251.56 1086.44 2255.59 1082.41 2260.56 1082.41 2265.53 1082.41 2269.56 1086.44 2269.56 1091.41Z" fill="#1F4E79"/><path d="M2305.56 1052.41C2305.56 1057.38 2301.53 1061.41 2296.56 1061.41 2291.59 1061.41 2287.56 1057.38 2287.56 1052.41 2287.56 1047.44 2291.59 1043.41 2296.56 1043.41 2301.53 1043.41 2305.56 1047.44 2305.56 1052.41Z" fill="#1F4E79"/><path d="M2322.56 1223.41C2322.56 1228.38 2318.53 1232.41 2313.56 1232.41 2308.59 1232.41 2304.56 1228.38 2304.56 1223.41 2304.56 1218.44 2308.59 1214.41 2313.56 1214.41 2318.53 1214.41 2322.56 1218.44 2322.56 1223.41Z" fill="#1F4E79"/><path d="M2340.56 1177.41C2340.56 1182.38 2336.53 1186.41 2331.56 1186.41 2326.59 1186.41 2322.56 1182.38 2322.56 1177.41 2322.56 1172.44 2326.59 1168.41 2331.56 1168.41 2336.53 1168.41 2340.56 1172.44 2340.56 1177.41Z" fill="#1F4E79"/><path d="M2534.56 1136.41C2534.56 1141.38 2530.53 1145.41 2525.56 1145.41 2520.59 1145.41 2516.56 1141.38 2516.56 1136.41 2516.56 1131.44 2520.59 1127.41 2525.56 1127.41 2530.53 1127.41 2534.56 1131.44 2534.56 1136.41Z" fill="#1F4E79"/><path d="M2552.56 1086.41C2552.56 1091.38 2548.53 1095.41 2543.56 1095.41 2538.59 1095.41 2534.56 1091.38 2534.56 1086.41 2534.56 1081.44 2538.59 1077.41 2543.56 1077.41 2548.53 1077.41 2552.56 1081.44 2552.56 1086.41Z" fill="#1F4E79"/></g><g clip-path="url(#clip7)"><path d="M2287.56 985.406C2287.56 990.376 2283.53 994.406 2278.56 994.406 2273.59 994.406 2269.56 990.376 2269.56 985.406 2269.56 980.435 2273.59 976.406 2278.56 976.406 2283.53 976.406 2287.56 980.435 2287.56 985.406Z" fill="#C00000"/><path d="M2517.56 1174.41C2517.56 1179.38 2513.53 1183.41 2508.56 1183.41 2503.59 1183.41 2499.56 1179.38 2499.56 1174.41 2499.56 1169.44 2503.59 1165.41 2508.56 1165.41 2513.53 1165.41 2517.56 1169.44 2517.56 1174.41Z" fill="#C00000"/></g><g clip-path="url(#clip8)"><text fill="#7F7F7F" font-family="Calibri,Calibri_MSFontService,sans-serif" font-weight="400" font-size="55" transform="matrix(1 0 0 1 1511.35 1815)">-2</text></g><g clip-path="url(#clip9)"><text fill="#7F7F7F" font-family="Calibri,Calibri_MSFontService,sans-serif" font-weight="400" font-size="55" transform="matrix(1 0 0 1 1511.35 1629)">-1</text></g><g clip-path="url(#clip10)"><text fill="#7F7F7F" font-family="Calibri,Calibri_MSFontService,sans-serif" font-weight="400" font-size="55" transform="matrix(1 0 0 1 1528.2 1444)">0</text></g><g clip-path="url(#clip11)"><text fill="#7F7F7F" font-family="Calibri,Calibri_MSFontService,sans-serif" font-weight="400" font-size="55" transform="matrix(1 0 0 1 1528.2 1259)">1</text></g><g clip-path="url(#clip12)"><text fill="#7F7F7F" font-family="Calibri,Calibri_MSFontService,sans-serif" font-weight="400" font-size="55" transform="matrix(1 0 0 1 1528.2 1074)">2</text></g><g clip-path="url(#clip13)"><text fill="#7F7F7F" font-family="Calibri,Calibri_MSFontService,sans-serif" font-weight="400" font-size="55" transform="matrix(1 0 0 1 1528.2 888)">3</text></g><g clip-path="url(#clip14)"><text fill="#7F7F7F" font-family="Calibri,Calibri_MSFontService,sans-serif" font-weight="400" font-size="41" transform="matrix(1 0 0 1 1596.64 1494)"></text></g><g clip-path="url(#clip15)"><text fill="#7F7F7F" font-family="Calibri,Calibri_MSFontService,sans-serif" font-weight="400" font-size="41" transform="matrix(1 0 0 1 1680 1494)">16</text></g><g clip-path="url(#clip16)"><text fill="#7F7F7F" font-family="Calibri,Calibri_MSFontService,sans-serif" font-weight="400" font-size="41" transform="matrix(1 0 0 1 1830 1494)">32</text></g><g clip-path="url(#clip17)"><text fill="#7F7F7F" font-family="Calibri,Calibri_MSFontService,sans-serif" font-weight="400" font-size="41" transform="matrix(1 0 0 1 1990 1494)">64</text></g><g clip-path="url(#clip18)"><text fill="#7F7F7F" font-family="Calibri,Calibri_MSFontService,sans-serif" font-weight="400" font-size="41" transform="matrix(1 0 0 1 2140 1494)">128</text></g><g clip-path="url(#clip19)"><text fill="#7F7F7F" font-family="Calibri,Calibri_MSFontService,sans-serif" font-weight="400" font-size="41" transform="matrix(1 0 0 1 2300 1494)">256</text></g><g clip-path="url(#clip20)"><text fill="#7F7F7F" font-family="Calibri,Calibri_MSFontService,sans-serif" font-weight="400" font-size="41" transform="matrix(1 0 0 1 2458 1494)">512</text></g><rect x="1482.5" y="816.5" width="1169" height="1040" stroke="#D9D9D9" stroke-width="3.4375" stroke-linejoin="round" stroke-miterlimit="10" fill="none"/></g></svg>